<svg width="42" height="34" viewBox="0 0 42 34" fill="none" xmlns="http://www.w3.org/2000/svg">
<path d="M2 11.5H40M36.6071 31.8571H5.39286C4.49302 31.8571 3.63003 31.4997 2.99374 30.8634C2.35746 30.2271 2 29.3641 2 28.4643V5.39286C2 4.49302 2.35746 3.63003 2.99374 2.99374C3.63003 2.35746 4.49302 2 5.39286 2H11.83C12.4999 2.00002 13.1548 2.19835 13.7121 2.57L16.0736 4.14429C16.6309 4.51594 17.2858 4.71427 17.9558 4.71429H36.6071C37.507 4.71429 38.37 5.07175 39.0063 5.70803C39.6425 6.34431 40 7.2073 40 8.10714V28.4643C40 29.3641 39.6425 30.2271 39.0063 30.8634C38.37 31.4997 37.507 31.8571 36.6071 31.8571Z" stroke="#051861" stroke-width="3" stroke-linecap="round" stroke-linejoin="round"/>
</svg>
