<svg width="171" height="21" viewBox="0 0 171 21" fill="none" xmlns="http://www.w3.org/2000/svg">
<path d="M4.5625 8.64355C5.53255 8.64355 6.37565 8.80957 7.0918 9.1416C7.80794 9.46712 8.36133 9.94238 8.75195 10.5674C9.14909 11.1924 9.34766 11.9508 9.34766 12.8428C9.34766 13.8193 9.13607 14.6624 8.71289 15.3721C8.28971 16.0752 7.68099 16.6188 6.88672 17.0029C6.09245 17.3805 5.14193 17.5693 4.03516 17.5693C3.29297 17.5693 2.60286 17.5042 1.96484 17.374C1.32682 17.2438 0.789714 17.0485 0.353516 16.7881V15.2451C0.828776 15.5316 1.40495 15.7594 2.08203 15.9287C2.75911 16.098 3.41667 16.1826 4.05469 16.1826C4.77734 16.1826 5.40885 16.0687 5.94922 15.8408C6.49609 15.6064 6.91927 15.2549 7.21875 14.7861C7.52474 14.3109 7.67773 13.7152 7.67773 12.999C7.67773 12.0485 7.38477 11.3161 6.79883 10.8018C6.2194 10.2809 5.30143 10.0205 4.04492 10.0205C3.64128 10.0205 3.19857 10.0531 2.7168 10.1182C2.23503 10.1833 1.83789 10.2549 1.52539 10.333L0.705078 9.7959L1.25195 3.09668H8.35156V4.58105H2.63867L2.27734 8.8877C2.52474 8.83561 2.84375 8.78353 3.23438 8.73145C3.625 8.67285 4.06771 8.64355 4.5625 8.64355Z" fill="#333333"/>
<path d="M11.9746 16.3584C11.9746 15.9027 12.0853 15.5804 12.3066 15.3916C12.528 15.1963 12.7982 15.0986 13.1172 15.0986C13.4492 15.0986 13.7292 15.1963 13.957 15.3916C14.1849 15.5804 14.2988 15.9027 14.2988 16.3584C14.2988 16.8076 14.1849 17.1364 13.957 17.3447C13.7292 17.5465 13.4492 17.6475 13.1172 17.6475C12.7982 17.6475 12.528 17.5465 12.3066 17.3447C12.0853 17.1364 11.9746 16.8076 11.9746 16.3584Z" fill="#333333"/>
<path d="M26.1836 10.2158C26.1836 11.3747 26.0957 12.4098 25.9199 13.3213C25.7441 14.2327 25.4674 15.0042 25.0898 15.6357C24.7122 16.2673 24.224 16.749 23.625 17.0811C23.026 17.4066 22.3066 17.5693 21.4668 17.5693C20.4056 17.5693 19.5267 17.2796 18.8301 16.7002C18.14 16.1208 17.6224 15.2842 17.2773 14.1904C16.9388 13.0902 16.7695 11.7653 16.7695 10.2158C16.7695 8.69238 16.9225 7.38379 17.2285 6.29004C17.541 5.18978 18.0423 4.34668 18.7324 3.76074C19.4225 3.16829 20.334 2.87207 21.4668 2.87207C22.541 2.87207 23.4264 3.16504 24.123 3.75098C24.8197 4.3304 25.3372 5.17025 25.6758 6.27051C26.0143 7.36426 26.1836 8.67936 26.1836 10.2158ZM18.4004 10.2158C18.4004 11.5439 18.5013 12.6507 18.7031 13.5361C18.9049 14.4215 19.2305 15.0856 19.6797 15.5283C20.1354 15.9645 20.7311 16.1826 21.4668 16.1826C22.2025 16.1826 22.7949 15.9645 23.2441 15.5283C23.6999 15.0921 24.0286 14.4313 24.2305 13.5459C24.4388 12.6605 24.543 11.5505 24.543 10.2158C24.543 8.90723 24.4421 7.81348 24.2402 6.93457C24.0384 6.04915 23.7129 5.38509 23.2637 4.94238C22.8145 4.49316 22.2155 4.26855 21.4668 4.26855C20.7181 4.26855 20.1191 4.49316 19.6699 4.94238C19.2207 5.38509 18.8952 6.04915 18.6934 6.93457C18.498 7.81348 18.4004 8.90723 18.4004 10.2158Z" fill="#333333"/>
<path d="M50.9709 0L53.9711 7.21317L61.7583 7.83747L55.8252 12.9197L57.6379 20.5188L50.9709 16.4466L44.304 20.5188L46.1166 12.9197L40.1836 7.83747L47.9708 7.21317L50.9709 0Z" fill="#FDC20C"/>
<path d="M78.1936 0L81.1937 7.21317L88.9809 7.83747L83.0479 12.9197L84.8605 20.5188L78.1936 16.4466L71.5266 20.5188L73.3393 12.9197L67.4062 7.83747L75.1935 7.21317L78.1936 0Z" fill="#FDC20C"/>
<path d="M105.414 0L108.414 7.21317L116.202 7.83747L110.269 12.9197L112.081 20.5188L105.414 16.4466L98.7474 20.5188L100.56 12.9197L94.627 7.83747L102.414 7.21317L105.414 0Z" fill="#FDC20C"/>
<path d="M132.637 0L135.637 7.21317L143.424 7.83747L137.491 12.9197L139.304 20.5188L132.637 16.4466L125.97 20.5188L127.783 12.9197L121.85 7.83747L129.637 7.21317L132.637 0Z" fill="#FDC20C"/>
<path d="M159.858 0L162.858 7.21317L170.645 7.83747L164.712 12.9197L166.525 20.5188L159.858 16.4466L153.191 20.5188L155.003 12.9197L149.07 7.83747L156.858 7.21317L159.858 0Z" fill="#FDC20C"/>
</svg>
