<svg width="133" height="41" viewBox="0 0 133 41" fill="none" xmlns="http://www.w3.org/2000/svg">
<path d="M114.19 23.026H116.136V10.7395L114.19 8.75635V23.026Z" fill="#051861"/>
<path d="M131.054 0.324341V15.567L116.136 0.324341H114.19V5.83763L116.136 7.82079V7.7835L131.054 23.0261H133V0.324341H131.054Z" fill="#051861"/>
<path d="M99.5962 0.0606689V1.79022C102.69 2.62921 104.461 6.51997 104.461 11.6752C104.461 17.5128 102.191 21.7289 98.2989 21.7289C94.4072 21.7289 92.137 17.5128 92.137 11.6752C92.137 6.51997 93.9074 2.62921 97.0017 1.79022V0.0606689C90.879 0.637943 86.6237 5.30543 86.6237 11.6752C86.6237 18.4858 91.4884 23.3504 98.2989 23.3504C105.109 23.3504 109.974 18.4858 109.974 11.6752C109.974 5.30543 105.719 0.637943 99.5962 0.0606689Z" fill="#051861"/>
<path d="M51.2738 1.62156C53.8236 1.62156 55.379 3.77498 56.059 7.13484H61.3949C60.1197 2.67103 56.7459 0 51.2738 0C44.4633 0 39.5986 4.86467 39.5986 11.6752C39.5986 18.4857 44.4633 23.3504 51.2738 23.3504C53.0783 23.3504 54.6969 23.1646 56.1385 22.7543C58.2319 22.1586 59.9524 21.0903 61.3275 19.4314V11.9995H51.2738V13.9454H56.1385V19.8177C54.9674 21.0157 53.2732 21.7288 51.2738 21.7288C47.3821 21.7288 45.1119 17.5128 45.1119 11.6752C45.1119 5.8376 47.3821 1.62156 51.2738 1.62156Z" fill="#051861"/>
<path d="M79.413 13.1259C79.4665 13.1041 79.5197 13.0821 79.5725 13.0597C79.6196 13.0399 79.6666 13.0195 79.713 12.9991C79.7214 12.9955 79.7298 12.9919 79.7379 12.988C79.7866 12.9663 79.8352 12.9443 79.8832 12.9219C79.8849 12.9212 79.8861 12.9206 79.8874 12.9199C79.938 12.8963 79.9883 12.8723 80.0382 12.8479C80.1375 12.7996 80.2351 12.75 80.3311 12.6984C80.3823 12.6715 80.4329 12.6439 80.4829 12.6157C80.5069 12.6024 80.5309 12.5888 80.5549 12.5752C80.6557 12.5181 80.7547 12.4591 80.8516 12.3984C80.8698 12.3871 80.888 12.3757 80.9061 12.3641C80.9512 12.3355 80.9959 12.3067 81.04 12.2775C81.041 12.2768 81.042 12.2762 81.043 12.2755C81.0699 12.2577 81.0965 12.2399 81.1231 12.2217C81.1493 12.2042 81.1753 12.1863 81.2012 12.1682C82.9626 10.9433 84.0292 9.17252 84.0292 7.13487C84.0292 5.09334 82.958 3.31935 81.1905 2.09411C81.1682 2.07854 81.1458 2.0633 81.1231 2.04805C80.9071 1.90114 80.6807 1.76266 80.4446 1.63261C80.4196 1.61867 80.3943 1.60505 80.3691 1.59142C80.2954 1.55186 80.2208 1.51294 80.1456 1.475C80.1213 1.46267 80.0966 1.45035 80.072 1.43802C79.8365 1.32225 79.5923 1.21425 79.3407 1.11501C79.3144 1.10463 79.2881 1.09426 79.2618 1.0842C79.2278 1.0709 79.1934 1.05793 79.159 1.04528C79.1363 1.03685 79.1136 1.02842 79.0909 1.01999C79.0682 1.01188 79.0455 1.00377 79.0225 0.995665C78.9923 0.984639 78.9622 0.97426 78.9317 0.963558L78.8402 0.932424C78.7942 0.916857 78.7475 0.90129 78.7008 0.886696C78.6739 0.87794 78.647 0.869507 78.6197 0.861075C78.5876 0.851022 78.5555 0.840969 78.5231 0.831239C78.514 0.82832 78.5046 0.825401 78.4955 0.822807C78.4624 0.813078 78.4293 0.803348 78.3959 0.793619C78.3622 0.78389 78.3282 0.77416 78.2938 0.764755C78.2886 0.763133 78.2831 0.761512 78.2776 0.760215C78.2416 0.750161 78.2052 0.740108 78.1689 0.730703C78.1404 0.722919 78.1122 0.71546 78.0836 0.708325C77.9101 0.66357 77.734 0.622382 77.555 0.585411C77.5261 0.579249 77.4973 0.573412 77.4681 0.567574C77.4308 0.560115 77.3935 0.552656 77.3559 0.545521C77.35 0.544548 77.3439 0.543251 77.338 0.542278C77.3017 0.535467 77.2651 0.528657 77.2284 0.522171C77.1914 0.51536 77.1542 0.508874 77.1165 0.502712C77.1107 0.501739 77.1049 0.500766 77.099 0.499793C77.0614 0.493307 77.0238 0.487145 76.9858 0.481307C76.9485 0.47547 76.9109 0.469632 76.8736 0.464119C76.8681 0.463146 76.8629 0.462498 76.8574 0.461525C76.8185 0.456011 76.7796 0.450498 76.7403 0.444985C76.7063 0.44012 76.6719 0.435579 76.6375 0.431363C76.5876 0.424877 76.5373 0.418391 76.4867 0.412553C76.4468 0.408013 76.4069 0.403473 76.367 0.399257C76.3301 0.395365 76.2931 0.391473 76.2558 0.387906C76.2214 0.384338 76.1871 0.381095 76.1527 0.378177C76.1313 0.376231 76.1099 0.374285 76.0881 0.372339C76.0547 0.36942 76.021 0.366826 75.9876 0.364231C75.9548 0.361637 75.9221 0.359367 75.889 0.357097C75.8553 0.354502 75.8216 0.352231 75.7878 0.350285C75.7483 0.347691 75.709 0.345421 75.6695 0.343475C75.6331 0.341529 75.5968 0.339584 75.5605 0.337962C75.5274 0.336665 75.494 0.335043 75.4606 0.33407C75.4398 0.333097 75.4191 0.332449 75.398 0.3318C75.3691 0.330827 75.3403 0.329854 75.3111 0.329205C75.1911 0.325962 75.0701 0.324341 74.9485 0.324341H65.8678V23.0261H71.0568V2.27021H73.9756C76.8944 2.27021 78.8402 4.21607 78.8402 7.13487C78.8402 7.16147 78.8399 7.18806 78.8396 7.21466C78.8393 7.25617 78.8383 7.29735 78.837 7.33854C78.837 7.34081 78.837 7.34341 78.8367 7.34568C78.8354 7.38816 78.8338 7.43032 78.8315 7.47248C78.8244 7.60545 78.813 7.73647 78.7978 7.86522C78.7952 7.88663 78.7926 7.90803 78.7896 7.92944C78.7871 7.95052 78.7841 7.97192 78.7809 7.993C78.7796 8.00306 78.7783 8.01278 78.7767 8.02251C78.7734 8.04424 78.7702 8.0663 78.7666 8.08803C78.7634 8.10975 78.7598 8.13148 78.7559 8.15289C78.7524 8.17462 78.7485 8.19602 78.7446 8.21742C78.7407 8.23786 78.7371 8.25796 78.7329 8.27807C78.7264 8.31212 78.7193 8.34585 78.7121 8.37958C78.7089 8.3945 78.7057 8.40942 78.7021 8.42466C78.6989 8.44023 78.6953 8.45579 78.6914 8.47136C78.6885 8.48466 78.6852 8.49795 78.682 8.51125C78.6791 8.5239 78.6758 8.53622 78.6726 8.54887C78.6677 8.56865 78.6625 8.58844 78.6573 8.60854C78.599 8.83005 78.5273 9.0428 78.4423 9.24646C78.4345 9.26527 78.4267 9.28408 78.4186 9.30289C78.3862 9.37748 78.3522 9.4511 78.3165 9.5231C78.3074 9.54126 78.2983 9.5591 78.2892 9.57694C78.2802 9.59477 78.2708 9.61261 78.2613 9.63045C78.2429 9.6658 78.2237 9.70082 78.2039 9.73553C78.1955 9.75044 78.1871 9.76536 78.1783 9.78028C78.1673 9.80006 78.1556 9.81952 78.1439 9.83866C78.1235 9.87271 78.1028 9.90644 78.0814 9.93984C78.0282 10.0232 77.9724 10.1046 77.914 10.1834C77.9023 10.199 77.8907 10.2149 77.879 10.2304C77.8673 10.246 77.8553 10.2612 77.843 10.2768C77.831 10.2924 77.8187 10.3076 77.8067 10.3229C77.7677 10.3712 77.7279 10.4188 77.6863 10.4652C77.676 10.4772 77.6653 10.4892 77.6546 10.5012C77.6416 10.5158 77.6286 10.5301 77.6153 10.5444C77.602 10.5586 77.5887 10.5729 77.5751 10.5872C77.5346 10.63 77.4927 10.6718 77.4502 10.713C77.4369 10.726 77.423 10.7389 77.4094 10.7519C77.3828 10.7769 77.3562 10.8012 77.329 10.8255C77.304 10.8479 77.279 10.87 77.2534 10.8914C77.2433 10.9001 77.2336 10.9086 77.2232 10.9167C77.2015 10.9352 77.1794 10.9533 77.1571 10.9711C77.1308 10.9922 77.1042 11.013 77.0773 11.0337C77.077 11.0337 77.0766 11.0341 77.0766 11.0341C77.051 11.0535 77.0254 11.0727 76.9991 11.0915C76.991 11.0976 76.9826 11.1038 76.9742 11.1096C76.9515 11.1262 76.9288 11.1421 76.9054 11.158C76.9012 11.1609 76.897 11.1638 76.8928 11.1667C76.8678 11.1839 76.8422 11.2008 76.8165 11.2173C76.8104 11.2218 76.8039 11.2257 76.7974 11.23C76.7702 11.2475 76.7426 11.265 76.715 11.2818C76.7144 11.2822 76.7141 11.2825 76.7134 11.2828C76.6852 11.3 76.657 11.3169 76.6284 11.3334C76.5574 11.3749 76.4844 11.4148 76.4102 11.4524C76.3833 11.4664 76.356 11.48 76.3285 11.493C76.3239 11.4956 76.3191 11.4978 76.3142 11.5001C76.2941 11.5098 76.2736 11.5192 76.2532 11.5286C76.2487 11.5309 76.2441 11.5332 76.2393 11.5351C76.226 11.5413 76.2127 11.5475 76.1994 11.5533C76.1718 11.5656 76.1439 11.5779 76.116 11.5896C76.0849 11.6029 76.0538 11.6156 76.0223 11.6282C76.0152 11.6311 76.0077 11.634 76.0002 11.637C75.9681 11.6496 75.9357 11.6619 75.903 11.6739C75.7749 11.7213 75.6432 11.7634 75.5083 11.8007C75.4888 11.8063 75.469 11.8114 75.4492 11.8166C75.4097 11.827 75.3695 11.8371 75.3293 11.8468C75.3091 11.8517 75.289 11.8562 75.2689 11.8607C75.1956 11.8773 75.122 11.8922 75.0471 11.9058C75.0273 11.9094 75.0075 11.9129 74.9878 11.9162C74.9566 11.9217 74.9252 11.9266 74.894 11.9314C74.8739 11.9347 74.8538 11.9376 74.8337 11.9402C74.7831 11.9476 74.7322 11.9541 74.6806 11.96C74.6599 11.9626 74.6391 11.9648 74.6184 11.9668C74.5746 11.9713 74.5305 11.9755 74.486 11.9791C74.4672 11.9807 74.4481 11.982 74.429 11.9833C74.2808 11.994 74.1296 11.9995 73.9756 11.9995H72.7338L74.0168 13.9101L74.0404 13.9454L80.1375 23.0261H85.6508L79.0874 13.2507C79.1973 13.2105 79.306 13.169 79.413 13.1259Z" fill="#051861"/>
<path d="M30.5179 5.62131V23.0261H35.7069V0.324341H32.7881L30.5179 5.62131Z" fill="#051861"/>
<path d="M0.0326538 23.0261H1.97852V9.95539L0.0326538 5.82788V23.0261Z" fill="#051861"/>
<path d="M13.0784 16.8013L5.54594 0.324341H0.0326538V1.0122L1.97852 5.13971L10.1048 22.3775H10.6885H12.9587L14.2501 19.3646L20.1399 5.62131V23.0261H25.3289V0.324341H20.1399L13.0784 16.8013Z" fill="#051861"/>
<path d="M3.3404 36.9228L4.97818 32.9987V32.9176H6.45379V38.593H4.97818V34.3284L3.28365 38.4309H2.45666L0.518898 34.2878V38.593H0V32.9176H1.52426L3.3404 36.9228Z" fill="#051861"/>
<path d="M7.88885 38.593V32.9176H9.35636V37.1012L11.9509 32.9176H13.1022V38.593H11.6346V34.4094L9.04016 38.593H7.88885Z" fill="#051861"/>
<path d="M14.5372 32.9176H18.5182V33.4203H16.0047V38.593H14.5372V32.9176Z" fill="#051861"/>
<path d="M19.613 32.9174H21.8751C23.294 32.9174 24.2993 33.6227 24.2993 34.62C24.2993 35.6172 23.3021 36.3226 21.8832 36.3226H21.0805V38.5928H19.613V32.9174ZM21.0805 33.42V35.8199H21.4859C22.1994 35.8199 22.767 35.3983 22.767 34.6281C22.767 33.8579 22.1913 33.42 21.4778 33.42H21.0805Z" fill="#051861"/>
<path d="M27.9722 37.1658H25.7344L25.1182 38.5928H24.421L26.8128 32.9174H27.5587L30.2667 38.5928H28.6127L27.9722 37.1658ZM25.9452 36.6632H27.7533L26.8371 34.6119L25.9452 36.6632Z" fill="#051861"/>
<path d="M31.2068 32.9176H32.6744V38.0904H34.8391V32.9176H36.3147V38.0904H37.2228V40.0038H36.1769L35.7715 38.593H31.2068V32.9176Z" fill="#051861"/>
<path d="M38.2278 38.593V32.9176H39.6954V37.1012L42.2898 32.9176H43.4411V38.593H41.9736V34.4094L39.3791 38.593H38.2278Z" fill="#051861"/>
<path d="M47.5028 32.8365C49.1649 32.8365 50.4216 34.0933 50.4216 35.7553C50.4216 37.4174 49.1649 38.6741 47.5028 38.6741C45.8407 38.6741 44.5921 37.4174 44.5921 35.7553C44.5921 34.0933 45.8407 32.8365 47.5028 32.8365ZM47.5028 38.2201C48.2811 38.2201 48.8973 37.231 48.8973 35.7553C48.8973 34.2797 48.2811 33.2906 47.5028 33.2906C46.7326 33.2906 46.1164 34.2797 46.1164 35.7553C46.1164 37.231 46.7326 38.2201 47.5028 38.2201Z" fill="#051861"/>
<path d="M55.3596 35.9499H53.0408V38.593H51.5732V32.9176H53.0408V35.4472H55.3596V32.9176H56.8271V38.593H55.3596V35.9499Z" fill="#051861"/>
<path d="M62.0488 35.9497H59.73V38.5928H58.2625V32.9174H59.73V35.447H62.0488V32.9174H63.5163V38.5928H62.0488V35.9497Z" fill="#051861"/>
<path d="M67.5782 32.8365C69.2403 32.8365 70.497 34.0933 70.497 35.7553C70.497 37.4174 69.2403 38.6741 67.5782 38.6741C65.9161 38.6741 64.6675 37.4174 64.6675 35.7553C64.6675 34.0933 65.9161 32.8365 67.5782 32.8365ZM67.5782 38.2201C68.3566 38.2201 68.9728 37.231 68.9728 35.7553C68.9728 34.2797 68.3566 33.2906 67.5782 33.2906C66.808 33.2906 66.1918 34.2797 66.1918 35.7553C66.1918 37.231 66.808 38.2201 67.5782 38.2201Z" fill="#051861"/>
<path d="M71.6478 32.9176H75.7179V33.4203H73.1153V35.4472H75.4747V35.9499H73.1153V38.0904H75.799V38.593H71.6478V32.9176Z" fill="#051861"/>
<path d="M82.4636 37.1661H80.2258L79.6096 38.593H78.9124L81.3041 32.9176H82.0501L84.7581 38.593H83.1041L82.4636 37.1661ZM80.4366 36.6634H82.2447L81.3285 34.6121L80.4366 36.6634Z" fill="#051861"/>
<path d="M85.6989 32.9174H89.6798V33.42H87.1664V38.5928H85.6989V32.9174Z" fill="#051861"/>
<path d="M90.774 32.9176H94.8442V33.4203H92.2416V35.4472H94.6009V35.9499H92.2416V38.0904H94.9252V38.593H90.774V32.9176Z" fill="#051861"/>
<path d="M99.8551 35.9497H97.5362V38.5928H96.0687V32.9174H97.5362V35.447H99.8551V32.9174H101.323V38.5928H99.8551V35.9497Z" fill="#051861"/>
<path d="M102.303 32.9176H107.476V33.4203H105.627V38.593H104.152V33.4203H102.303V32.9176Z" fill="#051861"/>
<path d="M113.387 36.8985C113.111 38.2039 112.089 38.6741 110.914 38.6741C108.895 38.6741 108.003 37.2958 108.003 35.731C108.003 34.0933 108.976 32.8365 110.857 32.8365C112.073 32.8365 113.135 33.3311 113.314 34.6284H111.846C111.725 33.7203 111.327 33.2906 110.8 33.2906C109.933 33.2906 109.535 34.4905 109.535 35.7553C109.535 37.0202 109.925 38.2201 110.833 38.2201C111.327 38.2201 111.749 37.8553 111.919 36.8985H113.387Z" fill="#051861"/>
<path d="M113.889 32.9174H119.061V33.42H117.213V38.5928H115.737V33.42H113.889V32.9174Z" fill="#051861"/>
<path d="M120.043 32.9176H122.467C123.813 32.9176 124.567 33.4689 124.567 34.3446C124.567 34.977 124.17 35.4391 123.432 35.6418C124.364 35.8283 124.891 36.3472 124.891 37.085C124.891 38.0093 124.064 38.593 122.637 38.593H120.043V32.9176ZM121.51 33.4203V35.4067H121.964C122.629 35.4067 123.124 35.1148 123.124 34.4256C123.124 33.7284 122.621 33.4203 121.956 33.4203H121.51ZM121.51 35.9094V38.0904H122.127C122.84 38.0904 123.367 37.7579 123.367 37.012C123.367 36.258 122.832 35.9094 122.118 35.9094H121.51Z" fill="#051861"/>
<path d="M128.548 32.8365C130.21 32.8365 131.467 34.0933 131.467 35.7553C131.467 37.4174 130.21 38.6741 128.548 38.6741C126.886 38.6741 125.638 37.4174 125.638 35.7553C125.638 34.0933 126.886 32.8365 128.548 32.8365ZM128.548 38.2201C129.327 38.2201 129.943 37.231 129.943 35.7553C129.943 34.2797 129.327 33.2906 128.548 33.2906C127.778 33.2906 127.162 34.2797 127.162 35.7553C127.162 37.231 127.778 38.2201 128.548 38.2201Z" fill="#051861"/>
</svg>
