<svg xmlns="http://www.w3.org/2000/svg" width="175" height="53" viewBox="0 0 175 53" fill="none">
  <path d="M150.25 30.2974H152.81V14.1309L150.25 11.5215V30.2974Z" fill="#5C5C5C"/>
  <path d="M172.44 0.426758V20.4828L152.81 0.426758H150.25V7.68109L152.81 10.2905V10.2414L172.44 30.2975H175V0.426758H172.44Z" fill="#5C5C5C"/>
  <path d="M131.048 0.0800781V2.3558C135.119 3.45974 137.448 8.57916 137.448 15.3624C137.448 23.0434 134.461 28.5909 129.341 28.5909C124.22 28.5909 121.233 23.0434 121.233 15.3624C121.233 8.57916 123.562 3.45974 127.634 2.3558V0.0800781C119.578 0.839649 113.979 6.98108 113.979 15.3624C113.979 24.3236 120.379 30.7245 129.341 30.7245C138.302 30.7245 144.703 24.3236 144.703 15.3624C144.703 6.98108 139.104 0.839649 131.048 0.0800781Z" fill="#5C5C5C"/>
  <path d="M67.4656 2.13363C70.8205 2.13363 72.867 4.96708 73.7619 9.38795H80.7828C79.1049 3.51451 74.6657 0 67.4656 0C58.5043 0 52.1035 6.40088 52.1035 15.3621C52.1035 24.3233 58.5043 30.7242 67.4656 30.7242C69.8399 30.7242 71.9696 30.4797 73.8664 29.9399C76.6209 29.156 78.8847 27.7504 80.694 25.5677V15.7888H67.4656V18.3492H73.8664V26.0759C72.3255 27.6522 70.0963 28.5906 67.4656 28.5906C62.3449 28.5906 59.3578 23.0432 59.3578 15.3621C59.3578 7.68105 62.3449 2.13363 67.4656 2.13363Z" fill="#5C5C5C"/>
  <path d="M104.491 17.2709C104.561 17.2423 104.631 17.2133 104.701 17.1838C104.763 17.1578 104.825 17.1309 104.886 17.104C104.897 17.0993 104.908 17.0946 104.918 17.0895C104.982 17.0609 105.046 17.0319 105.11 17.0025C105.112 17.0016 105.113 17.0008 105.115 16.9999C105.182 16.9688 105.248 16.9372 105.314 16.9052C105.444 16.8416 105.573 16.7763 105.699 16.7085C105.766 16.673 105.833 16.6368 105.899 16.5996C105.93 16.5821 105.962 16.5642 105.993 16.5463C106.126 16.4712 106.256 16.3935 106.384 16.3137C106.408 16.2988 106.432 16.2839 106.455 16.2685C106.515 16.231 106.574 16.193 106.632 16.1546C106.633 16.1537 106.634 16.1529 106.636 16.152C106.671 16.1285 106.706 16.1051 106.741 16.0812C106.776 16.0581 106.81 16.0347 106.844 16.0108C109.161 14.399 110.565 12.0691 110.565 9.38799C110.565 6.70175 109.155 4.36757 106.83 2.7554C106.8 2.73491 106.771 2.71486 106.741 2.6948C106.457 2.5015 106.159 2.31928 105.848 2.14817C105.815 2.12982 105.782 2.1119 105.749 2.09397C105.652 2.04191 105.554 1.99071 105.455 1.94078C105.423 1.92456 105.39 1.90835 105.358 1.89213C105.048 1.73979 104.727 1.59769 104.396 1.46711C104.361 1.45346 104.327 1.4398 104.292 1.42657C104.247 1.40908 104.202 1.39201 104.157 1.37537C104.127 1.36427 104.097 1.35318 104.067 1.34208C104.037 1.33142 104.007 1.32075 103.977 1.31008C103.937 1.29557 103.898 1.28191 103.858 1.26783L103.737 1.22687C103.677 1.20638 103.615 1.1859 103.554 1.1667C103.518 1.15518 103.483 1.14408 103.447 1.13299C103.405 1.11976 103.363 1.10653 103.32 1.09373C103.308 1.08989 103.296 1.08605 103.284 1.08263C103.24 1.06983 103.197 1.05703 103.153 1.04423C103.108 1.03143 103.063 1.01863 103.018 1.00625C103.011 1.00412 103.004 1.00198 102.997 1.00028C102.949 0.987048 102.902 0.973819 102.854 0.961444C102.816 0.951203 102.779 0.941388 102.742 0.932C102.513 0.873112 102.282 0.818918 102.046 0.770271C102.008 0.762163 101.97 0.754483 101.932 0.746802C101.883 0.736987 101.834 0.727173 101.784 0.717785C101.776 0.716505 101.768 0.714797 101.761 0.713517C101.713 0.704556 101.665 0.695595 101.616 0.68706C101.568 0.678099 101.519 0.669564 101.469 0.661457C101.461 0.660176 101.454 0.658896 101.446 0.657616C101.397 0.649082 101.347 0.640974 101.297 0.633293C101.248 0.625612 101.199 0.617931 101.15 0.610676C101.142 0.609396 101.135 0.608543 101.128 0.607263C101.077 0.600009 101.026 0.592754 100.974 0.5855C100.929 0.579099 100.884 0.573124 100.839 0.567577C100.773 0.559042 100.707 0.550508 100.64 0.542827C100.588 0.536853 100.536 0.530879 100.483 0.525331C100.434 0.520211 100.386 0.51509 100.337 0.510396C100.291 0.505702 100.246 0.501435 100.201 0.497594C100.173 0.495034 100.145 0.492474 100.116 0.489914C100.072 0.486073 100.028 0.482659 99.9837 0.479245C99.9406 0.475832 99.8975 0.472845 99.854 0.469857C99.8096 0.466444 99.7653 0.463456 99.7209 0.460895C99.6688 0.457482 99.6172 0.454495 99.5651 0.451934C99.5173 0.449374 99.4695 0.446814 99.4218 0.444681C99.3782 0.442974 99.3343 0.440839 99.2903 0.439559C99.263 0.438279 99.2357 0.437426 99.208 0.436573C99.17 0.435293 99.132 0.434012 99.0936 0.433158C98.9357 0.428891 98.7765 0.426758 98.6165 0.426758H86.6682V30.2975H93.4958V2.98711H97.3363C101.177 2.98711 103.737 5.54746 103.737 9.38799C103.737 9.42298 103.737 9.45797 103.736 9.49296C103.736 9.54758 103.735 9.60178 103.733 9.65597C103.733 9.65896 103.733 9.66237 103.733 9.66536C103.731 9.72126 103.729 9.77673 103.726 9.83221C103.716 10.0072 103.701 10.1796 103.681 10.349C103.678 10.3771 103.674 10.4053 103.671 10.4335C103.667 10.4612 103.663 10.4894 103.659 10.5171C103.657 10.5303 103.656 10.5431 103.654 10.5559C103.649 10.5845 103.645 10.6135 103.64 10.6421C103.636 10.6707 103.631 10.6993 103.626 10.7275C103.622 10.7561 103.616 10.7842 103.611 10.8124C103.606 10.8393 103.602 10.8657 103.596 10.8922C103.587 10.937 103.578 10.9814 103.569 11.0258C103.564 11.0454 103.56 11.065 103.555 11.0851C103.551 11.1056 103.546 11.126 103.541 11.1465C103.538 11.164 103.533 11.1815 103.529 11.199C103.525 11.2157 103.521 11.2319 103.517 11.2485C103.51 11.2745 103.503 11.3006 103.497 11.327C103.42 11.6185 103.325 11.8984 103.214 12.1664C103.203 12.1911 103.193 12.2159 103.182 12.2406C103.14 12.3388 103.095 12.4357 103.048 12.5304C103.036 12.5543 103.024 12.5778 103.012 12.6012C103 12.6247 102.988 12.6482 102.976 12.6716C102.951 12.7182 102.926 12.7642 102.9 12.8099C102.889 12.8295 102.878 12.8492 102.866 12.8688C102.852 12.8948 102.836 12.9204 102.821 12.9456C102.794 12.9904 102.767 13.0348 102.739 13.0787C102.669 13.1884 102.595 13.2955 102.518 13.3992C102.503 13.4197 102.488 13.4406 102.472 13.4611C102.457 13.4816 102.441 13.5016 102.425 13.5221C102.409 13.5426 102.393 13.5626 102.377 13.5827C102.326 13.6463 102.274 13.709 102.219 13.77C102.205 13.7858 102.191 13.8016 102.177 13.8174C102.16 13.8366 102.143 13.8554 102.125 13.8741C102.108 13.8929 102.09 13.9117 102.073 13.9305C102.019 13.9868 101.964 14.0419 101.908 14.096C101.891 14.1131 101.872 14.1302 101.855 14.1473C101.82 14.1801 101.785 14.2121 101.749 14.2441C101.716 14.2736 101.683 14.3026 101.649 14.3307C101.636 14.3423 101.623 14.3534 101.61 14.364C101.581 14.3884 101.552 14.4122 101.523 14.4357C101.488 14.4635 101.453 14.4908 101.418 14.5181C101.417 14.5181 101.417 14.5185 101.417 14.5185C101.383 14.5441 101.349 14.5693 101.315 14.594C101.304 14.6021 101.293 14.6102 101.282 14.6179C101.252 14.6397 101.222 14.6606 101.191 14.6815C101.186 14.6854 101.18 14.6892 101.175 14.693C101.142 14.7157 101.108 14.7378 101.074 14.7596C101.066 14.7656 101.058 14.7707 101.049 14.7762C101.013 14.7993 100.977 14.8223 100.941 14.8445C100.94 14.8449 100.94 14.8454 100.939 14.8458C100.902 14.8684 100.865 14.8906 100.827 14.9124C100.734 14.967 100.637 15.0195 100.54 15.069C100.504 15.0873 100.469 15.1053 100.432 15.1223C100.426 15.1257 100.42 15.1287 100.413 15.1317C100.387 15.1445 100.36 15.1569 100.333 15.1693C100.327 15.1722 100.321 15.1752 100.315 15.1778C100.297 15.1859 100.28 15.194 100.262 15.2017C100.226 15.2179 100.189 15.2341 100.153 15.2495C100.112 15.267 100.071 15.2836 100.029 15.3003C100.02 15.3041 100.01 15.3079 100 15.3118C99.9581 15.3284 99.9155 15.3446 99.8724 15.3604C99.7038 15.4227 99.5306 15.4782 99.353 15.5273C99.3274 15.5345 99.3014 15.5414 99.2754 15.5482C99.2233 15.5618 99.1704 15.5751 99.1175 15.5879C99.091 15.5943 99.0646 15.6003 99.0381 15.6062C98.9417 15.628 98.8448 15.6476 98.7462 15.6655C98.7202 15.6702 98.6942 15.6749 98.6681 15.6792C98.6272 15.6865 98.5858 15.6929 98.5448 15.6993C98.5184 15.7035 98.4919 15.7074 98.4655 15.7108C98.3989 15.7206 98.3319 15.7291 98.264 15.7368C98.2367 15.7402 98.2094 15.7432 98.1821 15.7458C98.1245 15.7517 98.0665 15.7573 98.008 15.762C97.9833 15.7641 97.9581 15.7658 97.9329 15.7675C97.7379 15.7816 97.539 15.7889 97.3363 15.7889H95.7024L97.3905 18.3027L97.4217 18.3492L105.444 30.2975H112.698L104.062 17.4352C104.207 17.3823 104.35 17.3276 104.491 17.2709Z" fill="#5C5C5C"/>
  <path d="M40.1552 7.39646V30.2975H46.9828V0.426758H43.1422L40.1552 7.39646Z" fill="#5C5C5C"/>
  <path d="M0.0429688 30.2977H2.60332V13.0994L0.0429688 7.66846V30.2977Z" fill="#5C5C5C"/>
  <path d="M17.2084 22.107L7.2973 0.426758H0.0429688V1.33184L2.60332 6.76277L13.2958 29.4441H14.0639H17.051L18.7502 25.4798L26.4999 7.39646V30.2975H33.3275V0.426758H26.4999L17.2084 22.107Z" fill="#5C5C5C"/>
  <path d="M4.39527 48.5826L6.55023 43.4192V43.3125H8.49183V50.7802H6.55023V45.1688L4.32059 50.5668H3.23244L0.68276 45.1154V50.7802H0V43.3125H2.00561L4.39527 48.5826Z" fill="#5C5C5C"/>
  <path d="M10.3801 50.7802V43.3125H12.311V48.8173L15.7248 43.3125H17.2397V50.7802H15.3087V45.2754L11.8949 50.7802H10.3801Z" fill="#5C5C5C"/>
  <path d="M19.1279 43.3125H24.366V43.9739H21.0589V50.7802H19.1279V43.3125Z" fill="#5C5C5C"/>
  <path d="M25.8066 43.3125H28.783C30.65 43.3125 31.9728 44.2406 31.9728 45.5528C31.9728 46.865 30.6606 47.7931 28.7937 47.7931H27.7376V50.7802H25.8066V43.3125ZM27.7376 43.9739V47.1317H28.271C29.2098 47.1317 29.9565 46.5769 29.9565 45.5635C29.9565 44.55 29.1991 43.9739 28.2603 43.9739H27.7376Z" fill="#5C5C5C"/>
  <path d="M36.8055 48.9026H33.861L33.0503 50.7802H32.1328L35.2799 43.3125H36.2614L39.8245 50.7802H37.6482L36.8055 48.9026ZM34.1384 48.2412H36.5174L35.3119 45.5421L34.1384 48.2412Z" fill="#5C5C5C"/>
  <path d="M41.0616 43.3125H42.9926V50.1188H45.841V43.3125H47.7826V50.1188H48.9774V52.6364H47.6012L47.0678 50.7802H41.0616V43.3125Z" fill="#5C5C5C"/>
  <path d="M50.2998 50.7802V43.3125H52.2307V48.8173L55.6445 43.3125H57.1594V50.7802H55.2285V45.2754L51.8147 50.7802H50.2998Z" fill="#5C5C5C"/>
  <path d="M62.5037 43.2061C64.6907 43.2061 66.3442 44.8596 66.3442 47.0466C66.3442 49.2335 64.6907 50.8871 62.5037 50.8871C60.3167 50.8871 58.6738 49.2335 58.6738 47.0466C58.6738 44.8596 60.3167 43.2061 62.5037 43.2061ZM62.5037 50.2897C63.5278 50.2897 64.3386 48.9882 64.3386 47.0466C64.3386 45.105 63.5278 43.8035 62.5037 43.8035C61.4902 43.8035 60.6794 45.105 60.6794 47.0466C60.6794 48.9882 61.4902 50.2897 62.5037 50.2897Z" fill="#5C5C5C"/>
  <path d="M72.8415 47.3024H69.7904V50.7802H67.8595V43.3125H69.7904V46.641H72.8415V43.3125H74.7724V50.7802H72.8415V47.3024Z" fill="#5C5C5C"/>
  <path d="M81.6431 47.3024H78.5921V50.7802H76.6611V43.3125H78.5921V46.641H81.6431V43.3125H83.5741V50.7802H81.6431V47.3024Z" fill="#5C5C5C"/>
  <path d="M88.9187 43.2061C91.1057 43.2061 92.7593 44.8596 92.7593 47.0466C92.7593 49.2335 91.1057 50.8871 88.9187 50.8871C86.7318 50.8871 85.0889 49.2335 85.0889 47.0466C85.0889 44.8596 86.7318 43.2061 88.9187 43.2061ZM88.9187 50.2897C89.9429 50.2897 90.7536 48.9882 90.7536 47.0466C90.7536 45.105 89.9429 43.8035 88.9187 43.8035C87.9053 43.8035 87.0945 45.105 87.0945 47.0466C87.0945 48.9882 87.9053 50.2897 88.9187 50.2897Z" fill="#5C5C5C"/>
  <path d="M94.2734 43.3125H99.6288V43.9739H96.2044V46.641H99.3088V47.3024H96.2044V50.1188H99.7355V50.7802H94.2734V43.3125Z" fill="#5C5C5C"/>
  <path d="M108.505 48.9026H105.56L104.749 50.7802H103.832L106.979 43.3125H107.961L111.524 50.7802H109.347L108.505 48.9026ZM105.838 48.2412H108.217L107.011 45.5421L105.838 48.2412Z" fill="#5C5C5C"/>
  <path d="M112.762 43.3125H118V43.9739H114.693V50.7802H112.762V43.3125Z" fill="#5C5C5C"/>
  <path d="M119.44 43.3125H124.795V43.9739H121.37V46.641H124.475V47.3024H121.37V50.1188H124.902V50.7802H119.44V43.3125Z" fill="#5C5C5C"/>
  <path d="M131.388 47.3024H128.337V50.7802H126.406V43.3125H128.337V46.641H131.388V43.3125H133.319V50.7802H131.388V47.3024Z" fill="#5C5C5C"/>
  <path d="M134.609 43.3125H141.415V43.9739H138.983V50.7802H137.042V43.9739H134.609V43.3125Z" fill="#5C5C5C"/>
  <path d="M149.193 48.5508C148.83 50.2684 147.486 50.8871 145.939 50.8871C143.283 50.8871 142.109 49.0735 142.109 47.0146C142.109 44.8596 143.39 43.2061 145.865 43.2061C147.465 43.2061 148.862 43.8568 149.097 45.5637H147.166C147.006 44.3689 146.483 43.8035 145.79 43.8035C144.648 43.8035 144.126 45.3824 144.126 47.0466C144.126 48.7108 144.638 50.2897 145.833 50.2897C146.483 50.2897 147.038 49.8096 147.262 48.5508H149.193Z" fill="#5C5C5C"/>
  <path d="M149.854 43.3125H156.66V43.9739H154.227V50.7802H152.286V43.9739H149.854V43.3125Z" fill="#5C5C5C"/>
  <path d="M157.951 43.3125H161.141C162.912 43.3125 163.904 44.0379 163.904 45.1901C163.904 46.0222 163.381 46.6303 162.41 46.897C163.637 47.1424 164.331 47.8251 164.331 48.7959C164.331 50.0121 163.243 50.7802 161.365 50.7802H157.951V43.3125ZM159.882 43.9739V46.5876H160.479C161.354 46.5876 162.005 46.2036 162.005 45.2968C162.005 44.3793 161.344 43.9739 160.469 43.9739H159.882ZM159.882 47.249V50.1188H160.693C161.632 50.1188 162.325 49.6814 162.325 48.6999C162.325 47.7078 161.621 47.249 160.682 47.249H159.882Z" fill="#5C5C5C"/>
  <path d="M169.142 43.2061C171.329 43.2061 172.983 44.8596 172.983 47.0466C172.983 49.2335 171.329 50.8871 169.142 50.8871C166.955 50.8871 165.312 49.2335 165.312 47.0466C165.312 44.8596 166.955 43.2061 169.142 43.2061ZM169.142 50.2897C170.166 50.2897 170.977 48.9882 170.977 47.0466C170.977 45.105 170.166 43.8035 169.142 43.8035C168.129 43.8035 167.318 45.105 167.318 47.0466C167.318 48.9882 168.129 50.2897 169.142 50.2897Z" fill="#5C5C5C"/>
</svg>