<svg width="31" height="30" viewBox="0 0 31 30" fill="none" xmlns="http://www.w3.org/2000/svg">
<path d="M17.9935 1.60718C19.4217 2.4318 20.6645 3.54206 21.6443 4.8686C22.6241 6.19514 23.3199 7.70947 23.6881 9.317C24.0564 10.9245 24.0892 12.5907 23.7846 14.2115C23.4799 15.8323 22.8443 17.3729 21.9175 18.737L29.3308 26.1488C29.7436 26.5555 29.9834 27.1058 30.0004 27.685C30.0173 28.2642 29.8101 28.8276 29.4219 29.2577C29.0337 29.6879 28.4944 29.9516 27.9165 29.994C27.3386 30.0363 26.7667 29.854 26.3199 29.485L26.149 29.3306L18.7372 21.9173C16.9639 23.1218 14.9003 23.8291 12.761 23.9656C10.6216 24.1022 8.48483 23.6629 6.57283 22.6936C4.66083 21.7243 3.04352 20.2603 1.88915 18.454C0.73479 16.6477 0.0855543 14.565 0.00899679 12.4228L0 11.9954L0.00749745 11.5681C0.0812613 9.49994 0.688803 7.48607 1.77107 5.72219C2.85334 3.95831 4.37353 2.50441 6.18389 1.50182C7.99424 0.499216 10.0332 -0.0179858 12.1025 0.000477556C14.1719 0.0189409 16.2013 0.572442 17.9935 1.60718ZM11.9956 5.99759C11.6284 5.99764 11.2739 6.13247 10.9994 6.37652C10.725 6.62057 10.5496 6.95686 10.5067 7.3216L10.4962 7.49704V10.496H7.49727L7.32184 10.5064C6.9574 10.5498 6.62151 10.7253 6.3778 10.9997C6.13409 11.2741 5.99949 11.6284 5.99949 11.9954C5.99949 12.3624 6.13409 12.7167 6.3778 12.9911C6.62151 13.2655 6.9574 13.441 7.32184 13.4844L7.49727 13.4949H10.4962V16.4938L10.5067 16.6692C10.55 17.0336 10.7255 17.3695 10.9999 17.6132C11.2744 17.857 11.6286 17.9916 11.9956 17.9916C12.3626 17.9916 12.7169 17.857 12.9913 17.6132C13.2657 17.3695 13.4412 17.0336 13.4846 16.6692L13.4951 16.4938V13.4949H16.494L16.6694 13.4844C17.0339 13.441 17.3698 13.2655 17.6135 12.9911C17.8572 12.7167 17.9918 12.3624 17.9918 11.9954C17.9918 11.6284 17.8572 11.2741 17.6135 10.9997C17.3698 10.7253 17.0339 10.5498 16.6694 10.5064L16.494 10.496H13.4951V7.49704L13.4846 7.3216C13.4416 6.95686 13.2663 6.62057 12.9918 6.37652C12.7174 6.13247 12.3629 5.99764 11.9956 5.99759Z" fill="#051861"/>
</svg>
