<svg width="41" height="47" viewBox="0 0 41 47" fill="none" xmlns="http://www.w3.org/2000/svg">
<path fill-rule="evenodd" clip-rule="evenodd" d="M18.9982 0.219345C19.9094 -0.0731149 20.8837 -0.0731149 21.7948 0.219345L28.9322 2.50936C32.6545 3.70366 36.1896 5.45926 39.4254 7.72052C41.9447 9.4792 40.752 13.5778 37.7211 13.5778H3.07189C0.0410319 13.5778 -1.15171 9.4792 1.36524 7.72052C4.60165 5.45814 8.13759 3.70168 11.8609 2.50687L18.9982 0.219345ZM20.7431 3.79656C20.5173 3.72357 20.2757 3.72357 20.0499 3.79656L12.915 6.08658C10.0942 6.99079 7.38923 8.24982 4.8598 9.83592H35.9332C33.4038 8.24982 30.6989 6.99079 27.878 6.08658L20.7407 3.79656H20.7431Z" fill="#051861"/>
<path d="M2.09192 45.229C2.09192 44.7593 2.27855 44.3088 2.61075 43.9767C2.94295 43.6446 3.3935 43.458 3.86331 43.458H36.9291C37.3989 43.458 37.8495 43.6446 38.1817 43.9767C38.5139 44.3088 38.7005 44.7593 38.7005 45.229C38.7005 45.6987 38.5139 46.1492 38.1817 46.4813C37.8495 46.8134 37.3989 47 36.9291 47H3.86331C3.3935 47 2.94295 46.8134 2.61075 46.4813C2.27855 46.1492 2.09192 45.6987 2.09192 45.229ZM6.81561 35.7836C6.81561 36.2533 7.00224 36.7037 7.33444 37.0359C7.66664 37.368 8.1172 37.5546 8.587 37.5546C9.0568 37.5546 9.50736 37.368 9.83955 37.0359C10.1718 36.7037 10.3584 36.2533 10.3584 35.7836V21.6155C10.3584 21.1458 10.1718 20.6953 9.83955 20.3632C9.50736 20.031 9.0568 19.8444 8.587 19.8444C8.1172 19.8444 7.66664 20.031 7.33444 20.3632C7.00224 20.6953 6.81561 21.1458 6.81561 21.6155V35.7836ZM20.3962 37.5546C19.9264 37.5546 19.4759 37.368 19.1437 37.0359C18.8115 36.7037 18.6248 36.2533 18.6248 35.7836V21.6155C18.6248 21.1458 18.8115 20.6953 19.1437 20.3632C19.4759 20.031 19.9264 19.8444 20.3962 19.8444C20.866 19.8444 21.3166 20.031 21.6488 20.3632C21.981 20.6953 22.1676 21.1458 22.1676 21.6155V35.7836C22.1676 36.2533 21.981 36.7037 21.6488 37.0359C21.3166 37.368 20.866 37.5546 20.3962 37.5546ZM30.4341 35.7836C30.4341 36.2533 30.6207 36.7037 30.9529 37.0359C31.2851 37.368 31.7357 37.5546 32.2055 37.5546C32.6753 37.5546 33.1258 37.368 33.458 37.0359C33.7902 36.7037 33.9768 36.2533 33.9768 35.7836V21.6155C33.9768 21.1458 33.7902 20.6953 33.458 20.3632C33.1258 20.031 32.6753 19.8444 32.2055 19.8444C31.7357 19.8444 31.2851 20.031 30.9529 20.3632C30.6207 20.6953 30.4341 21.1458 30.4341 21.6155V35.7836Z" fill="#051861"/>
</svg>
