<svg width="64" height="51" viewBox="0 0 64 51" fill="none" xmlns="http://www.w3.org/2000/svg">
<path d="M2 18.8956H62M15.3333 35.6204H15.3667M28.6667 35.6204H35.3333M2 12.2057C2 9.54434 3.05357 6.99193 4.92893 5.11004C6.8043 3.22814 9.34783 2.1709 12 2.1709H52C54.6522 2.1709 57.1957 3.22814 59.0711 5.11004C60.9464 6.99193 62 9.54434 62 12.2057V38.9653C62 41.6267 60.9464 44.1791 59.0711 46.061C57.1957 47.9429 54.6522 49.0002 52 49.0002H12C9.34783 49.0002 6.8043 47.9429 4.92893 46.061C3.05357 44.1791 2 41.6267 2 38.9653V12.2057Z" stroke="#051861" stroke-width="4" stroke-linecap="round" stroke-linejoin="round"/>
</svg>
