<svg width="64" height="51" viewBox="0 0 64 51" fill="none" xmlns="http://www.w3.org/2000/svg">
<path d="M15.3333 22.3337C15.3333 20.5656 16.0356 18.8699 17.2859 17.6196C18.5361 16.3694 20.2318 15.667 21.9999 15.667H55.3333C57.1014 15.667 58.7971 16.3694 60.0473 17.6196C61.2976 18.8699 61.9999 20.5656 61.9999 22.3337V42.3337C61.9999 44.1018 61.2976 45.7975 60.0473 47.0477C58.7971 48.298 57.1014 49.0003 55.3333 49.0003H21.9999C20.2318 49.0003 18.5361 48.298 17.2859 47.0477C16.0356 45.7975 15.3333 44.1018 15.3333 42.3337V22.3337Z" stroke="#051861" stroke-width="4" stroke-linecap="round" stroke-linejoin="round"/>
<path d="M48.6667 15.6663V8.99968C48.6667 7.23157 47.9643 5.53587 46.7141 4.28563C45.4638 3.03539 43.7681 2.33301 42 2.33301H8.66667C6.89856 2.33301 5.20287 3.03539 3.95262 4.28563C2.70238 5.53587 2 7.23157 2 8.99968V28.9997C2 30.7678 2.70238 32.4635 3.95262 33.7137C5.20287 34.964 6.89856 35.6664 8.66667 35.6664H15.3333M32 32.333C32 34.1011 32.7024 35.7968 33.9526 37.0471C35.2029 38.2973 36.8986 38.9997 38.6667 38.9997C40.4348 38.9997 42.1305 38.2973 43.3807 37.0471C44.631 35.7968 45.3334 34.1011 45.3334 32.333C45.3334 30.5649 44.631 28.8692 43.3807 27.619C42.1305 26.3687 40.4348 25.6664 38.6667 25.6664C36.8986 25.6664 35.2029 26.3687 33.9526 27.619C32.7024 28.8692 32 30.5649 32 32.333Z" stroke="#051861" stroke-width="4" stroke-linecap="round" stroke-linejoin="round"/>
</svg>
