<svg width="115" height="39" viewBox="0 0 115 39" fill="none" xmlns="http://www.w3.org/2000/svg">
<path d="M44.2734 19.2891C45.0104 19.2891 45.5482 19.4336 45.8867 19.7227C46.2279 20.0091 46.3984 20.4206 46.3984 20.957C46.3984 21.1992 46.3581 21.4297 46.2773 21.6484C46.1992 21.8646 46.0716 22.056 45.8945 22.2227C45.7174 22.3867 45.4844 22.5169 45.1953 22.6133C44.9089 22.707 44.5573 22.7539 44.1406 22.7539H43.4453V25H42.7812V19.2891H44.2734ZM44.2109 19.8555H43.4453V22.1836H44.0664C44.431 22.1836 44.7344 22.1445 44.9766 22.0664C45.2214 21.9883 45.4049 21.862 45.5273 21.6875C45.6497 21.5104 45.7109 21.276 45.7109 20.9844C45.7109 20.6042 45.5898 20.3216 45.3477 20.1367C45.1055 19.9492 44.7266 19.8555 44.2109 19.8555Z" fill="black"/>
<path d="M49.1445 20.6406C49.5091 20.6406 49.8216 20.7214 50.082 20.8828C50.3424 21.0443 50.5417 21.2708 50.6797 21.5625C50.8177 21.8516 50.8867 22.1901 50.8867 22.5781V22.9805H47.9297C47.9375 23.4831 48.0625 23.8659 48.3047 24.1289C48.5469 24.3919 48.888 24.5234 49.3281 24.5234C49.599 24.5234 49.8385 24.4987 50.0469 24.4492C50.2552 24.3997 50.4714 24.3268 50.6953 24.2305V24.8008C50.4792 24.8971 50.2643 24.9674 50.0508 25.0117C49.8398 25.056 49.5898 25.0781 49.3008 25.0781C48.8893 25.0781 48.5299 24.9948 48.2227 24.8281C47.918 24.6589 47.681 24.4115 47.5117 24.0859C47.3424 23.7604 47.2578 23.362 47.2578 22.8906C47.2578 22.4297 47.3346 22.0312 47.4883 21.6953C47.6445 21.3568 47.8633 21.0964 48.1445 20.9141C48.4284 20.7318 48.7617 20.6406 49.1445 20.6406ZM49.1367 21.1719C48.7904 21.1719 48.5143 21.2852 48.3086 21.5117C48.1029 21.7383 47.9805 22.0547 47.9414 22.4609H50.207C50.2044 22.2057 50.1641 21.9818 50.0859 21.7891C50.0104 21.5938 49.8945 21.4427 49.7383 21.3359C49.582 21.2266 49.3815 21.1719 49.1367 21.1719Z" fill="black"/>
<path d="M52.6055 20.7188V23.4102C52.6055 23.4622 52.6042 23.5299 52.6016 23.6133C52.599 23.694 52.5951 23.7812 52.5898 23.875C52.5846 23.9661 52.5794 24.0547 52.5742 24.1406C52.5716 24.224 52.5677 24.293 52.5625 24.3477L54.8984 20.7188H55.6953V25H55.0898V22.375C55.0898 22.2917 55.0911 22.1849 55.0938 22.0547C55.0964 21.9245 55.1003 21.7969 55.1055 21.6719C55.1107 21.5443 55.1146 21.4453 55.1172 21.375L52.7891 25H51.9883V20.7188H52.6055ZM55.375 18.957C55.3516 19.2201 55.2852 19.4401 55.1758 19.6172C55.069 19.7943 54.9115 19.9284 54.7031 20.0195C54.4948 20.1081 54.2279 20.1523 53.9023 20.1523C53.5664 20.1523 53.2956 20.1094 53.0898 20.0234C52.8867 19.9349 52.7357 19.8021 52.6367 19.625C52.5404 19.4479 52.4831 19.2253 52.4648 18.957H53.0742C53.1029 19.2435 53.1797 19.4388 53.3047 19.543C53.4297 19.6471 53.6328 19.6992 53.9141 19.6992C54.1641 19.6992 54.3607 19.6445 54.5039 19.5352C54.6471 19.4258 54.7331 19.2331 54.7617 18.957H55.375Z" fill="black"/>
<path d="M59.9922 21.2695H58.582V25H57.9414V21.2695H56.5508V20.7188H59.9922V21.2695Z" fill="black"/>
<path d="M61.457 20.7188V23.4102C61.457 23.4622 61.4557 23.5299 61.4531 23.6133C61.4505 23.694 61.4466 23.7812 61.4414 23.875C61.4362 23.9661 61.431 24.0547 61.4258 24.1406C61.4232 24.224 61.4193 24.293 61.4141 24.3477L63.75 20.7188H64.5469V25H63.9414V22.375C63.9414 22.2917 63.9427 22.1849 63.9453 22.0547C63.9479 21.9245 63.9518 21.7969 63.957 21.6719C63.9622 21.5443 63.9661 21.4453 63.9688 21.375L61.6406 25H60.8398V20.7188H61.457Z" fill="black"/>
<path d="M66.5781 20.7188V22.5156H68.9648V20.7188H69.6133V25H68.9648V23.0664H66.5781V25H65.9258V20.7188H66.5781Z" fill="black"/>
<path d="M73.5859 20.7188V21.2695H71.6406V25H70.9883V20.7188H73.5859Z" fill="black"/>
<path d="M77.1719 20.7188V22.5156H79.5586V20.7188H80.207V25H79.5586V23.0664H77.1719V25H76.5195V20.7188H77.1719Z" fill="black"/>
<path d="M83.1836 20.6484C83.694 20.6484 84.0729 20.763 84.3203 20.9922C84.5677 21.2214 84.6914 21.5872 84.6914 22.0898V25H84.2188L84.0938 24.3672H84.0625C83.9427 24.5234 83.8177 24.6549 83.6875 24.7617C83.5573 24.8659 83.4062 24.9453 83.2344 25C83.0651 25.0521 82.8568 25.0781 82.6094 25.0781C82.349 25.0781 82.1172 25.0326 81.9141 24.9414C81.7135 24.8503 81.5547 24.7122 81.4375 24.5273C81.3229 24.3424 81.2656 24.1081 81.2656 23.8242C81.2656 23.3971 81.4349 23.069 81.7734 22.8398C82.112 22.6107 82.6276 22.4857 83.3203 22.4648L84.0586 22.4336V22.1719C84.0586 21.8021 83.9792 21.543 83.8203 21.3945C83.6615 21.2461 83.4375 21.1719 83.1484 21.1719C82.9245 21.1719 82.7109 21.2044 82.5078 21.2695C82.3047 21.3346 82.112 21.4115 81.9297 21.5L81.7305 21.0078C81.9232 20.9089 82.1445 20.8242 82.3945 20.7539C82.6445 20.6836 82.9076 20.6484 83.1836 20.6484ZM84.0508 22.8906L83.3984 22.918C82.8646 22.9388 82.4883 23.026 82.2695 23.1797C82.0508 23.3333 81.9414 23.5508 81.9414 23.832C81.9414 24.0768 82.0156 24.2578 82.1641 24.375C82.3125 24.4922 82.5091 24.5508 82.7539 24.5508C83.1341 24.5508 83.4453 24.4453 83.6875 24.2344C83.9297 24.0234 84.0508 23.707 84.0508 23.2852V22.8906Z" fill="black"/>
<path d="M91.7969 22.8516C91.7969 23.2031 91.7513 23.5169 91.6602 23.793C91.569 24.069 91.4375 24.3021 91.2656 24.4922C91.0938 24.6823 90.8854 24.8281 90.6406 24.9297C90.3984 25.0286 90.1237 25.0781 89.8164 25.0781C89.5299 25.0781 89.2669 25.0286 89.0273 24.9297C88.7904 24.8281 88.5846 24.6823 88.4102 24.4922C88.2383 24.3021 88.1042 24.069 88.0078 23.793C87.9141 23.5169 87.8672 23.2031 87.8672 22.8516C87.8672 22.3828 87.9466 21.9844 88.1055 21.6562C88.2643 21.3255 88.4909 21.0742 88.7852 20.9023C89.082 20.7279 89.4349 20.6406 89.8438 20.6406C90.2344 20.6406 90.5755 20.7279 90.8672 20.9023C91.1615 21.0768 91.3893 21.3294 91.5508 21.6602C91.7148 21.9883 91.7969 22.3854 91.7969 22.8516ZM88.5391 22.8516C88.5391 23.1953 88.5846 23.4935 88.6758 23.7461C88.7669 23.9987 88.9076 24.194 89.0977 24.332C89.2878 24.4701 89.5326 24.5391 89.832 24.5391C90.1289 24.5391 90.3724 24.4701 90.5625 24.332C90.7552 24.194 90.8971 23.9987 90.9883 23.7461C91.0794 23.4935 91.125 23.1953 91.125 22.8516C91.125 22.5104 91.0794 22.2161 90.9883 21.9688C90.8971 21.7188 90.7565 21.526 90.5664 21.3906C90.3763 21.2552 90.1302 21.1875 89.8281 21.1875C89.3828 21.1875 89.056 21.3346 88.8477 21.6289C88.6419 21.9232 88.5391 22.3307 88.5391 22.8516Z" fill="black"/>
<path d="M94.6328 25.0781C94.2474 25.0781 93.9076 24.9987 93.6133 24.8398C93.319 24.681 93.0898 24.4388 92.9258 24.1133C92.7617 23.7878 92.6797 23.3776 92.6797 22.8828C92.6797 22.3646 92.7656 21.9414 92.9375 21.6133C93.112 21.2826 93.3516 21.0378 93.6562 20.8789C93.9609 20.7201 94.3073 20.6406 94.6953 20.6406C94.9089 20.6406 95.1146 20.6628 95.3125 20.707C95.513 20.7487 95.6771 20.8021 95.8047 20.8672L95.6094 21.4102C95.4792 21.3581 95.3281 21.3112 95.1562 21.2695C94.987 21.2279 94.8281 21.207 94.6797 21.207C94.3828 21.207 94.1354 21.2708 93.9375 21.3984C93.7422 21.526 93.5951 21.7135 93.4961 21.9609C93.3997 22.2083 93.3516 22.513 93.3516 22.875C93.3516 23.2214 93.3984 23.5169 93.4922 23.7617C93.5885 24.0065 93.7305 24.194 93.918 24.3242C94.1081 24.4518 94.3451 24.5156 94.6289 24.5156C94.8555 24.5156 95.0599 24.4922 95.2422 24.4453C95.4245 24.3958 95.5898 24.3385 95.7383 24.2734V24.8516C95.5951 24.9245 95.4349 24.9805 95.2578 25.0195C95.0833 25.0586 94.875 25.0781 94.6328 25.0781Z" fill="black"/>
<path d="M97.4062 20.7188V22.5156H99.793V20.7188H100.441V25H99.793V23.0664H97.4062V25H96.7539V20.7188H97.4062Z" fill="black"/>
<path d="M105.508 22.8516C105.508 23.2031 105.462 23.5169 105.371 23.793C105.28 24.069 105.148 24.3021 104.977 24.4922C104.805 24.6823 104.596 24.8281 104.352 24.9297C104.109 25.0286 103.835 25.0781 103.527 25.0781C103.241 25.0781 102.978 25.0286 102.738 24.9297C102.501 24.8281 102.296 24.6823 102.121 24.4922C101.949 24.3021 101.815 24.069 101.719 23.793C101.625 23.5169 101.578 23.2031 101.578 22.8516C101.578 22.3828 101.658 21.9844 101.816 21.6562C101.975 21.3255 102.202 21.0742 102.496 20.9023C102.793 20.7279 103.146 20.6406 103.555 20.6406C103.945 20.6406 104.286 20.7279 104.578 20.9023C104.872 21.0768 105.1 21.3294 105.262 21.6602C105.426 21.9883 105.508 22.3854 105.508 22.8516ZM102.25 22.8516C102.25 23.1953 102.296 23.4935 102.387 23.7461C102.478 23.9987 102.618 24.194 102.809 24.332C102.999 24.4701 103.243 24.5391 103.543 24.5391C103.84 24.5391 104.083 24.4701 104.273 24.332C104.466 24.194 104.608 23.9987 104.699 23.7461C104.79 23.4935 104.836 23.1953 104.836 22.8516C104.836 22.5104 104.79 22.2161 104.699 21.9688C104.608 21.7188 104.467 21.526 104.277 21.3906C104.087 21.2552 103.841 21.1875 103.539 21.1875C103.094 21.1875 102.767 21.3346 102.559 21.6289C102.353 21.9232 102.25 22.3307 102.25 22.8516Z" fill="black"/>
<path d="M110.031 21.793C110.031 22.0612 109.953 22.2708 109.797 22.4219C109.641 22.5703 109.439 22.6706 109.191 22.7227V22.7539C109.46 22.7904 109.69 22.8867 109.883 23.043C110.078 23.1966 110.176 23.4323 110.176 23.75C110.176 23.9948 110.117 24.2109 110 24.3984C109.883 24.5859 109.699 24.7331 109.449 24.8398C109.199 24.9466 108.874 25 108.473 25H106.629V20.7188H108.457C108.764 20.7188 109.035 20.7539 109.27 20.8242C109.507 20.8919 109.693 21.0039 109.828 21.1602C109.964 21.3164 110.031 21.5273 110.031 21.793ZM109.5 23.75C109.5 23.4974 109.404 23.3151 109.211 23.2031C109.021 23.0911 108.743 23.0352 108.379 23.0352H107.281V24.4727H108.395C108.754 24.4727 109.027 24.418 109.215 24.3086C109.405 24.1966 109.5 24.0104 109.5 23.75ZM109.371 21.8672C109.371 21.6641 109.297 21.513 109.148 21.4141C109 21.3125 108.757 21.2617 108.418 21.2617H107.281V22.4922H108.305C108.656 22.4922 108.922 22.4414 109.102 22.3398C109.281 22.2383 109.371 22.0807 109.371 21.8672Z" fill="black"/>
<path d="M112.871 20.6406C113.236 20.6406 113.548 20.7214 113.809 20.8828C114.069 21.0443 114.268 21.2708 114.406 21.5625C114.544 21.8516 114.613 22.1901 114.613 22.5781V22.9805H111.656C111.664 23.4831 111.789 23.8659 112.031 24.1289C112.273 24.3919 112.615 24.5234 113.055 24.5234C113.326 24.5234 113.565 24.4987 113.773 24.4492C113.982 24.3997 114.198 24.3268 114.422 24.2305V24.8008C114.206 24.8971 113.991 24.9674 113.777 25.0117C113.566 25.056 113.316 25.0781 113.027 25.0781C112.616 25.0781 112.257 24.9948 111.949 24.8281C111.645 24.6589 111.408 24.4115 111.238 24.0859C111.069 23.7604 110.984 23.362 110.984 22.8906C110.984 22.4297 111.061 22.0312 111.215 21.6953C111.371 21.3568 111.59 21.0964 111.871 20.9141C112.155 20.7318 112.488 20.6406 112.871 20.6406ZM112.863 21.1719C112.517 21.1719 112.241 21.2852 112.035 21.5117C111.829 21.7383 111.707 22.0547 111.668 22.4609H113.934C113.931 22.2057 113.891 21.9818 113.812 21.7891C113.737 21.5938 113.621 21.4427 113.465 21.3359C113.309 21.2266 113.108 21.1719 112.863 21.1719Z" fill="black"/>
<path d="M46.375 32.8516C46.375 33.2031 46.3294 33.5169 46.2383 33.793C46.1471 34.069 46.0156 34.3021 45.8438 34.4922C45.6719 34.6823 45.4635 34.8281 45.2188 34.9297C44.9766 35.0286 44.7018 35.0781 44.3945 35.0781C44.1081 35.0781 43.8451 35.0286 43.6055 34.9297C43.3685 34.8281 43.1628 34.6823 42.9883 34.4922C42.8164 34.3021 42.6823 34.069 42.5859 33.793C42.4922 33.5169 42.4453 33.2031 42.4453 32.8516C42.4453 32.3828 42.5247 31.9844 42.6836 31.6562C42.8424 31.3255 43.069 31.0742 43.3633 30.9023C43.6602 30.7279 44.013 30.6406 44.4219 30.6406C44.8125 30.6406 45.1536 30.7279 45.4453 30.9023C45.7396 31.0768 45.9674 31.3294 46.1289 31.6602C46.293 31.9883 46.375 32.3854 46.375 32.8516ZM43.1172 32.8516C43.1172 33.1953 43.1628 33.4935 43.2539 33.7461C43.3451 33.9987 43.4857 34.194 43.6758 34.332C43.8659 34.4701 44.1107 34.5391 44.4102 34.5391C44.707 34.5391 44.9505 34.4701 45.1406 34.332C45.3333 34.194 45.4753 33.9987 45.5664 33.7461C45.6576 33.4935 45.7031 33.1953 45.7031 32.8516C45.7031 32.5104 45.6576 32.2161 45.5664 31.9688C45.4753 31.7188 45.3346 31.526 45.1445 31.3906C44.9544 31.2552 44.7083 31.1875 44.4062 31.1875C43.9609 31.1875 43.6341 31.3346 43.4258 31.6289C43.2201 31.9232 43.1172 32.3307 43.1172 32.8516Z" fill="black"/>
<path d="M50.4141 31.2695H49.0039V35H48.3633V31.2695H46.9727V30.7188H50.4141V31.2695Z" fill="black"/>
<path d="M52.3633 30.6406C52.6836 30.6406 52.9609 30.6849 53.1953 30.7734C53.4297 30.8594 53.6107 30.9857 53.7383 31.1523C53.8659 31.319 53.9297 31.5221 53.9297 31.7617C53.9297 32.0195 53.8594 32.2253 53.7188 32.3789C53.5781 32.5326 53.3841 32.6432 53.1367 32.7109V32.7422C53.3112 32.7891 53.4688 32.8568 53.6094 32.9453C53.7526 33.0312 53.8659 33.1458 53.9492 33.2891C54.0352 33.4297 54.0781 33.6055 54.0781 33.8164C54.0781 34.056 54.013 34.2721 53.8828 34.4648C53.7526 34.6549 53.5547 34.8047 53.2891 34.9141C53.0234 35.0234 52.6875 35.0781 52.2812 35.0781C52.0807 35.0781 51.8906 35.0664 51.7109 35.043C51.5312 35.0221 51.3685 34.9909 51.2227 34.9492C51.0768 34.9076 50.9492 34.8581 50.8398 34.8008V34.2109C51.0221 34.2995 51.2357 34.3776 51.4805 34.4453C51.7253 34.513 51.9896 34.5469 52.2734 34.5469C52.4922 34.5469 52.6888 34.5221 52.8633 34.4727C53.0378 34.4206 53.1758 34.3385 53.2773 34.2266C53.3815 34.112 53.4336 33.9622 53.4336 33.7773C53.4336 33.6081 53.388 33.4688 53.2969 33.3594C53.2057 33.2474 53.069 33.1654 52.8867 33.1133C52.707 33.0586 52.4792 33.0312 52.2031 33.0312H51.6289V32.5H52.1016C52.4688 32.5 52.7617 32.4479 52.9805 32.3438C53.1992 32.2396 53.3086 32.0638 53.3086 31.8164C53.3086 31.6029 53.224 31.444 53.0547 31.3398C52.8854 31.2331 52.6432 31.1797 52.3281 31.1797C52.0938 31.1797 51.8867 31.2044 51.707 31.2539C51.5273 31.3008 51.3333 31.3685 51.125 31.457L50.8945 30.9375C51.1185 30.8385 51.3529 30.7643 51.5977 30.7148C51.8424 30.6654 52.0977 30.6406 52.3633 30.6406Z" fill="black"/>
<path d="M55.1289 35V30.7188H55.7812V32.4844H56.9531C57.3177 32.4844 57.6172 32.5299 57.8516 32.6211C58.0885 32.7122 58.2643 32.8477 58.3789 33.0273C58.4935 33.207 58.5508 33.4297 58.5508 33.6953C58.5508 33.9609 58.4935 34.1914 58.3789 34.3867C58.2669 34.582 58.0898 34.7331 57.8477 34.8398C57.6081 34.9466 57.2956 35 56.9102 35H55.1289ZM55.7812 34.4727H56.8477C57.1706 34.4727 57.4284 34.4154 57.6211 34.3008C57.8138 34.1862 57.9102 33.9948 57.9102 33.7266C57.9102 33.4635 57.8203 33.2812 57.6406 33.1797C57.4609 33.0755 57.2031 33.0234 56.8672 33.0234H55.7812V34.4727ZM59.2578 35V30.7188H59.9062V35H59.2578Z" fill="black"/>
<path d="M64.6797 31.793C64.6797 32.0612 64.6016 32.2708 64.4453 32.4219C64.2891 32.5703 64.0872 32.6706 63.8398 32.7227V32.7539C64.1081 32.7904 64.3385 32.8867 64.5312 33.043C64.7266 33.1966 64.8242 33.4323 64.8242 33.75C64.8242 33.9948 64.7656 34.2109 64.6484 34.3984C64.5312 34.5859 64.3477 34.7331 64.0977 34.8398C63.8477 34.9466 63.5221 35 63.1211 35H61.2773V30.7188H63.1055C63.4128 30.7188 63.6836 30.7539 63.918 30.8242C64.1549 30.8919 64.3411 31.0039 64.4766 31.1602C64.612 31.3164 64.6797 31.5273 64.6797 31.793ZM64.1484 33.75C64.1484 33.4974 64.0521 33.3151 63.8594 33.2031C63.6693 33.0911 63.3919 33.0352 63.0273 33.0352H61.9297V34.4727H63.043C63.4023 34.4727 63.6758 34.418 63.8633 34.3086C64.0534 34.1966 64.1484 34.0104 64.1484 33.75ZM64.0195 31.8672C64.0195 31.6641 63.9453 31.513 63.7969 31.4141C63.6484 31.3125 63.4049 31.2617 63.0664 31.2617H61.9297V32.4922H62.9531C63.3047 32.4922 63.5703 32.4414 63.75 32.3398C63.9297 32.2383 64.0195 32.0807 64.0195 31.8672Z" fill="black"/>
<path d="M69.5625 32.8516C69.5625 33.2031 69.5169 33.5169 69.4258 33.793C69.3346 34.069 69.2031 34.3021 69.0312 34.4922C68.8594 34.6823 68.651 34.8281 68.4062 34.9297C68.1641 35.0286 67.8893 35.0781 67.582 35.0781C67.2956 35.0781 67.0326 35.0286 66.793 34.9297C66.556 34.8281 66.3503 34.6823 66.1758 34.4922C66.0039 34.3021 65.8698 34.069 65.7734 33.793C65.6797 33.5169 65.6328 33.2031 65.6328 32.8516C65.6328 32.3828 65.7122 31.9844 65.8711 31.6562C66.0299 31.3255 66.2565 31.0742 66.5508 30.9023C66.8477 30.7279 67.2005 30.6406 67.6094 30.6406C68 30.6406 68.3411 30.7279 68.6328 30.9023C68.9271 31.0768 69.1549 31.3294 69.3164 31.6602C69.4805 31.9883 69.5625 32.3854 69.5625 32.8516ZM66.3047 32.8516C66.3047 33.1953 66.3503 33.4935 66.4414 33.7461C66.5326 33.9987 66.6732 34.194 66.8633 34.332C67.0534 34.4701 67.2982 34.5391 67.5977 34.5391C67.8945 34.5391 68.138 34.4701 68.3281 34.332C68.5208 34.194 68.6628 33.9987 68.7539 33.7461C68.8451 33.4935 68.8906 33.1953 68.8906 32.8516C68.8906 32.5104 68.8451 32.2161 68.7539 31.9688C68.6628 31.7188 68.5221 31.526 68.332 31.3906C68.1419 31.2552 67.8958 31.1875 67.5938 31.1875C67.1484 31.1875 66.8216 31.3346 66.6133 31.6289C66.4076 31.9232 66.3047 32.3307 66.3047 32.8516Z" fill="black"/>
<path d="M74.0859 31.793C74.0859 32.0612 74.0078 32.2708 73.8516 32.4219C73.6953 32.5703 73.4935 32.6706 73.2461 32.7227V32.7539C73.5143 32.7904 73.7448 32.8867 73.9375 33.043C74.1328 33.1966 74.2305 33.4323 74.2305 33.75C74.2305 33.9948 74.1719 34.2109 74.0547 34.3984C73.9375 34.5859 73.7539 34.7331 73.5039 34.8398C73.2539 34.9466 72.9284 35 72.5273 35H70.6836V30.7188H72.5117C72.819 30.7188 73.0898 30.7539 73.3242 30.8242C73.5612 30.8919 73.7474 31.0039 73.8828 31.1602C74.0182 31.3164 74.0859 31.5273 74.0859 31.793ZM73.5547 33.75C73.5547 33.4974 73.4583 33.3151 73.2656 33.2031C73.0755 33.0911 72.7982 33.0352 72.4336 33.0352H71.3359V34.4727H72.4492C72.8086 34.4727 73.082 34.418 73.2695 34.3086C73.4596 34.1966 73.5547 34.0104 73.5547 33.75ZM73.4258 31.8672C73.4258 31.6641 73.3516 31.513 73.2031 31.4141C73.0547 31.3125 72.8112 31.2617 72.4727 31.2617H71.3359V32.4922H72.3594C72.7109 32.4922 72.9766 32.4414 73.1562 32.3398C73.3359 32.2383 73.4258 32.0807 73.4258 31.8672Z" fill="black"/>
<path d="M80.7578 31.793C80.7578 32.0612 80.6797 32.2708 80.5234 32.4219C80.3672 32.5703 80.1654 32.6706 79.918 32.7227V32.7539C80.1862 32.7904 80.4167 32.8867 80.6094 33.043C80.8047 33.1966 80.9023 33.4323 80.9023 33.75C80.9023 33.9948 80.8438 34.2109 80.7266 34.3984C80.6094 34.5859 80.4258 34.7331 80.1758 34.8398C79.9258 34.9466 79.6003 35 79.1992 35H77.3555V30.7188H79.1836C79.4909 30.7188 79.7617 30.7539 79.9961 30.8242C80.2331 30.8919 80.4193 31.0039 80.5547 31.1602C80.6901 31.3164 80.7578 31.5273 80.7578 31.793ZM80.2266 33.75C80.2266 33.4974 80.1302 33.3151 79.9375 33.2031C79.7474 33.0911 79.4701 33.0352 79.1055 33.0352H78.0078V34.4727H79.1211C79.4805 34.4727 79.7539 34.418 79.9414 34.3086C80.1315 34.1966 80.2266 34.0104 80.2266 33.75ZM80.0977 31.8672C80.0977 31.6641 80.0234 31.513 79.875 31.4141C79.7266 31.3125 79.4831 31.2617 79.1445 31.2617H78.0078V32.4922H79.0312C79.3828 32.4922 79.6484 32.4414 79.8281 32.3398C80.0078 32.2383 80.0977 32.0807 80.0977 31.8672Z" fill="black"/>
<path d="M85.7852 32.6133L84.3008 35H83.5234L85.1211 32.4922C84.9128 32.4271 84.7174 32.3346 84.5352 32.2148C84.3555 32.0924 84.2096 31.9245 84.0977 31.7109C83.9883 31.4974 83.9336 31.224 83.9336 30.8906C83.9336 30.3698 84.1107 29.9727 84.4648 29.6992C84.8216 29.4258 85.3516 29.2891 86.0547 29.2891H87.6211V35H86.957V32.6133H85.7852ZM86.957 29.8555H86.0781C85.763 29.8555 85.4961 29.8919 85.2773 29.9648C85.0612 30.0378 84.8971 30.1523 84.7852 30.3086C84.6732 30.4648 84.6172 30.6693 84.6172 30.9219C84.6172 31.2839 84.737 31.5625 84.9766 31.7578C85.2161 31.9505 85.582 32.0469 86.0742 32.0469H86.957V29.8555Z" fill="black"/>
<path d="M89.7422 30.7188V32.5156H92.1289V30.7188H92.7773V35H92.1289V33.0664H89.7422V35H89.0898V30.7188H89.7422Z" fill="black"/>
<path d="M97.2891 30.7188V34.4492H97.9023V36.4805H97.2734V35H94.2422V36.4805H93.6211V34.4492H93.957C94.2018 34.1107 94.4049 33.7396 94.5664 33.3359C94.7279 32.9323 94.8503 32.5091 94.9336 32.0664C95.0169 31.6211 95.0612 31.1719 95.0664 30.7188H97.2891ZM96.6602 31.2344H95.6445C95.6211 31.6146 95.5651 32.0013 95.4766 32.3945C95.3906 32.7878 95.276 33.1628 95.1328 33.5195C94.9896 33.8737 94.8229 34.1836 94.6328 34.4492H96.6602V31.2344Z" fill="black"/>
<path d="M100.402 30.6406C100.767 30.6406 101.079 30.7214 101.34 30.8828C101.6 31.0443 101.799 31.2708 101.938 31.5625C102.076 31.8516 102.145 32.1901 102.145 32.5781V32.9805H99.1875C99.1953 33.4831 99.3203 33.8659 99.5625 34.1289C99.8047 34.3919 100.146 34.5234 100.586 34.5234C100.857 34.5234 101.096 34.4987 101.305 34.4492C101.513 34.3997 101.729 34.3268 101.953 34.2305V34.8008C101.737 34.8971 101.522 34.9674 101.309 35.0117C101.098 35.056 100.848 35.0781 100.559 35.0781C100.147 35.0781 99.7878 34.9948 99.4805 34.8281C99.1758 34.6589 98.9388 34.4115 98.7695 34.0859C98.6003 33.7604 98.5156 33.362 98.5156 32.8906C98.5156 32.4297 98.5924 32.0312 98.7461 31.6953C98.9023 31.3568 99.1211 31.0964 99.4023 30.9141C99.6862 30.7318 100.02 30.6406 100.402 30.6406ZM100.395 31.1719C100.048 31.1719 99.7721 31.2852 99.5664 31.5117C99.3607 31.7383 99.2383 32.0547 99.1992 32.4609H101.465C101.462 32.2057 101.422 31.9818 101.344 31.7891C101.268 31.5938 101.152 31.4427 100.996 31.3359C100.84 31.2266 100.639 31.1719 100.395 31.1719Z" fill="black"/>
<path d="M105.742 30.7188H106.457L104.609 32.7852L106.605 35H105.844L103.898 32.8281V35H103.246V30.7188H103.898V32.7969L105.742 30.7188Z" fill="black"/>
<path d="M109.094 35.0781C108.708 35.0781 108.368 34.9987 108.074 34.8398C107.78 34.681 107.551 34.4388 107.387 34.1133C107.223 33.7878 107.141 33.3776 107.141 32.8828C107.141 32.3646 107.227 31.9414 107.398 31.6133C107.573 31.2826 107.812 31.0378 108.117 30.8789C108.422 30.7201 108.768 30.6406 109.156 30.6406C109.37 30.6406 109.576 30.6628 109.773 30.707C109.974 30.7487 110.138 30.8021 110.266 30.8672L110.07 31.4102C109.94 31.3581 109.789 31.3112 109.617 31.2695C109.448 31.2279 109.289 31.207 109.141 31.207C108.844 31.207 108.596 31.2708 108.398 31.3984C108.203 31.526 108.056 31.7135 107.957 31.9609C107.861 32.2083 107.812 32.513 107.812 32.875C107.812 33.2214 107.859 33.5169 107.953 33.7617C108.049 34.0065 108.191 34.194 108.379 34.3242C108.569 34.4518 108.806 34.5156 109.09 34.5156C109.316 34.5156 109.521 34.4922 109.703 34.4453C109.885 34.3958 110.051 34.3385 110.199 34.2734V34.8516C110.056 34.9245 109.896 34.9805 109.719 35.0195C109.544 35.0586 109.336 35.0781 109.094 35.0781Z" fill="black"/>
<path d="M0 0V39L15 30.3689L30 39V0H0Z" fill="#EF1A26"/>
<path d="M9.45165 18.0412C10.0167 18.0412 10.5078 18.1286 10.9249 18.3036C11.3421 18.4751 11.6644 18.7256 11.8919 19.0549C12.1232 19.3842 12.2389 19.7839 12.2389 20.2539C12.2389 20.7684 12.1157 21.2127 11.8692 21.5866C11.6227 21.9571 11.2681 22.2436 10.8055 22.446C10.3428 22.6449 9.78915 22.7444 9.14448 22.7444C8.71217 22.7444 8.3102 22.7101 7.93857 22.6415C7.56693 22.5729 7.25408 22.47 7 22.3328V21.5197C7.27683 21.6707 7.61244 21.7907 8.00683 21.8799C8.40121 21.9691 8.78422 22.0137 9.15586 22.0137C9.57679 22.0137 9.94463 21.9537 10.2594 21.8336C10.5779 21.7101 10.8244 21.5249 10.9989 21.2779C11.1771 21.0274 11.2662 20.7136 11.2662 20.3362C11.2662 19.8353 11.0956 19.4494 10.7543 19.1784C10.4168 18.9039 9.88206 18.7667 9.15017 18.7667C8.91506 18.7667 8.65719 18.7839 8.37656 18.8182C8.09594 18.8525 7.86462 18.8902 7.68259 18.9314L7.20478 18.6484L7.52332 15.1184H11.6587V15.9005H8.33106L8.12059 18.1698C8.26469 18.1424 8.45051 18.1149 8.67804 18.0875C8.90557 18.0566 9.16344 18.0412 9.45165 18.0412Z" fill="white"/>
<path d="M14.992 21.4168L15.066 21.5352C14.9977 21.7856 14.9105 22.0532 14.8043 22.3379C14.7019 22.6226 14.5882 22.9074 14.463 23.1921C14.3417 23.4803 14.2184 23.7496 14.0933 24H13.3879C13.4676 23.7256 13.5453 23.4357 13.6212 23.1304C13.697 22.8285 13.7653 22.53 13.8259 22.235C13.8904 21.9365 13.9416 21.6638 13.9795 21.4168H14.992Z" fill="white"/>
<path d="M22 18.8696C22 19.4803 21.9488 20.0257 21.8464 20.506C21.744 20.9863 21.5829 21.3928 21.3629 21.7256C21.143 22.0583 20.8586 22.3122 20.5097 22.4871C20.1608 22.6587 19.7418 22.7444 19.2526 22.7444C18.6344 22.7444 18.1225 22.5918 17.7167 22.2864C17.3148 21.9811 17.0133 21.5403 16.8123 20.964C16.6151 20.3842 16.5165 19.6861 16.5165 18.8696C16.5165 18.0669 16.6056 17.3774 16.7838 16.801C16.9659 16.2213 17.2579 15.777 17.6598 15.4683C18.0618 15.1561 18.5927 15 19.2526 15C19.8783 15 20.394 15.1544 20.7998 15.4631C21.2055 15.7684 21.507 16.211 21.7042 16.7907C21.9014 17.3671 22 18.06 22 18.8696ZM17.4664 18.8696C17.4664 19.5695 17.5252 20.1527 17.6428 20.6192C17.7603 21.0858 17.9499 21.4357 18.2116 21.669C18.4771 21.8988 18.824 22.0137 19.2526 22.0137C19.6811 22.0137 20.0262 21.8988 20.2878 21.669C20.5533 21.4391 20.7448 21.0909 20.8623 20.6244C20.9837 20.1578 21.0444 19.5729 21.0444 18.8696C21.0444 18.1801 20.9856 17.6038 20.868 17.1407C20.7505 16.6741 20.5609 16.3242 20.2992 16.0909C20.0375 15.8542 19.6887 15.7358 19.2526 15.7358C18.8165 15.7358 18.4676 15.8542 18.2059 16.0909C17.9443 16.3242 17.7546 16.6741 17.6371 17.1407C17.5233 17.6038 17.4664 18.1801 17.4664 18.8696Z" fill="white"/>
<path d="M46 3L47.3226 6.17971L50.7553 6.45492L48.1399 8.69529L48.939 12.0451L46 10.25L43.0611 12.0451L43.8602 8.69529L41.2448 6.45492L44.6775 6.17971L46 3Z" fill="#FDC20C"/>
<path d="M58 3L59.3226 6.17971L62.7553 6.45492L60.1399 8.69529L60.939 12.0451L58 10.25L55.0611 12.0451L55.8602 8.69529L53.2448 6.45492L56.6775 6.17971L58 3Z" fill="#FDC20C"/>
<path d="M70 3L71.3226 6.17971L74.7553 6.45492L72.1399 8.69529L72.939 12.0451L70 10.25L67.0611 12.0451L67.8602 8.69529L65.2448 6.45492L68.6775 6.17971L70 3Z" fill="#FDC20C"/>
<path d="M82 3L83.3226 6.17971L86.7553 6.45492L84.1399 8.69529L84.939 12.0451L82 10.25L79.0611 12.0451L79.8602 8.69529L77.2448 6.45492L80.6775 6.17971L82 3Z" fill="#FDC20C"/>
<path d="M94 3L95.3226 6.17971L98.7553 6.45492L96.1399 8.69529L96.939 12.0451L94 10.25L91.0611 12.0451L91.8602 8.69529L89.2448 6.45492L92.6775 6.17971L94 3Z" fill="#FDC20C"/>
</svg>
