<svg width="29" height="27" viewBox="0 0 29 27" fill="none" xmlns="http://www.w3.org/2000/svg">
	<path fill-rule="evenodd" clip-rule="evenodd"
		d="M6.04808 0C6.60036 0 7.04808 0.447715 7.04808 1V3.33333H11.9373H21.875V1C21.875 0.447715 22.3227 0 22.875 0C23.4273 0 23.875 0.447715 23.875 1V3.33333H26.2404C26.9488 3.33333 27.6301 3.61198 28.1339 4.11101C28.6381 4.61035 28.9231 5.28965 28.9231 6V17.6667C28.9231 18.377 28.6381 19.0563 28.1339 19.5557C27.6301 20.0547 26.9488 20.3333 26.2404 20.3333H23.875V25H26.2404C26.7927 25 27.2404 25.4477 27.2404 26C27.2404 26.5523 26.7927 27 26.2404 27H19.5096C18.9573 27 18.5096 26.5523 18.5096 26C18.5096 25.4477 18.9573 25 19.5096 25H21.875V20.3333H7.04808V25H9.41346C9.96575 25 10.4135 25.4477 10.4135 26C10.4135 26.5523 9.96575 27 9.41346 27H2.68269C2.13041 27 1.68269 26.5523 1.68269 26C1.68269 25.4477 2.13041 25 2.68269 25H5.04808V20.3333H2.68269C1.97427 20.3333 1.29296 20.0547 0.789134 19.5557C0.284989 19.0563 0 18.377 0 17.6667V15.1671V6C0 5.28965 0.284989 4.61035 0.789134 4.11101C1.29296 3.61198 1.97427 3.33333 2.68269 3.33333H5.04808V1C5.04808 0.447715 5.49579 0 6.04808 0ZM2.68269 5.33333C2.49856 5.33333 2.32388 5.40587 2.19656 5.53197C2.06958 5.65775 2 5.82629 2 6V12.7687L9.50686 5.33333H2.68269ZM12.3489 5.33333L2 15.5837V17.6667C2 17.8404 2.06958 18.0089 2.19656 18.1347C2.32388 18.2608 2.49856 18.3333 2.68269 18.3333H6.47801L19.603 5.33333H12.3489ZM22.4451 5.33333L9.32007 18.3333H16.5742L26.9231 8.08298V6C26.9231 5.82629 26.8535 5.65775 26.7265 5.53197C26.5992 5.40587 26.4245 5.33333 26.2404 5.33333H22.4451ZM26.9231 10.898L19.4162 18.3333H26.2404C26.4245 18.3333 26.5992 18.2608 26.7265 18.1347C26.8535 18.0089 26.9231 17.8404 26.9231 17.6667V10.898Z"
		fill="#051861" />
</svg>