<svg width="30" height="30" viewBox="0 0 30 30" fill="none" xmlns="http://www.w3.org/2000/svg">
	<path fill-rule="evenodd" clip-rule="evenodd"
		d="M8.94663 2.39242C7.96499 2.5281 7.46092 2.77414 7.10568 3.13966L7.1048 3.14056C6.74916 3.50566 6.50977 4.02374 6.37776 5.03265C6.24152 6.07382 6.23919 7.45627 6.23919 9.45V20.55C6.23919 22.5437 6.24152 23.9262 6.37776 24.9674C6.50977 25.9763 6.74916 26.4943 7.1048 26.8594L7.10568 26.8603C7.46092 27.2259 7.96499 27.4719 8.94663 27.6076C9.95966 27.7476 11.3047 27.75 13.2446 27.75H15.9446C17.8844 27.75 19.2295 27.7476 20.2426 27.6076C21.2242 27.4719 21.7283 27.2259 22.0835 26.8603L22.0844 26.8594C22.44 26.4943 22.6794 25.9763 22.8114 24.9674C22.9477 23.9262 22.95 22.5437 22.95 20.55V9.45C22.95 7.45627 22.9477 6.07382 22.8114 5.03264C22.6794 4.02374 22.44 3.50566 22.0844 3.14056L22.0835 3.13966C21.7283 2.77414 21.2242 2.5281 20.2426 2.39242C19.2295 2.25239 17.8844 2.25 15.9446 2.25H13.2446C11.3047 2.25 9.95966 2.25239 8.94663 2.39242ZM13.1652 9.47551e-07H16.024C17.8654 -3.23118e-05 19.3583 -5.92209e-05 20.5344 0.162491C21.7586 0.331711 22.8023 0.695478 23.6324 1.54957C24.0321 1.9602 24.3214 2.42168 24.5323 2.93022C25.779 3.09634 26.8395 3.45849 27.6815 4.32367C28.5125 5.17679 28.8664 6.24948 29.0311 7.50775C29.1892 8.71642 29.1892 10.2508 29.1892 12.1434V17.8566C29.1892 19.7492 29.1892 21.2836 29.0311 22.4923C28.8664 23.7505 28.5125 24.8232 27.6815 25.6763C26.8395 26.5415 25.779 26.9037 24.5323 27.0698C24.3213 27.5787 24.0317 28.0405 23.6315 28.4513C22.8016 29.3048 21.7582 29.6684 20.5344 29.8375C19.3583 30.0001 17.8654 30 16.024 30H13.1652C11.3238 30 9.83084 30.0001 8.65484 29.8375C7.43101 29.6684 6.38761 29.3048 5.55769 28.4513C5.15748 28.0405 4.86792 27.5787 4.65687 27.0698C3.40993 26.9036 2.34936 26.5414 1.50725 25.6759C0.676556 24.8228 0.322716 23.7503 0.158099 22.4923C-5.76204e-05 21.2836 -3.14385e-05 19.7492 9.21941e-07 17.8566V12.1434C-3.14385e-05 10.2508 -5.76204e-05 8.71643 0.158099 7.50775C0.322716 6.2497 0.676556 5.17717 1.50725 4.32412C2.34936 3.45862 3.40993 3.09637 4.65687 2.93022C4.86792 2.42131 5.15748 1.95952 5.55769 1.54867C6.38761 0.695221 7.43101 0.331651 8.65484 0.162491C9.83085 -5.92209e-05 11.3238 -3.23118e-05 13.1652 9.47551e-07ZM4.14556 5.31616C3.6312 5.45844 3.30637 5.65701 3.05524 5.91511L3.0548 5.91556C2.69916 6.28066 2.45977 6.79874 2.32776 7.80765C2.19152 8.84882 2.18919 10.2313 2.18919 12.225V17.775C2.18919 19.7687 2.19152 21.1512 2.32776 22.1924C2.45977 23.2013 2.69916 23.7193 3.0548 24.0844L3.05524 24.0849C3.30637 24.343 3.6312 24.5416 4.14556 24.6838C4.04995 23.5761 4.04997 22.2319 4.05 20.6316V9.36842C4.04997 7.76812 4.04995 6.4239 4.14556 5.31616ZM25.0436 24.6838C25.558 24.5416 25.8828 24.343 26.1339 24.0849L26.1344 24.0844C26.49 23.7193 26.7294 23.2013 26.8614 22.1924C26.9977 21.1512 27 19.7687 27 17.775V12.225C27 10.2313 26.9977 8.84882 26.8614 7.80765C26.7294 6.79874 26.49 6.28066 26.1344 5.91556L26.1339 5.91511C25.8828 5.65701 25.558 5.45844 25.0436 5.31616C25.1392 6.42391 25.1392 7.76815 25.1392 9.36847V20.6315C25.1392 22.2319 25.1392 23.5761 25.0436 24.6838Z"
		fill="#051861" />
	<path fill-rule="evenodd" clip-rule="evenodd"
		d="M9.48649 10.875C9.48649 10.2537 9.97655 9.75 10.5811 9.75H18.6081C19.2126 9.75 19.7027 10.2537 19.7027 10.875C19.7027 11.4963 19.2126 12 18.6081 12H10.5811C9.97655 12 9.48649 11.4963 9.48649 10.875ZM9.48649 16.5C9.48649 15.8787 9.97655 15.375 10.5811 15.375H18.6081C19.2126 15.375 19.7027 15.8787 19.7027 16.5C19.7027 17.1213 19.2126 17.625 18.6081 17.625H10.5811C9.97655 17.625 9.48649 17.1213 9.48649 16.5ZM9.48649 22.125C9.48649 21.5037 9.97655 21 10.5811 21H14.5946C15.1991 21 15.6892 21.5037 15.6892 22.125C15.6892 22.7463 15.1991 23.25 14.5946 23.25H10.5811C9.97655 23.25 9.48649 22.7463 9.48649 22.125Z"
		fill="#051861" />
</svg>