<svg width="25" height="30" viewBox="0 0 25 30" fill="none" xmlns="http://www.w3.org/2000/svg">
	<path fill-rule="evenodd" clip-rule="evenodd"
		d="M12.5 10.8908C11.0792 10.8908 9.71659 11.45 8.71193 12.4455C7.70727 13.441 7.14286 14.7912 7.14286 16.199C7.14286 17.6068 7.70727 18.957 8.71193 19.9524C9.71659 20.9479 11.0792 21.5072 12.5 21.5072C13.9208 21.5072 15.2834 20.9479 16.2881 19.9524C17.2927 18.957 17.8571 17.6068 17.8571 16.199C17.8571 14.7912 17.2927 13.441 16.2881 12.4455C15.2834 11.45 13.9208 10.8908 12.5 10.8908ZM9.28571 16.199C9.28571 15.3543 9.62436 14.5442 10.2272 13.9469C10.83 13.3496 11.6475 13.0141 12.5 13.0141C13.3525 13.0141 14.17 13.3496 14.7728 13.9469C15.3756 14.5442 15.7143 15.3543 15.7143 16.199C15.7143 17.0437 15.3756 17.8538 14.7728 18.4511C14.17 19.0483 13.3525 19.3839 12.5 19.3839C11.6475 19.3839 10.83 19.0483 10.2272 18.4511C9.62436 17.8538 9.28571 17.0437 9.28571 16.199Z"
		fill="#051861" />
	<path
		d="M9.64286 23.6304C9.3587 23.6304 9.08617 23.7423 8.88524 23.9414C8.68431 24.1405 8.57143 24.4105 8.57143 24.6921C8.57143 24.9736 8.68431 25.2437 8.88524 25.4428C9.08617 25.6419 9.3587 25.7537 9.64286 25.7537H15.3571C15.6413 25.7537 15.9138 25.6419 16.1148 25.4428C16.3157 25.2437 16.4286 24.9736 16.4286 24.6921C16.4286 24.4105 16.3157 24.1405 16.1148 23.9414C15.9138 23.7423 15.6413 23.6304 15.3571 23.6304H9.64286Z"
		fill="#051861" />
	<path fill-rule="evenodd" clip-rule="evenodd"
		d="M17.6586 0.0391421C18.2157 -0.0397445 18.7835 0.000913068 19.3234 0.158362C19.8634 0.315811 20.3628 0.586374 20.7881 0.951734C21.2133 1.31709 21.5543 1.76872 21.788 2.27603C22.0218 2.78335 22.1428 3.3345 22.1429 3.89218V5.84135C23.0052 6.29223 23.7271 6.96778 24.2306 7.79518C24.7341 8.62259 25.0001 9.57046 25 10.5366V24.6918C25 26.0996 24.4356 27.4498 23.4309 28.4453C22.4263 29.4407 21.0637 30 19.6429 30H5.35714C3.93634 30 2.57373 29.4407 1.56907 28.4453C0.564412 27.4498 0 26.0996 0 24.6918V4.77405C0 3.49159 0.951429 2.40306 2.23429 2.22187L17.6571 0.0391421H17.6586ZM2.14286 7.35171V24.6918C2.14286 25.5365 2.4815 26.3466 3.0843 26.9439C3.6871 27.5412 4.50466 27.8767 5.35714 27.8767H19.6429C20.4953 27.8767 21.3129 27.5412 21.9157 26.9439C22.5185 26.3466 22.8571 25.5365 22.8571 24.6918V10.5366C22.8572 9.69438 22.5205 8.88642 21.9208 8.28954C21.321 7.69266 20.5071 7.35545 19.6571 7.35171H2.14286ZM20 5.22843H2.59571C2.47985 5.22747 2.36864 5.18307 2.28446 5.10418C2.20028 5.02529 2.14936 4.91774 2.14194 4.80316C2.13452 4.68858 2.17115 4.57547 2.24447 4.48656C2.31779 4.39766 2.42235 4.33955 2.53714 4.32392L17.9614 2.1426C18.2147 2.10671 18.4727 2.12515 18.7182 2.19668C18.9636 2.2682 19.1906 2.39115 19.3839 2.55718C19.5773 2.72322 19.7323 2.92847 19.8386 3.15904C19.9449 3.38961 19.9999 3.64011 20 3.8936V5.22843Z"
		fill="#051861" />
</svg>