<svg width="31" height="25" viewBox="0 0 31 25" fill="none" xmlns="http://www.w3.org/2000/svg">
<path fill-rule="evenodd" clip-rule="evenodd" d="M11.0712 4.28613C10.5552 4.28613 10.0444 4.38775 9.56775 4.58518C9.09112 4.78261 8.65804 5.07198 8.29323 5.43678C7.92843 5.80159 7.63906 6.23467 7.44163 6.7113C7.2442 7.18794 7.14258 7.6988 7.14258 8.2147C7.14258 8.73061 7.2442 9.24147 7.44163 9.7181C7.63906 10.1947 7.92843 10.6278 8.29323 10.9926C8.65804 11.3574 9.09112 11.6468 9.56775 11.8442C10.0444 12.0417 10.5552 12.1433 11.0712 12.1433C12.1131 12.1433 13.1123 11.7294 13.8491 10.9926C14.5858 10.2559 14.9997 9.25663 14.9997 8.2147C14.9997 7.17278 14.5858 6.17353 13.8491 5.43678C13.1123 4.70003 12.1131 4.28613 11.0712 4.28613ZM9.28544 8.2147C9.28544 7.7411 9.47358 7.2869 9.80846 6.95201C10.1433 6.61713 10.5976 6.42899 11.0712 6.42899C11.5448 6.42899 11.999 6.61713 12.3338 6.95201C12.6687 7.2869 12.8569 7.7411 12.8569 8.2147C12.8569 8.6883 12.6687 9.14251 12.3338 9.47739C11.999 9.81228 11.5448 10.0004 11.0712 10.0004C10.5976 10.0004 10.1433 9.81228 9.80846 9.47739C9.47358 9.14251 9.28544 8.6883 9.28544 8.2147ZM11.0712 12.8576C9.36258 12.8576 7.76401 13.2004 6.55115 13.8076C5.40401 14.3818 4.28544 15.3733 4.28544 16.7861V16.8761C4.28258 17.6047 4.27972 18.8333 5.44258 19.6747C5.98258 20.0647 6.69544 20.3147 7.5783 20.4733C8.4683 20.6333 9.60972 20.7147 11.0712 20.7147C12.5326 20.7147 13.674 20.6333 14.564 20.4733C15.4469 20.3147 16.1597 20.0647 16.6997 19.6733C17.8626 18.8318 17.8597 17.6047 17.8569 16.8747V16.7861C17.8569 15.3718 16.7383 14.3818 15.5912 13.8076C14.3783 13.2018 12.7797 12.8576 11.0712 12.8576ZM6.4283 16.7861C6.4283 16.6218 6.58972 16.1847 7.50972 15.7247C8.36687 15.2961 9.62401 15.0004 11.0712 15.0004C12.5183 15.0004 13.7769 15.2961 14.6326 15.7247C15.5526 16.1847 15.714 16.6218 15.714 16.7861C15.714 17.649 15.6583 17.7818 15.4426 17.939C15.2683 18.0647 14.9097 18.2333 14.1854 18.3647C13.4683 18.4933 12.4669 18.5718 11.0712 18.5718C9.67544 18.5718 8.67401 18.4933 7.95687 18.3647C7.23258 18.2333 6.87401 18.0647 6.69972 17.939C6.48258 17.7818 6.4283 17.649 6.4283 16.7861Z" fill="#051861"/>
<path d="M25.3576 13.5712C25.6418 13.5712 25.9143 13.4583 26.1152 13.2573C26.3161 13.0564 26.429 12.7839 26.429 12.4997C26.429 12.2156 26.3161 11.943 26.1152 11.7421C25.9143 11.5412 25.6418 11.4283 25.3576 11.4283H19.6433C19.3592 11.4283 19.0866 11.5412 18.8857 11.7421C18.6848 11.943 18.5719 12.2156 18.5719 12.4997C18.5719 12.7839 18.6848 13.0564 18.8857 13.2573C19.0866 13.4583 19.3592 13.5712 19.6433 13.5712H25.3576ZM26.429 8.21401C26.429 8.49817 26.3161 8.77069 26.1152 8.97162C25.9143 9.17255 25.6418 9.28544 25.3576 9.28544H18.2147C17.9306 9.28544 17.6581 9.17255 17.4571 8.97162C17.2562 8.77069 17.1433 8.49817 17.1433 8.21401C17.1433 7.92985 17.2562 7.65732 17.4571 7.45639C17.6581 7.25546 17.9306 7.14258 18.2147 7.14258H25.3576C25.6418 7.14258 25.9143 7.25546 26.1152 7.45639C26.3161 7.65732 26.429 7.92985 26.429 8.21401ZM25.3576 17.8569C25.6418 17.8569 25.9143 17.744 26.1152 17.543C26.3161 17.3421 26.429 17.0696 26.429 16.7854C26.429 16.5013 26.3161 16.2288 26.1152 16.0278C25.9143 15.8269 25.6418 15.714 25.3576 15.714H21.0719C20.7877 15.714 20.5152 15.8269 20.3143 16.0278C20.1133 16.2288 20.0005 16.5013 20.0005 16.7854C20.0005 17.0696 20.1133 17.3421 20.3143 17.543C20.5152 17.744 20.7877 17.8569 21.0719 17.8569H25.3576Z" fill="#051861"/>
<path fill-rule="evenodd" clip-rule="evenodd" d="M12.42 0H18.2943C20.92 0 23 1.70299e-07 24.6271 0.218572C26.3014 0.444286 27.6571 0.918571 28.7271 1.98714C29.7957 3.05714 30.27 4.41286 30.4957 6.08714C30.7143 7.71571 30.7143 9.79429 30.7143 12.42V12.58C30.7143 15.2057 30.7143 17.2857 30.4957 18.9129C30.27 20.5871 29.7957 21.9429 28.7271 23.0129C27.6571 24.0814 26.3014 24.5557 24.6271 24.7814C22.9986 25 20.92 25 18.2943 25H12.42C9.79429 25 7.71429 25 6.08714 24.7814C4.41286 24.5557 3.05714 24.0814 1.98714 23.0129C0.918571 21.9429 0.444286 20.5871 0.218571 18.9129C0 17.2843 0 15.2057 0 12.58V12.42C0 9.79429 0 7.71429 0.218571 6.08714C0.444286 4.41286 0.918571 3.05714 1.98714 1.98714C3.05714 0.918571 4.41286 0.444286 6.08714 0.218572C7.71571 1.70299e-07 9.79429 0 12.42 0ZM6.37143 2.34286C4.93429 2.53571 4.10571 2.89857 3.5 3.50286C2.89714 4.10714 2.53429 4.93571 2.34143 6.37286C2.14429 7.84143 2.14143 9.77571 2.14143 12.5C2.14143 15.2243 2.14429 17.1586 2.34143 18.6286C2.53429 20.0643 2.89714 20.8929 3.50143 21.4971C4.10571 22.1014 4.93429 22.4643 6.37143 22.6571C7.84 22.8543 9.77428 22.8571 12.4986 22.8571H18.2129C20.9371 22.8571 22.8729 22.8543 24.3414 22.6571C25.7771 22.4643 26.6057 22.1014 27.21 21.4971C27.8143 20.8929 28.1771 20.0643 28.37 18.6271C28.5671 17.1586 28.57 15.2243 28.57 12.5C28.57 9.77571 28.5671 7.84143 28.37 6.37143C28.1771 4.93571 27.8143 4.10714 27.21 3.50286C26.6057 2.89857 25.7771 2.53571 24.34 2.34286C22.8729 2.14571 20.9371 2.14286 18.2129 2.14286H12.4986C9.77428 2.14286 7.84143 2.14571 6.37143 2.34286Z" fill="#051861"/>
</svg>
