<svg width="20" height="25" viewBox="0 0 20 25" fill="none" xmlns="http://www.w3.org/2000/svg">
<path d="M9.99972 1.25108L10.4922 0.101109C10.3366 0.0343986 10.169 0 9.99972 0C9.8304 0 9.66285 0.0343986 9.50723 0.101109L9.99972 1.25108ZM9.99972 23.7504L9.37973 24.8354C9.56856 24.9433 9.78226 25 9.99972 25C10.2172 25 10.4309 24.9433 10.6197 24.8354L9.99972 23.7504ZM5.02986 20.9093L4.40863 21.9955L5.02861 20.9093H5.02986ZM9.50723 0.102359L1.51496 3.52601L2.49993 5.82595L10.4922 2.40104L9.50723 0.102359ZM1.89744e-07 5.8247V14.3995H2.49993V5.8247H1.89744e-07ZM4.40863 21.9955L9.37973 24.8354L10.6197 22.6655L5.64859 19.8243L4.40863 21.9955ZM10.6197 24.8354L15.5908 21.9955L14.3508 19.8243L9.37973 22.6655L10.6197 24.8354ZM19.9994 14.3982V5.82595H17.4995V14.4007H19.9994V14.3982ZM18.4845 3.52726L10.4922 0.102359L9.50723 2.39979L17.4995 5.82595L18.4845 3.52726ZM19.9994 5.82595C19.9994 5.33678 19.8558 4.85838 19.5865 4.45001C19.3172 4.04164 18.9341 3.71999 18.4845 3.52726L17.4995 5.82595H19.9994ZM15.5908 21.9955C16.9303 21.23 18.0436 20.1253 18.8179 18.7909C19.5921 17.4564 19.9997 15.941 19.9994 14.3982H17.4995C17.4994 15.5 17.2079 16.5822 16.6548 17.5352C16.1016 18.4881 15.3063 19.2778 14.3496 19.8243L15.5908 21.9955ZM1.89744e-07 14.3982C-6.89341e-05 15.9408 0.407672 17.4559 1.1819 18.7901C1.95612 20.1243 3.0693 21.2302 4.40863 21.9955L5.64859 19.8243C4.69245 19.2778 3.89767 18.4884 3.34475 17.536C2.79182 16.5836 2.50038 15.502 2.49993 14.4007H1.89744e-07V14.3982ZM1.51496 3.52601C1.06517 3.71883 0.681857 4.04067 0.412557 4.44928C0.143257 4.8579 -0.000190436 5.33657 1.89744e-07 5.82595H2.49993L1.51496 3.52851V3.52601Z" fill="#051861"/>
<path fill-rule="evenodd" clip-rule="evenodd" d="M14.4569 9.29387C14.8474 9.68439 14.8474 10.3176 14.4569 10.7081L9.45704 15.7079C9.06651 16.0985 8.43335 16.0985 8.04282 15.7079L5.54289 13.208C5.15237 12.8175 5.15237 12.1843 5.54289 11.7938C5.93342 11.4033 6.56658 11.4033 6.95711 11.7938L8.74993 13.5866L13.0427 9.29387C13.4332 8.90335 14.0664 8.90335 14.4569 9.29387Z" fill="#051861"/>
</svg>
