<svg width="25" height="25" viewBox="0 0 25 25" fill="none" xmlns="http://www.w3.org/2000/svg">
<path fill-rule="evenodd" clip-rule="evenodd" d="M11.1206 2.61576C8.86519 2.61576 6.70217 3.51175 5.10736 5.10661C3.51256 6.70148 2.61661 8.86458 2.61661 11.1201C2.61661 13.3755 3.51256 15.5386 5.10736 17.1335C6.70217 18.7284 8.86519 19.6244 11.1206 19.6244C13.376 19.6244 15.539 18.7284 17.1338 17.1335C18.7286 15.5386 19.6246 13.3755 19.6246 11.1201C19.6246 8.86458 18.7286 6.70148 17.1338 5.10661C15.539 3.51175 13.376 2.61576 11.1206 2.61576ZM2.50785e-08 11.1201C0.000151098 9.34671 0.424367 7.5991 1.23726 6.02305C2.05014 4.447 3.22813 3.0882 4.67294 2.06002C6.11775 1.03184 7.78748 0.364097 9.54282 0.112499C11.2982 -0.139099 13.0882 0.0327432 14.7637 0.61369C16.4391 1.19464 17.9513 2.16784 19.1741 3.45211C20.397 4.73638 21.295 6.29446 21.7932 7.99638C22.2914 9.6983 22.3755 11.4947 22.0383 13.2357C21.7011 14.9767 20.9524 16.6118 19.8548 18.0046L24.6327 22.7827C24.8711 23.0295 25.0029 23.36 25 23.703C24.997 24.0461 24.8594 24.3742 24.6168 24.6168C24.3742 24.8594 24.0461 24.997 23.7031 25C23.36 25.0029 23.0296 24.8711 22.7828 24.6327L18.0049 19.8546C16.3651 21.1473 14.3945 21.9521 12.3186 22.1771C10.2428 22.402 8.14553 22.038 6.2669 21.1266C4.38827 20.2153 2.80416 18.7934 1.69586 17.0237C0.587568 15.2541 -0.000140176 13.2081 2.50785e-08 11.1201ZM9.81228 6.54082C9.81228 6.19382 9.95012 5.86104 10.1955 5.61568C10.4408 5.37031 10.7736 5.23247 11.1206 5.23247C12.682 5.23247 14.1795 5.85277 15.2836 6.9569C16.3877 8.06104 17.0079 9.55857 17.0079 11.1201C17.0079 11.4671 16.8701 11.7998 16.6248 12.0452C16.3794 12.2906 16.0466 12.4284 15.6996 12.4284C15.3527 12.4284 15.0199 12.2906 14.7745 12.0452C14.5292 11.7998 14.3913 11.4671 14.3913 11.1201C14.3913 10.2526 14.0467 9.4206 13.4334 8.80719C12.82 8.19378 11.988 7.84917 11.1206 7.84917C10.7736 7.84917 10.4408 7.71133 10.1955 7.46597C9.95012 7.2206 9.81228 6.88782 9.81228 6.54082Z" fill="#051861"/>
</svg>
