<svg width="25" height="25" viewBox="0 0 25 25" fill="none" xmlns="http://www.w3.org/2000/svg">
<path d="M10.6297 0.558434C11.0631 0.197166 11.6041 0 12.1622 0C12.7202 0 13.2612 0.197166 13.6946 0.558434L22.9719 8.28235C23.3937 8.6334 23.734 9.07677 23.968 9.58011C24.202 10.0835 24.3237 10.6341 24.3243 11.1919V22.5004C24.3243 23.1633 24.0681 23.7991 23.6119 24.2679C23.1557 24.7366 22.537 25 21.8919 25H17.027C16.3819 25 15.7632 24.7366 15.307 24.2679C14.8509 23.7991 14.5946 23.1633 14.5946 22.5004V15.0014H9.72973V22.5004C9.72973 23.1633 9.47346 23.7991 9.01729 24.2679C8.56112 24.7366 7.94242 25 7.2973 25H2.43243C1.78731 25 1.16861 24.7366 0.712443 24.2679C0.256273 23.7991 7.14137e-08 23.1633 7.14137e-08 22.5004V11.1944C-0.000107481 10.6358 0.121271 10.0841 0.355264 9.57987C0.589256 9.0756 0.929947 8.63144 1.35243 8.27985L10.6297 0.558434ZM21.4419 10.2221L12.1622 2.50316L2.88243 10.2221C2.74165 10.3394 2.62817 10.4877 2.55031 10.6559C2.47245 10.8241 2.43218 11.0081 2.43243 11.1944V22.5004H7.2973V15.0014C7.2973 14.3385 7.55357 13.7027 8.00974 13.2339C8.46591 12.7651 9.08461 12.5018 9.72973 12.5018H14.5946C15.2397 12.5018 15.8584 12.7651 16.3146 13.2339C16.7708 13.7027 17.027 14.3385 17.027 15.0014V22.5004H21.8919V11.1944C21.8921 11.0081 21.8519 10.8241 21.774 10.6559C21.6962 10.4877 21.5827 10.3394 21.4419 10.2221Z" fill="#051861"/>
</svg>
