<svg width="27" height="28" viewBox="0 0 27 28" fill="none" xmlns="http://www.w3.org/2000/svg">
<path d="M22.1667 5C25.1567 8.06 26.2833 12.335 25.5756 16.325C26.1678 17.405 26.5 18.665 26.5 20C26.5 21.9891 25.7391 23.8968 24.3847 25.3033C23.0302 26.7098 21.1932 27.5 19.2778 27.5C17.9922 27.5 16.7789 27.155 15.7389 26.54C11.8967 27.275 7.78 26.105 4.83333 23C1.84333 19.94 0.716667 15.665 1.42444 11.675C0.832222 10.595 0.5 9.335 0.5 8C0.5 6.01088 1.26091 4.10322 2.61534 2.6967C3.96977 1.29018 5.80677 0.5 7.72222 0.5C9.00778 0.5 10.2211 0.845 11.2611 1.46C15.1033 0.725 19.22 1.895 22.1667 5ZM13.5578 21.74C17.7033 21.74 19.7689 19.67 19.7689 16.88C19.7689 15.095 18.96 13.19 15.8256 12.455L12.9511 11.795C11.8533 11.54 10.6111 11.195 10.6111 10.13C10.6111 9.05 11.4778 8.3 13.0667 8.3C16.2878 8.3 15.9844 10.595 17.5878 10.595C18.4256 10.595 19.1478 10.085 19.1478 9.2C19.1478 7.145 15.9844 5.6 13.2978 5.6C10.3944 5.6 7.28889 6.89 7.28889 10.31C7.28889 11.96 7.85222 13.715 10.9722 14.525L14.8578 15.545C16.0278 15.845 16.3167 16.52 16.3167 17.15C16.3167 18.17 15.3344 19.175 13.5578 19.175C10.0767 19.175 10.5533 16.4 8.69 16.4C7.85222 16.4 7.24556 17 7.24556 17.855C7.24556 19.52 9.16667 21.74 13.5578 21.74Z" fill="#00A4E7"/>
</svg>
