<svg display="none" xmlns="http://www.w3.org/2000/svg">
	<symbol id="burger" viewBox="0 0 45 29">
		<path d="M0 0H45V5H0V0Z" />
		<path d="M9 12H45V17H9V12Z" />
		<path d="M20 24H45V29H20V24Z" />
	</symbol>

	<symbol id="close" viewBox="0 0 21 21">
		<path
			d="M0.626873 0.626873C-0.208949 1.46269 -0.208966 2.81783 0.626873 3.65367L7.4732 10.5L0.626873 17.3463C-0.208949 18.1822 -0.208949 19.5373 0.626873 20.3731C1.46269 21.209 2.81785 21.209 3.65367 20.3731L10.5 13.5268L17.3463 20.3731C18.1822 21.209 19.5373 21.209 20.3731 20.3731C21.209 19.5373 21.209 18.1822 20.3731 17.3463L13.5268 10.5L20.3731 3.65367C21.209 2.81785 21.209 1.46269 20.3731 0.626873C19.5373 -0.208949 18.1822 -0.208949 17.3463 0.626873L10.5 7.4732L3.65367 0.626873C2.81783 -0.208966 1.46269 -0.208949 0.626873 0.626873Z" />
	</symbol>

	<symbol id="services-icon1" viewBox="0 0 30 30">
		<path fill-rule="evenodd" clip-rule="evenodd"
			d="M8.94663 2.39242C7.96499 2.5281 7.46092 2.77414 7.10568 3.13966L7.1048 3.14056C6.74916 3.50566 6.50977 4.02374 6.37776 5.03265C6.24152 6.07382 6.23919 7.45627 6.23919 9.45V20.55C6.23919 22.5437 6.24152 23.9262 6.37776 24.9674C6.50977 25.9763 6.74916 26.4943 7.1048 26.8594L7.10568 26.8603C7.46092 27.2259 7.96499 27.4719 8.94663 27.6076C9.95966 27.7476 11.3047 27.75 13.2446 27.75H15.9446C17.8844 27.75 19.2295 27.7476 20.2426 27.6076C21.2242 27.4719 21.7283 27.2259 22.0835 26.8603L22.0844 26.8594C22.44 26.4943 22.6794 25.9763 22.8114 24.9674C22.9477 23.9262 22.95 22.5437 22.95 20.55V9.45C22.95 7.45627 22.9477 6.07382 22.8114 5.03264C22.6794 4.02374 22.44 3.50566 22.0844 3.14056L22.0835 3.13966C21.7283 2.77414 21.2242 2.5281 20.2426 2.39242C19.2295 2.25239 17.8844 2.25 15.9446 2.25H13.2446C11.3047 2.25 9.95966 2.25239 8.94663 2.39242ZM13.1652 9.47551e-07H16.024C17.8654 -3.23118e-05 19.3583 -5.92209e-05 20.5344 0.162491C21.7586 0.331711 22.8023 0.695478 23.6324 1.54957C24.0321 1.9602 24.3214 2.42168 24.5323 2.93022C25.779 3.09634 26.8395 3.45849 27.6815 4.32367C28.5125 5.17679 28.8664 6.24948 29.0311 7.50775C29.1892 8.71642 29.1892 10.2508 29.1892 12.1434V17.8566C29.1892 19.7492 29.1892 21.2836 29.0311 22.4923C28.8664 23.7505 28.5125 24.8232 27.6815 25.6763C26.8395 26.5415 25.779 26.9037 24.5323 27.0698C24.3213 27.5787 24.0317 28.0405 23.6315 28.4513C22.8016 29.3048 21.7582 29.6684 20.5344 29.8375C19.3583 30.0001 17.8654 30 16.024 30H13.1652C11.3238 30 9.83084 30.0001 8.65484 29.8375C7.43101 29.6684 6.38761 29.3048 5.55769 28.4513C5.15748 28.0405 4.86792 27.5787 4.65687 27.0698C3.40993 26.9036 2.34936 26.5414 1.50725 25.6759C0.676556 24.8228 0.322716 23.7503 0.158099 22.4923C-5.76204e-05 21.2836 -3.14385e-05 19.7492 9.21941e-07 17.8566V12.1434C-3.14385e-05 10.2508 -5.76204e-05 8.71643 0.158099 7.50775C0.322716 6.2497 0.676556 5.17717 1.50725 4.32412C2.34936 3.45862 3.40993 3.09637 4.65687 2.93022C4.86792 2.42131 5.15748 1.95952 5.55769 1.54867C6.38761 0.695221 7.43101 0.331651 8.65484 0.162491C9.83085 -5.92209e-05 11.3238 -3.23118e-05 13.1652 9.47551e-07ZM4.14556 5.31616C3.6312 5.45844 3.30637 5.65701 3.05524 5.91511L3.0548 5.91556C2.69916 6.28066 2.45977 6.79874 2.32776 7.80765C2.19152 8.84882 2.18919 10.2313 2.18919 12.225V17.775C2.18919 19.7687 2.19152 21.1512 2.32776 22.1924C2.45977 23.2013 2.69916 23.7193 3.0548 24.0844L3.05524 24.0849C3.30637 24.343 3.6312 24.5416 4.14556 24.6838C4.04995 23.5761 4.04997 22.2319 4.05 20.6316V9.36842C4.04997 7.76812 4.04995 6.4239 4.14556 5.31616ZM25.0436 24.6838C25.558 24.5416 25.8828 24.343 26.1339 24.0849L26.1344 24.0844C26.49 23.7193 26.7294 23.2013 26.8614 22.1924C26.9977 21.1512 27 19.7687 27 17.775V12.225C27 10.2313 26.9977 8.84882 26.8614 7.80765C26.7294 6.79874 26.49 6.28066 26.1344 5.91556L26.1339 5.91511C25.8828 5.65701 25.558 5.45844 25.0436 5.31616C25.1392 6.42391 25.1392 7.76815 25.1392 9.36847V20.6315C25.1392 22.2319 25.1392 23.5761 25.0436 24.6838Z" />
		<path fill-rule="evenodd" clip-rule="evenodd"
			d="M9.48649 10.875C9.48649 10.2537 9.97655 9.75 10.5811 9.75H18.6081C19.2126 9.75 19.7027 10.2537 19.7027 10.875C19.7027 11.4963 19.2126 12 18.6081 12H10.5811C9.97655 12 9.48649 11.4963 9.48649 10.875ZM9.48649 16.5C9.48649 15.8787 9.97655 15.375 10.5811 15.375H18.6081C19.2126 15.375 19.7027 15.8787 19.7027 16.5C19.7027 17.1213 19.2126 17.625 18.6081 17.625H10.5811C9.97655 17.625 9.48649 17.1213 9.48649 16.5ZM9.48649 22.125C9.48649 21.5037 9.97655 21 10.5811 21H14.5946C15.1991 21 15.6892 21.5037 15.6892 22.125C15.6892 22.7463 15.1991 23.25 14.5946 23.25H10.5811C9.97655 23.25 9.48649 22.7463 9.48649 22.125Z" />
	</symbol>

	<symbol id="services-icon2" viewBox="0 0 25 30">
		<path fill-rule="evenodd" clip-rule="evenodd"
			d="M12.5 10.8908C11.0792 10.8908 9.71659 11.45 8.71193 12.4455C7.70727 13.441 7.14286 14.7912 7.14286 16.199C7.14286 17.6068 7.70727 18.957 8.71193 19.9524C9.71659 20.9479 11.0792 21.5072 12.5 21.5072C13.9208 21.5072 15.2834 20.9479 16.2881 19.9524C17.2927 18.957 17.8571 17.6068 17.8571 16.199C17.8571 14.7912 17.2927 13.441 16.2881 12.4455C15.2834 11.45 13.9208 10.8908 12.5 10.8908ZM9.28571 16.199C9.28571 15.3543 9.62436 14.5442 10.2272 13.9469C10.83 13.3496 11.6475 13.0141 12.5 13.0141C13.3525 13.0141 14.17 13.3496 14.7728 13.9469C15.3756 14.5442 15.7143 15.3543 15.7143 16.199C15.7143 17.0437 15.3756 17.8538 14.7728 18.4511C14.17 19.0483 13.3525 19.3839 12.5 19.3839C11.6475 19.3839 10.83 19.0483 10.2272 18.4511C9.62436 17.8538 9.28571 17.0437 9.28571 16.199Z" />
		<path
			d="M9.64286 23.6304C9.3587 23.6304 9.08617 23.7423 8.88524 23.9414C8.68431 24.1405 8.57143 24.4105 8.57143 24.6921C8.57143 24.9736 8.68431 25.2437 8.88524 25.4428C9.08617 25.6419 9.3587 25.7537 9.64286 25.7537H15.3571C15.6413 25.7537 15.9138 25.6419 16.1148 25.4428C16.3157 25.2437 16.4286 24.9736 16.4286 24.6921C16.4286 24.4105 16.3157 24.1405 16.1148 23.9414C15.9138 23.7423 15.6413 23.6304 15.3571 23.6304H9.64286Z" />
		<path fill-rule="evenodd" clip-rule="evenodd"
			d="M17.6586 0.0391421C18.2157 -0.0397445 18.7835 0.000913068 19.3234 0.158362C19.8634 0.315811 20.3628 0.586374 20.7881 0.951734C21.2133 1.31709 21.5543 1.76872 21.788 2.27603C22.0218 2.78335 22.1428 3.3345 22.1429 3.89218V5.84135C23.0052 6.29223 23.7271 6.96778 24.2306 7.79518C24.7341 8.62259 25.0001 9.57046 25 10.5366V24.6918C25 26.0996 24.4356 27.4498 23.4309 28.4453C22.4263 29.4407 21.0637 30 19.6429 30H5.35714C3.93634 30 2.57373 29.4407 1.56907 28.4453C0.564412 27.4498 0 26.0996 0 24.6918V4.77405C0 3.49159 0.951429 2.40306 2.23429 2.22187L17.6571 0.0391421H17.6586ZM2.14286 7.35171V24.6918C2.14286 25.5365 2.4815 26.3466 3.0843 26.9439C3.6871 27.5412 4.50466 27.8767 5.35714 27.8767H19.6429C20.4953 27.8767 21.3129 27.5412 21.9157 26.9439C22.5185 26.3466 22.8571 25.5365 22.8571 24.6918V10.5366C22.8572 9.69438 22.5205 8.88642 21.9208 8.28954C21.321 7.69266 20.5071 7.35545 19.6571 7.35171H2.14286ZM20 5.22843H2.59571C2.47985 5.22747 2.36864 5.18307 2.28446 5.10418C2.20028 5.02529 2.14936 4.91774 2.14194 4.80316C2.13452 4.68858 2.17115 4.57547 2.24447 4.48656C2.31779 4.39766 2.42235 4.33955 2.53714 4.32392L17.9614 2.1426C18.2147 2.10671 18.4727 2.12515 18.7182 2.19668C18.9636 2.2682 19.1906 2.39115 19.3839 2.55718C19.5773 2.72322 19.7323 2.92847 19.8386 3.15904C19.9449 3.38961 19.9999 3.64011 20 3.8936V5.22843Z" />
	</symbol>

	<symbol id="services-icon3" viewBox="0 0 25 25">
		<path
			d="M10.6297 0.558434C11.0631 0.197166 11.6041 0 12.1622 0C12.7202 0 13.2612 0.197166 13.6946 0.558434L22.9719 8.28235C23.3937 8.6334 23.734 9.07677 23.968 9.58011C24.202 10.0835 24.3237 10.6341 24.3243 11.1919V22.5004C24.3243 23.1633 24.0681 23.7991 23.6119 24.2679C23.1557 24.7366 22.537 25 21.8919 25H17.027C16.3819 25 15.7632 24.7366 15.307 24.2679C14.8509 23.7991 14.5946 23.1633 14.5946 22.5004V15.0014H9.72973V22.5004C9.72973 23.1633 9.47346 23.7991 9.01729 24.2679C8.56112 24.7366 7.94242 25 7.2973 25H2.43243C1.78731 25 1.16861 24.7366 0.712443 24.2679C0.256273 23.7991 7.14137e-08 23.1633 7.14137e-08 22.5004V11.1944C-0.000107481 10.6358 0.121271 10.0841 0.355264 9.57987C0.589256 9.0756 0.929947 8.63144 1.35243 8.27985L10.6297 0.558434ZM21.4419 10.2221L12.1622 2.50316L2.88243 10.2221C2.74165 10.3394 2.62817 10.4877 2.55031 10.6559C2.47245 10.8241 2.43218 11.0081 2.43243 11.1944V22.5004H7.2973V15.0014C7.2973 14.3385 7.55357 13.7027 8.00974 13.2339C8.46591 12.7651 9.08461 12.5018 9.72973 12.5018H14.5946C15.2397 12.5018 15.8584 12.7651 16.3146 13.2339C16.7708 13.7027 17.027 14.3385 17.027 15.0014V22.5004H21.8919V11.1944C21.8921 11.0081 21.8519 10.8241 21.774 10.6559C21.6962 10.4877 21.5827 10.3394 21.4419 10.2221Z" />
	</symbol>

	<symbol id="services-icon4" viewBox="0 0 25 25">
		<path
			d="M23.6898 0.61788L24.3755 1.29612C25.3203 2.23186 25.1773 3.89067 24.0536 5.00114L9.91404 18.9878L5.33297 20.6455C4.75772 20.8547 4.19758 20.5834 4.08369 20.042C4.0452 19.8455 4.06332 19.6424 4.13598 19.4557L5.8443 14.885L19.9443 0.936308C21.0681 -0.174165 22.745 -0.31786 23.6898 0.61788ZM9.29696 2.00885C9.44957 2.00885 9.60069 2.03858 9.74168 2.09635C9.88268 2.15412 10.0108 2.2388 10.1187 2.34554C10.2266 2.45229 10.3122 2.57902 10.3706 2.71849C10.429 2.85796 10.4591 3.00744 10.4591 3.1584C10.4591 3.30937 10.429 3.45885 10.3706 3.59832C10.3122 3.73779 10.2266 3.86452 10.1187 3.97126C10.0108 4.07801 9.88268 4.16268 9.74168 4.22046C9.60069 4.27823 9.44957 4.30796 9.29696 4.30796H4.64848C4.03205 4.30796 3.44087 4.55019 3.00499 4.98136C2.56911 5.41252 2.32424 5.99731 2.32424 6.60708V20.4018C2.32424 21.0115 2.56911 21.5963 3.00499 22.0275C3.44087 22.4587 4.03205 22.7009 4.64848 22.7009H18.5939C19.2103 22.7009 19.8015 22.4587 20.2374 22.0275C20.6733 21.5963 20.9182 21.0115 20.9182 20.4018V15.8035C20.9182 15.4987 21.0406 15.2063 21.2585 14.9907C21.4765 14.7751 21.7721 14.654 22.0803 14.654C22.3885 14.654 22.6841 14.7751 22.902 14.9907C23.12 15.2063 23.2424 15.4987 23.2424 15.8035V20.4018C23.2424 21.6213 22.7526 22.7909 21.8809 23.6532C21.0091 24.5155 19.8268 25 18.5939 25H4.64848C3.41563 25 2.23327 24.5155 1.36151 23.6532C0.489749 22.7909 0 21.6213 0 20.4018V6.60708C0 5.38755 0.489749 4.21797 1.36151 3.35564C2.23327 2.4933 3.41563 2.00885 4.64848 2.00885H9.29696Z" />
	</symbol>

	<symbol id="services-icon5" viewBox="0 0 25 25">
		<path
			d="M23.6898 0.61788L24.3755 1.29612C25.3203 2.23186 25.1773 3.89067 24.0536 5.00114L9.91404 18.9878L5.33297 20.6455C4.75772 20.8547 4.19758 20.5834 4.08369 20.042C4.0452 19.8455 4.06332 19.6424 4.13598 19.4557L5.8443 14.885L19.9443 0.936308C21.0681 -0.174165 22.745 -0.31786 23.6898 0.61788ZM9.29696 2.00885C9.44957 2.00885 9.60069 2.03858 9.74168 2.09635C9.88268 2.15412 10.0108 2.2388 10.1187 2.34554C10.2266 2.45229 10.3122 2.57902 10.3706 2.71849C10.429 2.85796 10.4591 3.00744 10.4591 3.1584C10.4591 3.30937 10.429 3.45885 10.3706 3.59832C10.3122 3.73779 10.2266 3.86452 10.1187 3.97126C10.0108 4.07801 9.88268 4.16268 9.74168 4.22046C9.60069 4.27823 9.44957 4.30796 9.29696 4.30796H4.64848C4.03205 4.30796 3.44087 4.55019 3.00499 4.98136C2.56911 5.41252 2.32424 5.99731 2.32424 6.60708V20.4018C2.32424 21.0115 2.56911 21.5963 3.00499 22.0275C3.44087 22.4587 4.03205 22.7009 4.64848 22.7009H18.5939C19.2103 22.7009 19.8015 22.4587 20.2374 22.0275C20.6733 21.5963 20.9182 21.0115 20.9182 20.4018V15.8035C20.9182 15.4987 21.0406 15.2063 21.2585 14.9907C21.4765 14.7751 21.7721 14.654 22.0803 14.654C22.3885 14.654 22.6841 14.7751 22.902 14.9907C23.12 15.2063 23.2424 15.4987 23.2424 15.8035V20.4018C23.2424 21.6213 22.7526 22.7909 21.8809 23.6532C21.0091 24.5155 19.8268 25 18.5939 25H4.64848C3.41563 25 2.23327 24.5155 1.36151 23.6532C0.489749 22.7909 0 21.6213 0 20.4018V6.60708C0 5.38755 0.489749 4.21797 1.36151 3.35564C2.23327 2.4933 3.41563 2.00885 4.64848 2.00885H9.29696Z" />
	</symbol>

	<symbol id="services-icon6" viewBox="0 0 25 25">
		<path fill-rule="evenodd" clip-rule="evenodd"
			d="M11.1206 2.61576C8.86519 2.61576 6.70217 3.51175 5.10736 5.10661C3.51256 6.70148 2.61661 8.86458 2.61661 11.1201C2.61661 13.3755 3.51256 15.5386 5.10736 17.1335C6.70217 18.7284 8.86519 19.6244 11.1206 19.6244C13.376 19.6244 15.539 18.7284 17.1338 17.1335C18.7286 15.5386 19.6246 13.3755 19.6246 11.1201C19.6246 8.86458 18.7286 6.70148 17.1338 5.10661C15.539 3.51175 13.376 2.61576 11.1206 2.61576ZM2.50785e-08 11.1201C0.000151098 9.34671 0.424367 7.5991 1.23726 6.02305C2.05014 4.447 3.22813 3.0882 4.67294 2.06002C6.11775 1.03184 7.78748 0.364097 9.54282 0.112499C11.2982 -0.139099 13.0882 0.0327432 14.7637 0.61369C16.4391 1.19464 17.9513 2.16784 19.1741 3.45211C20.397 4.73638 21.295 6.29446 21.7932 7.99638C22.2914 9.6983 22.3755 11.4947 22.0383 13.2357C21.7011 14.9767 20.9524 16.6118 19.8548 18.0046L24.6327 22.7827C24.8711 23.0295 25.0029 23.36 25 23.703C24.997 24.0461 24.8594 24.3742 24.6168 24.6168C24.3742 24.8594 24.0461 24.997 23.7031 25C23.36 25.0029 23.0296 24.8711 22.7828 24.6327L18.0049 19.8546C16.3651 21.1473 14.3945 21.9521 12.3186 22.1771C10.2428 22.402 8.14553 22.038 6.2669 21.1266C4.38827 20.2153 2.80416 18.7934 1.69586 17.0237C0.587568 15.2541 -0.000140176 13.2081 2.50785e-08 11.1201ZM9.81228 6.54082C9.81228 6.19382 9.95012 5.86104 10.1955 5.61568C10.4408 5.37031 10.7736 5.23247 11.1206 5.23247C12.682 5.23247 14.1795 5.85277 15.2836 6.9569C16.3877 8.06104 17.0079 9.55857 17.0079 11.1201C17.0079 11.4671 16.8701 11.7998 16.6248 12.0452C16.3794 12.2906 16.0466 12.4284 15.6996 12.4284C15.3527 12.4284 15.0199 12.2906 14.7745 12.0452C14.5292 11.7998 14.3913 11.4671 14.3913 11.1201C14.3913 10.2526 14.0467 9.4206 13.4334 8.80719C12.82 8.19378 11.988 7.84917 11.1206 7.84917C10.7736 7.84917 10.4408 7.71133 10.1955 7.46597C9.95012 7.2206 9.81228 6.88782 9.81228 6.54082Z" />
	</symbol>

	<symbol id="services-icon7" viewBox="0 0 31 25">
		<path fill-rule="evenodd" clip-rule="evenodd"
			d="M11.0712 4.28613C10.5552 4.28613 10.0444 4.38775 9.56775 4.58518C9.09112 4.78261 8.65804 5.07198 8.29323 5.43678C7.92843 5.80159 7.63906 6.23467 7.44163 6.7113C7.2442 7.18794 7.14258 7.6988 7.14258 8.2147C7.14258 8.73061 7.2442 9.24147 7.44163 9.7181C7.63906 10.1947 7.92843 10.6278 8.29323 10.9926C8.65804 11.3574 9.09112 11.6468 9.56775 11.8442C10.0444 12.0417 10.5552 12.1433 11.0712 12.1433C12.1131 12.1433 13.1123 11.7294 13.8491 10.9926C14.5858 10.2559 14.9997 9.25663 14.9997 8.2147C14.9997 7.17278 14.5858 6.17353 13.8491 5.43678C13.1123 4.70003 12.1131 4.28613 11.0712 4.28613ZM9.28544 8.2147C9.28544 7.7411 9.47358 7.2869 9.80846 6.95201C10.1433 6.61713 10.5976 6.42899 11.0712 6.42899C11.5448 6.42899 11.999 6.61713 12.3338 6.95201C12.6687 7.2869 12.8569 7.7411 12.8569 8.2147C12.8569 8.6883 12.6687 9.14251 12.3338 9.47739C11.999 9.81228 11.5448 10.0004 11.0712 10.0004C10.5976 10.0004 10.1433 9.81228 9.80846 9.47739C9.47358 9.14251 9.28544 8.6883 9.28544 8.2147ZM11.0712 12.8576C9.36258 12.8576 7.76401 13.2004 6.55115 13.8076C5.40401 14.3818 4.28544 15.3733 4.28544 16.7861V16.8761C4.28258 17.6047 4.27972 18.8333 5.44258 19.6747C5.98258 20.0647 6.69544 20.3147 7.5783 20.4733C8.4683 20.6333 9.60972 20.7147 11.0712 20.7147C12.5326 20.7147 13.674 20.6333 14.564 20.4733C15.4469 20.3147 16.1597 20.0647 16.6997 19.6733C17.8626 18.8318 17.8597 17.6047 17.8569 16.8747V16.7861C17.8569 15.3718 16.7383 14.3818 15.5912 13.8076C14.3783 13.2018 12.7797 12.8576 11.0712 12.8576ZM6.4283 16.7861C6.4283 16.6218 6.58972 16.1847 7.50972 15.7247C8.36687 15.2961 9.62401 15.0004 11.0712 15.0004C12.5183 15.0004 13.7769 15.2961 14.6326 15.7247C15.5526 16.1847 15.714 16.6218 15.714 16.7861C15.714 17.649 15.6583 17.7818 15.4426 17.939C15.2683 18.0647 14.9097 18.2333 14.1854 18.3647C13.4683 18.4933 12.4669 18.5718 11.0712 18.5718C9.67544 18.5718 8.67401 18.4933 7.95687 18.3647C7.23258 18.2333 6.87401 18.0647 6.69972 17.939C6.48258 17.7818 6.4283 17.649 6.4283 16.7861Z" />
		<path
			d="M25.3576 13.5712C25.6418 13.5712 25.9143 13.4583 26.1152 13.2573C26.3161 13.0564 26.429 12.7839 26.429 12.4997C26.429 12.2156 26.3161 11.943 26.1152 11.7421C25.9143 11.5412 25.6418 11.4283 25.3576 11.4283H19.6433C19.3592 11.4283 19.0866 11.5412 18.8857 11.7421C18.6848 11.943 18.5719 12.2156 18.5719 12.4997C18.5719 12.7839 18.6848 13.0564 18.8857 13.2573C19.0866 13.4583 19.3592 13.5712 19.6433 13.5712H25.3576ZM26.429 8.21401C26.429 8.49817 26.3161 8.77069 26.1152 8.97162C25.9143 9.17255 25.6418 9.28544 25.3576 9.28544H18.2147C17.9306 9.28544 17.6581 9.17255 17.4571 8.97162C17.2562 8.77069 17.1433 8.49817 17.1433 8.21401C17.1433 7.92985 17.2562 7.65732 17.4571 7.45639C17.6581 7.25546 17.9306 7.14258 18.2147 7.14258H25.3576C25.6418 7.14258 25.9143 7.25546 26.1152 7.45639C26.3161 7.65732 26.429 7.92985 26.429 8.21401ZM25.3576 17.8569C25.6418 17.8569 25.9143 17.744 26.1152 17.543C26.3161 17.3421 26.429 17.0696 26.429 16.7854C26.429 16.5013 26.3161 16.2288 26.1152 16.0278C25.9143 15.8269 25.6418 15.714 25.3576 15.714H21.0719C20.7877 15.714 20.5152 15.8269 20.3143 16.0278C20.1133 16.2288 20.0005 16.5013 20.0005 16.7854C20.0005 17.0696 20.1133 17.3421 20.3143 17.543C20.5152 17.744 20.7877 17.8569 21.0719 17.8569H25.3576Z" />
		<path fill-rule="evenodd" clip-rule="evenodd"
			d="M12.42 0H18.2943C20.92 0 23 1.70299e-07 24.6271 0.218572C26.3014 0.444286 27.6571 0.918571 28.7271 1.98714C29.7957 3.05714 30.27 4.41286 30.4957 6.08714C30.7143 7.71571 30.7143 9.79429 30.7143 12.42V12.58C30.7143 15.2057 30.7143 17.2857 30.4957 18.9129C30.27 20.5871 29.7957 21.9429 28.7271 23.0129C27.6571 24.0814 26.3014 24.5557 24.6271 24.7814C22.9986 25 20.92 25 18.2943 25H12.42C9.79429 25 7.71429 25 6.08714 24.7814C4.41286 24.5557 3.05714 24.0814 1.98714 23.0129C0.918571 21.9429 0.444286 20.5871 0.218571 18.9129C0 17.2843 0 15.2057 0 12.58V12.42C0 9.79429 0 7.71429 0.218571 6.08714C0.444286 4.41286 0.918571 3.05714 1.98714 1.98714C3.05714 0.918571 4.41286 0.444286 6.08714 0.218572C7.71571 1.70299e-07 9.79429 0 12.42 0ZM6.37143 2.34286C4.93429 2.53571 4.10571 2.89857 3.5 3.50286C2.89714 4.10714 2.53429 4.93571 2.34143 6.37286C2.14429 7.84143 2.14143 9.77571 2.14143 12.5C2.14143 15.2243 2.14429 17.1586 2.34143 18.6286C2.53429 20.0643 2.89714 20.8929 3.50143 21.4971C4.10571 22.1014 4.93429 22.4643 6.37143 22.6571C7.84 22.8543 9.77428 22.8571 12.4986 22.8571H18.2129C20.9371 22.8571 22.8729 22.8543 24.3414 22.6571C25.7771 22.4643 26.6057 22.1014 27.21 21.4971C27.8143 20.8929 28.1771 20.0643 28.37 18.6271C28.5671 17.1586 28.57 15.2243 28.57 12.5C28.57 9.77571 28.5671 7.84143 28.37 6.37143C28.1771 4.93571 27.8143 4.10714 27.21 3.50286C26.6057 2.89857 25.7771 2.53571 24.34 2.34286C22.8729 2.14571 20.9371 2.14286 18.2129 2.14286H12.4986C9.77428 2.14286 7.84143 2.14571 6.37143 2.34286Z" />
	</symbol>

	<symbol id="services-icon8" viewBox="0 0 29 27">
		<path fill-rule="evenodd" clip-rule="evenodd"
			d="M6.04808 0C6.60036 0 7.04808 0.447715 7.04808 1V3.33333H11.9373H21.875V1C21.875 0.447715 22.3227 0 22.875 0C23.4273 0 23.875 0.447715 23.875 1V3.33333H26.2404C26.9488 3.33333 27.6301 3.61198 28.1339 4.11101C28.6381 4.61035 28.9231 5.28965 28.9231 6V17.6667C28.9231 18.377 28.6381 19.0563 28.1339 19.5557C27.6301 20.0547 26.9488 20.3333 26.2404 20.3333H23.875V25H26.2404C26.7927 25 27.2404 25.4477 27.2404 26C27.2404 26.5523 26.7927 27 26.2404 27H19.5096C18.9573 27 18.5096 26.5523 18.5096 26C18.5096 25.4477 18.9573 25 19.5096 25H21.875V20.3333H7.04808V25H9.41346C9.96575 25 10.4135 25.4477 10.4135 26C10.4135 26.5523 9.96575 27 9.41346 27H2.68269C2.13041 27 1.68269 26.5523 1.68269 26C1.68269 25.4477 2.13041 25 2.68269 25H5.04808V20.3333H2.68269C1.97427 20.3333 1.29296 20.0547 0.789134 19.5557C0.284989 19.0563 0 18.377 0 17.6667V15.1671V6C0 5.28965 0.284989 4.61035 0.789134 4.11101C1.29296 3.61198 1.97427 3.33333 2.68269 3.33333H5.04808V1C5.04808 0.447715 5.49579 0 6.04808 0ZM2.68269 5.33333C2.49856 5.33333 2.32388 5.40587 2.19656 5.53197C2.06958 5.65775 2 5.82629 2 6V12.7687L9.50686 5.33333H2.68269ZM12.3489 5.33333L2 15.5837V17.6667C2 17.8404 2.06958 18.0089 2.19656 18.1347C2.32388 18.2608 2.49856 18.3333 2.68269 18.3333H6.47801L19.603 5.33333H12.3489ZM22.4451 5.33333L9.32007 18.3333H16.5742L26.9231 8.08298V6C26.9231 5.82629 26.8535 5.65775 26.7265 5.53197C26.5992 5.40587 26.4245 5.33333 26.2404 5.33333H22.4451ZM26.9231 10.898L19.4162 18.3333H26.2404C26.4245 18.3333 26.5992 18.2608 26.7265 18.1347C26.8535 18.0089 26.9231 17.8404 26.9231 17.6667V10.898Z" />
	</symbol>

	<symbol id="services-icon9" viewBox="0 0 20 25">
		<path
			d="M9.99972 1.25108L10.4922 0.101109C10.3366 0.0343986 10.169 0 9.99972 0C9.8304 0 9.66285 0.0343986 9.50723 0.101109L9.99972 1.25108ZM9.99972 23.7504L9.37973 24.8354C9.56856 24.9433 9.78226 25 9.99972 25C10.2172 25 10.4309 24.9433 10.6197 24.8354L9.99972 23.7504ZM5.02986 20.9093L4.40863 21.9955L5.02861 20.9093H5.02986ZM9.50723 0.102359L1.51496 3.52601L2.49993 5.82595L10.4922 2.40104L9.50723 0.102359ZM1.89744e-07 5.8247V14.3995H2.49993V5.8247H1.89744e-07ZM4.40863 21.9955L9.37973 24.8354L10.6197 22.6655L5.64859 19.8243L4.40863 21.9955ZM10.6197 24.8354L15.5908 21.9955L14.3508 19.8243L9.37973 22.6655L10.6197 24.8354ZM19.9994 14.3982V5.82595H17.4995V14.4007H19.9994V14.3982ZM18.4845 3.52726L10.4922 0.102359L9.50723 2.39979L17.4995 5.82595L18.4845 3.52726ZM19.9994 5.82595C19.9994 5.33678 19.8558 4.85838 19.5865 4.45001C19.3172 4.04164 18.9341 3.71999 18.4845 3.52726L17.4995 5.82595H19.9994ZM15.5908 21.9955C16.9303 21.23 18.0436 20.1253 18.8179 18.7909C19.5921 17.4564 19.9997 15.941 19.9994 14.3982H17.4995C17.4994 15.5 17.2079 16.5822 16.6548 17.5352C16.1016 18.4881 15.3063 19.2778 14.3496 19.8243L15.5908 21.9955ZM1.89744e-07 14.3982C-6.89341e-05 15.9408 0.407672 17.4559 1.1819 18.7901C1.95612 20.1243 3.0693 21.2302 4.40863 21.9955L5.64859 19.8243C4.69245 19.2778 3.89767 18.4884 3.34475 17.536C2.79182 16.5836 2.50038 15.502 2.49993 14.4007H1.89744e-07V14.3982ZM1.51496 3.52601C1.06517 3.71883 0.681857 4.04067 0.412557 4.44928C0.143257 4.8579 -0.000190436 5.33657 1.89744e-07 5.82595H2.49993L1.51496 3.52851V3.52601Z" />
		<path fill-rule="evenodd" clip-rule="evenodd"
			d="M14.4569 9.29387C14.8474 9.68439 14.8474 10.3176 14.4569 10.7081L9.45704 15.7079C9.06651 16.0985 8.43335 16.0985 8.04282 15.7079L5.54289 13.208C5.15237 12.8175 5.15237 12.1843 5.54289 11.7938C5.93342 11.4033 6.56658 11.4033 6.95711 11.7938L8.74993 13.5866L13.0427 9.29387C13.4332 8.90335 14.0664 8.90335 14.4569 9.29387Z" />
	</symbol>

	<symbol id="mobile" viewBox="0 0 14 20">
		<path
			d="M11.35 1H2.35C1.60442 1 1 1.60442 1 2.35V17.65C1 18.3956 1.60442 19 2.35 19H11.35C12.0956 19 12.7 18.3956 12.7 17.65V2.35C12.7 1.60442 12.0956 1 11.35 1Z"/>
		<path d="M5.95005 3.70001H7.75005M5.05005 16.3H8.65005" stroke-linecap="round"
			stroke-linejoin="round" />
	</symbol>

</svg>