<svg display="none" xmlns="http://www.w3.org/2000/svg">
	<symbol id="burger" viewBox="0 0 45 29">
		<path d="M0 0H45V5H0V0Z" />
		<path d="M9 12H45V17H9V12Z" />
		<path d="M20 24H45V29H20V24Z" />
	</symbol>

	<symbol id="close" viewBox="0 0 21 21">
		<path
			d="M0.626873 0.626873C-0.208949 1.46269 -0.208966 2.81783 0.626873 3.65367L7.4732 10.5L0.626873 17.3463C-0.208949 18.1822 -0.208949 19.5373 0.626873 20.3731C1.46269 21.209 2.81785 21.209 3.65367 20.3731L10.5 13.5268L17.3463 20.3731C18.1822 21.209 19.5373 21.209 20.3731 20.3731C21.209 19.5373 21.209 18.1822 20.3731 17.3463L13.5268 10.5L20.3731 3.65367C21.209 2.81785 21.209 1.46269 20.3731 0.626873C19.5373 -0.208949 18.1822 -0.208949 17.3463 0.626873L10.5 7.4732L3.65367 0.626873C2.81783 -0.208966 1.46269 -0.208949 0.626873 0.626873Z" />
	</symbol>

	<symbol id="services-icon1" viewBox="0 0 30 30">
		<path fill-rule="evenodd" clip-rule="evenodd"
			d="M8.94663 2.39242C7.96499 2.5281 7.46092 2.77414 7.10568 3.13966L7.1048 3.14056C6.74916 3.50566 6.50977 4.02374 6.37776 5.03265C6.24152 6.07382 6.23919 7.45627 6.23919 9.45V20.55C6.23919 22.5437 6.24152 23.9262 6.37776 24.9674C6.50977 25.9763 6.74916 26.4943 7.1048 26.8594L7.10568 26.8603C7.46092 27.2259 7.96499 27.4719 8.94663 27.6076C9.95966 27.7476 11.3047 27.75 13.2446 27.75H15.9446C17.8844 27.75 19.2295 27.7476 20.2426 27.6076C21.2242 27.4719 21.7283 27.2259 22.0835 26.8603L22.0844 26.8594C22.44 26.4943 22.6794 25.9763 22.8114 24.9674C22.9477 23.9262 22.95 22.5437 22.95 20.55V9.45C22.95 7.45627 22.9477 6.07382 22.8114 5.03264C22.6794 4.02374 22.44 3.50566 22.0844 3.14056L22.0835 3.13966C21.7283 2.77414 21.2242 2.5281 20.2426 2.39242C19.2295 2.25239 17.8844 2.25 15.9446 2.25H13.2446C11.3047 2.25 9.95966 2.25239 8.94663 2.39242ZM13.1652 9.47551e-07H16.024C17.8654 -3.23118e-05 19.3583 -5.92209e-05 20.5344 0.162491C21.7586 0.331711 22.8023 0.695478 23.6324 1.54957C24.0321 1.9602 24.3214 2.42168 24.5323 2.93022C25.779 3.09634 26.8395 3.45849 27.6815 4.32367C28.5125 5.17679 28.8664 6.24948 29.0311 7.50775C29.1892 8.71642 29.1892 10.2508 29.1892 12.1434V17.8566C29.1892 19.7492 29.1892 21.2836 29.0311 22.4923C28.8664 23.7505 28.5125 24.8232 27.6815 25.6763C26.8395 26.5415 25.779 26.9037 24.5323 27.0698C24.3213 27.5787 24.0317 28.0405 23.6315 28.4513C22.8016 29.3048 21.7582 29.6684 20.5344 29.8375C19.3583 30.0001 17.8654 30 16.024 30H13.1652C11.3238 30 9.83084 30.0001 8.65484 29.8375C7.43101 29.6684 6.38761 29.3048 5.55769 28.4513C5.15748 28.0405 4.86792 27.5787 4.65687 27.0698C3.40993 26.9036 2.34936 26.5414 1.50725 25.6759C0.676556 24.8228 0.322716 23.7503 0.158099 22.4923C-5.76204e-05 21.2836 -3.14385e-05 19.7492 9.21941e-07 17.8566V12.1434C-3.14385e-05 10.2508 -5.76204e-05 8.71643 0.158099 7.50775C0.322716 6.2497 0.676556 5.17717 1.50725 4.32412C2.34936 3.45862 3.40993 3.09637 4.65687 2.93022C4.86792 2.42131 5.15748 1.95952 5.55769 1.54867C6.38761 0.695221 7.43101 0.331651 8.65484 0.162491C9.83085 -5.92209e-05 11.3238 -3.23118e-05 13.1652 9.47551e-07ZM4.14556 5.31616C3.6312 5.45844 3.30637 5.65701 3.05524 5.91511L3.0548 5.91556C2.69916 6.28066 2.45977 6.79874 2.32776 7.80765C2.19152 8.84882 2.18919 10.2313 2.18919 12.225V17.775C2.18919 19.7687 2.19152 21.1512 2.32776 22.1924C2.45977 23.2013 2.69916 23.7193 3.0548 24.0844L3.05524 24.0849C3.30637 24.343 3.6312 24.5416 4.14556 24.6838C4.04995 23.5761 4.04997 22.2319 4.05 20.6316V9.36842C4.04997 7.76812 4.04995 6.4239 4.14556 5.31616ZM25.0436 24.6838C25.558 24.5416 25.8828 24.343 26.1339 24.0849L26.1344 24.0844C26.49 23.7193 26.7294 23.2013 26.8614 22.1924C26.9977 21.1512 27 19.7687 27 17.775V12.225C27 10.2313 26.9977 8.84882 26.8614 7.80765C26.7294 6.79874 26.49 6.28066 26.1344 5.91556L26.1339 5.91511C25.8828 5.65701 25.558 5.45844 25.0436 5.31616C25.1392 6.42391 25.1392 7.76815 25.1392 9.36847V20.6315C25.1392 22.2319 25.1392 23.5761 25.0436 24.6838Z" />
		<path fill-rule="evenodd" clip-rule="evenodd"
			d="M9.48649 10.875C9.48649 10.2537 9.97655 9.75 10.5811 9.75H18.6081C19.2126 9.75 19.7027 10.2537 19.7027 10.875C19.7027 11.4963 19.2126 12 18.6081 12H10.5811C9.97655 12 9.48649 11.4963 9.48649 10.875ZM9.48649 16.5C9.48649 15.8787 9.97655 15.375 10.5811 15.375H18.6081C19.2126 15.375 19.7027 15.8787 19.7027 16.5C19.7027 17.1213 19.2126 17.625 18.6081 17.625H10.5811C9.97655 17.625 9.48649 17.1213 9.48649 16.5ZM9.48649 22.125C9.48649 21.5037 9.97655 21 10.5811 21H14.5946C15.1991 21 15.6892 21.5037 15.6892 22.125C15.6892 22.7463 15.1991 23.25 14.5946 23.25H10.5811C9.97655 23.25 9.48649 22.7463 9.48649 22.125Z" />
	</symbol>

	<symbol id="services-icon2" viewBox="0 0 25 30">
		<path fill-rule="evenodd" clip-rule="evenodd"
			d="M12.5 10.8908C11.0792 10.8908 9.71659 11.45 8.71193 12.4455C7.70727 13.441 7.14286 14.7912 7.14286 16.199C7.14286 17.6068 7.70727 18.957 8.71193 19.9524C9.71659 20.9479 11.0792 21.5072 12.5 21.5072C13.9208 21.5072 15.2834 20.9479 16.2881 19.9524C17.2927 18.957 17.8571 17.6068 17.8571 16.199C17.8571 14.7912 17.2927 13.441 16.2881 12.4455C15.2834 11.45 13.9208 10.8908 12.5 10.8908ZM9.28571 16.199C9.28571 15.3543 9.62436 14.5442 10.2272 13.9469C10.83 13.3496 11.6475 13.0141 12.5 13.0141C13.3525 13.0141 14.17 13.3496 14.7728 13.9469C15.3756 14.5442 15.7143 15.3543 15.7143 16.199C15.7143 17.0437 15.3756 17.8538 14.7728 18.4511C14.17 19.0483 13.3525 19.3839 12.5 19.3839C11.6475 19.3839 10.83 19.0483 10.2272 18.4511C9.62436 17.8538 9.28571 17.0437 9.28571 16.199Z" />
		<path
			d="M9.64286 23.6304C9.3587 23.6304 9.08617 23.7423 8.88524 23.9414C8.68431 24.1405 8.57143 24.4105 8.57143 24.6921C8.57143 24.9736 8.68431 25.2437 8.88524 25.4428C9.08617 25.6419 9.3587 25.7537 9.64286 25.7537H15.3571C15.6413 25.7537 15.9138 25.6419 16.1148 25.4428C16.3157 25.2437 16.4286 24.9736 16.4286 24.6921C16.4286 24.4105 16.3157 24.1405 16.1148 23.9414C15.9138 23.7423 15.6413 23.6304 15.3571 23.6304H9.64286Z" />
		<path fill-rule="evenodd" clip-rule="evenodd"
			d="M17.6586 0.0391421C18.2157 -0.0397445 18.7835 0.000913068 19.3234 0.158362C19.8634 0.315811 20.3628 0.586374 20.7881 0.951734C21.2133 1.31709 21.5543 1.76872 21.788 2.27603C22.0218 2.78335 22.1428 3.3345 22.1429 3.89218V5.84135C23.0052 6.29223 23.7271 6.96778 24.2306 7.79518C24.7341 8.62259 25.0001 9.57046 25 10.5366V24.6918C25 26.0996 24.4356 27.4498 23.4309 28.4453C22.4263 29.4407 21.0637 30 19.6429 30H5.35714C3.93634 30 2.57373 29.4407 1.56907 28.4453C0.564412 27.4498 0 26.0996 0 24.6918V4.77405C0 3.49159 0.951429 2.40306 2.23429 2.22187L17.6571 0.0391421H17.6586ZM2.14286 7.35171V24.6918C2.14286 25.5365 2.4815 26.3466 3.0843 26.9439C3.6871 27.5412 4.50466 27.8767 5.35714 27.8767H19.6429C20.4953 27.8767 21.3129 27.5412 21.9157 26.9439C22.5185 26.3466 22.8571 25.5365 22.8571 24.6918V10.5366C22.8572 9.69438 22.5205 8.88642 21.9208 8.28954C21.321 7.69266 20.5071 7.35545 19.6571 7.35171H2.14286ZM20 5.22843H2.59571C2.47985 5.22747 2.36864 5.18307 2.28446 5.10418C2.20028 5.02529 2.14936 4.91774 2.14194 4.80316C2.13452 4.68858 2.17115 4.57547 2.24447 4.48656C2.31779 4.39766 2.42235 4.33955 2.53714 4.32392L17.9614 2.1426C18.2147 2.10671 18.4727 2.12515 18.7182 2.19668C18.9636 2.2682 19.1906 2.39115 19.3839 2.55718C19.5773 2.72322 19.7323 2.92847 19.8386 3.15904C19.9449 3.38961 19.9999 3.64011 20 3.8936V5.22843Z" />
	</symbol>

	<symbol id="services-icon3" viewBox="0 0 25 25">
		<path
			d="M10.6297 0.558434C11.0631 0.197166 11.6041 0 12.1622 0C12.7202 0 13.2612 0.197166 13.6946 0.558434L22.9719 8.28235C23.3937 8.6334 23.734 9.07677 23.968 9.58011C24.202 10.0835 24.3237 10.6341 24.3243 11.1919V22.5004C24.3243 23.1633 24.0681 23.7991 23.6119 24.2679C23.1557 24.7366 22.537 25 21.8919 25H17.027C16.3819 25 15.7632 24.7366 15.307 24.2679C14.8509 23.7991 14.5946 23.1633 14.5946 22.5004V15.0014H9.72973V22.5004C9.72973 23.1633 9.47346 23.7991 9.01729 24.2679C8.56112 24.7366 7.94242 25 7.2973 25H2.43243C1.78731 25 1.16861 24.7366 0.712443 24.2679C0.256273 23.7991 7.14137e-08 23.1633 7.14137e-08 22.5004V11.1944C-0.000107481 10.6358 0.121271 10.0841 0.355264 9.57987C0.589256 9.0756 0.929947 8.63144 1.35243 8.27985L10.6297 0.558434ZM21.4419 10.2221L12.1622 2.50316L2.88243 10.2221C2.74165 10.3394 2.62817 10.4877 2.55031 10.6559C2.47245 10.8241 2.43218 11.0081 2.43243 11.1944V22.5004H7.2973V15.0014C7.2973 14.3385 7.55357 13.7027 8.00974 13.2339C8.46591 12.7651 9.08461 12.5018 9.72973 12.5018H14.5946C15.2397 12.5018 15.8584 12.7651 16.3146 13.2339C16.7708 13.7027 17.027 14.3385 17.027 15.0014V22.5004H21.8919V11.1944C21.8921 11.0081 21.8519 10.8241 21.774 10.6559C21.6962 10.4877 21.5827 10.3394 21.4419 10.2221Z" />
	</symbol>

	<symbol id="services-icon4" viewBox="0 0 25 25">
		<path
			d="M23.6898 0.61788L24.3755 1.29612C25.3203 2.23186 25.1773 3.89067 24.0536 5.00114L9.91404 18.9878L5.33297 20.6455C4.75772 20.8547 4.19758 20.5834 4.08369 20.042C4.0452 19.8455 4.06332 19.6424 4.13598 19.4557L5.8443 14.885L19.9443 0.936308C21.0681 -0.174165 22.745 -0.31786 23.6898 0.61788ZM9.29696 2.00885C9.44957 2.00885 9.60069 2.03858 9.74168 2.09635C9.88268 2.15412 10.0108 2.2388 10.1187 2.34554C10.2266 2.45229 10.3122 2.57902 10.3706 2.71849C10.429 2.85796 10.4591 3.00744 10.4591 3.1584C10.4591 3.30937 10.429 3.45885 10.3706 3.59832C10.3122 3.73779 10.2266 3.86452 10.1187 3.97126C10.0108 4.07801 9.88268 4.16268 9.74168 4.22046C9.60069 4.27823 9.44957 4.30796 9.29696 4.30796H4.64848C4.03205 4.30796 3.44087 4.55019 3.00499 4.98136C2.56911 5.41252 2.32424 5.99731 2.32424 6.60708V20.4018C2.32424 21.0115 2.56911 21.5963 3.00499 22.0275C3.44087 22.4587 4.03205 22.7009 4.64848 22.7009H18.5939C19.2103 22.7009 19.8015 22.4587 20.2374 22.0275C20.6733 21.5963 20.9182 21.0115 20.9182 20.4018V15.8035C20.9182 15.4987 21.0406 15.2063 21.2585 14.9907C21.4765 14.7751 21.7721 14.654 22.0803 14.654C22.3885 14.654 22.6841 14.7751 22.902 14.9907C23.12 15.2063 23.2424 15.4987 23.2424 15.8035V20.4018C23.2424 21.6213 22.7526 22.7909 21.8809 23.6532C21.0091 24.5155 19.8268 25 18.5939 25H4.64848C3.41563 25 2.23327 24.5155 1.36151 23.6532C0.489749 22.7909 0 21.6213 0 20.4018V6.60708C0 5.38755 0.489749 4.21797 1.36151 3.35564C2.23327 2.4933 3.41563 2.00885 4.64848 2.00885H9.29696Z" />
	</symbol>

	<symbol id="services-icon5" viewBox="0 0 25 25">
		<path fill-rule="evenodd" clip-rule="evenodd"
			d="M11.1206 2.61576C8.86519 2.61576 6.70217 3.51175 5.10736 5.10661C3.51256 6.70148 2.61661 8.86458 2.61661 11.1201C2.61661 13.3755 3.51256 15.5386 5.10736 17.1335C6.70217 18.7284 8.86519 19.6244 11.1206 19.6244C13.376 19.6244 15.539 18.7284 17.1338 17.1335C18.7286 15.5386 19.6246 13.3755 19.6246 11.1201C19.6246 8.86458 18.7286 6.70148 17.1338 5.10661C15.539 3.51175 13.376 2.61576 11.1206 2.61576ZM2.50785e-08 11.1201C0.000151098 9.34671 0.424367 7.5991 1.23726 6.02305C2.05014 4.447 3.22813 3.0882 4.67294 2.06002C6.11775 1.03184 7.78748 0.364097 9.54282 0.112499C11.2982 -0.139099 13.0882 0.0327432 14.7637 0.61369C16.4391 1.19464 17.9513 2.16784 19.1741 3.45211C20.397 4.73638 21.295 6.29446 21.7932 7.99638C22.2914 9.6983 22.3755 11.4947 22.0383 13.2357C21.7011 14.9767 20.9524 16.6118 19.8548 18.0046L24.6327 22.7827C24.8711 23.0295 25.0029 23.36 25 23.703C24.997 24.0461 24.8594 24.3742 24.6168 24.6168C24.3742 24.8594 24.0461 24.997 23.7031 25C23.36 25.0029 23.0296 24.8711 22.7828 24.6327L18.0049 19.8546C16.3651 21.1473 14.3945 21.9521 12.3186 22.1771C10.2428 22.402 8.14553 22.038 6.2669 21.1266C4.38827 20.2153 2.80416 18.7934 1.69586 17.0237C0.587568 15.2541 -0.000140176 13.2081 2.50785e-08 11.1201ZM9.81228 6.54082C9.81228 6.19382 9.95012 5.86104 10.1955 5.61568C10.4408 5.37031 10.7736 5.23247 11.1206 5.23247C12.682 5.23247 14.1795 5.85277 15.2836 6.9569C16.3877 8.06104 17.0079 9.55857 17.0079 11.1201C17.0079 11.4671 16.8701 11.7998 16.6248 12.0452C16.3794 12.2906 16.0466 12.4284 15.6996 12.4284C15.3527 12.4284 15.0199 12.2906 14.7745 12.0452C14.5292 11.7998 14.3913 11.4671 14.3913 11.1201C14.3913 10.2526 14.0467 9.4206 13.4334 8.80719C12.82 8.19378 11.988 7.84917 11.1206 7.84917C10.7736 7.84917 10.4408 7.71133 10.1955 7.46597C9.95012 7.2206 9.81228 6.88782 9.81228 6.54082Z" />
	</symbol>

	<symbol id="services-icon6" viewBox="0 0 31 25">
		<path fill-rule="evenodd" clip-rule="evenodd"
			d="M11.0712 4.28613C10.5552 4.28613 10.0444 4.38775 9.56775 4.58518C9.09112 4.78261 8.65804 5.07198 8.29323 5.43678C7.92843 5.80159 7.63906 6.23467 7.44163 6.7113C7.2442 7.18794 7.14258 7.6988 7.14258 8.2147C7.14258 8.73061 7.2442 9.24147 7.44163 9.7181C7.63906 10.1947 7.92843 10.6278 8.29323 10.9926C8.65804 11.3574 9.09112 11.6468 9.56775 11.8442C10.0444 12.0417 10.5552 12.1433 11.0712 12.1433C12.1131 12.1433 13.1123 11.7294 13.8491 10.9926C14.5858 10.2559 14.9997 9.25663 14.9997 8.2147C14.9997 7.17278 14.5858 6.17353 13.8491 5.43678C13.1123 4.70003 12.1131 4.28613 11.0712 4.28613ZM9.28544 8.2147C9.28544 7.7411 9.47358 7.2869 9.80846 6.95201C10.1433 6.61713 10.5976 6.42899 11.0712 6.42899C11.5448 6.42899 11.999 6.61713 12.3338 6.95201C12.6687 7.2869 12.8569 7.7411 12.8569 8.2147C12.8569 8.6883 12.6687 9.14251 12.3338 9.47739C11.999 9.81228 11.5448 10.0004 11.0712 10.0004C10.5976 10.0004 10.1433 9.81228 9.80846 9.47739C9.47358 9.14251 9.28544 8.6883 9.28544 8.2147ZM11.0712 12.8576C9.36258 12.8576 7.76401 13.2004 6.55115 13.8076C5.40401 14.3818 4.28544 15.3733 4.28544 16.7861V16.8761C4.28258 17.6047 4.27972 18.8333 5.44258 19.6747C5.98258 20.0647 6.69544 20.3147 7.5783 20.4733C8.4683 20.6333 9.60972 20.7147 11.0712 20.7147C12.5326 20.7147 13.674 20.6333 14.564 20.4733C15.4469 20.3147 16.1597 20.0647 16.6997 19.6733C17.8626 18.8318 17.8597 17.6047 17.8569 16.8747V16.7861C17.8569 15.3718 16.7383 14.3818 15.5912 13.8076C14.3783 13.2018 12.7797 12.8576 11.0712 12.8576ZM6.4283 16.7861C6.4283 16.6218 6.58972 16.1847 7.50972 15.7247C8.36687 15.2961 9.62401 15.0004 11.0712 15.0004C12.5183 15.0004 13.7769 15.2961 14.6326 15.7247C15.5526 16.1847 15.714 16.6218 15.714 16.7861C15.714 17.649 15.6583 17.7818 15.4426 17.939C15.2683 18.0647 14.9097 18.2333 14.1854 18.3647C13.4683 18.4933 12.4669 18.5718 11.0712 18.5718C9.67544 18.5718 8.67401 18.4933 7.95687 18.3647C7.23258 18.2333 6.87401 18.0647 6.69972 17.939C6.48258 17.7818 6.4283 17.649 6.4283 16.7861Z" />
		<path
			d="M25.3576 13.5712C25.6418 13.5712 25.9143 13.4583 26.1152 13.2573C26.3161 13.0564 26.429 12.7839 26.429 12.4997C26.429 12.2156 26.3161 11.943 26.1152 11.7421C25.9143 11.5412 25.6418 11.4283 25.3576 11.4283H19.6433C19.3592 11.4283 19.0866 11.5412 18.8857 11.7421C18.6848 11.943 18.5719 12.2156 18.5719 12.4997C18.5719 12.7839 18.6848 13.0564 18.8857 13.2573C19.0866 13.4583 19.3592 13.5712 19.6433 13.5712H25.3576ZM26.429 8.21401C26.429 8.49817 26.3161 8.77069 26.1152 8.97162C25.9143 9.17255 25.6418 9.28544 25.3576 9.28544H18.2147C17.9306 9.28544 17.6581 9.17255 17.4571 8.97162C17.2562 8.77069 17.1433 8.49817 17.1433 8.21401C17.1433 7.92985 17.2562 7.65732 17.4571 7.45639C17.6581 7.25546 17.9306 7.14258 18.2147 7.14258H25.3576C25.6418 7.14258 25.9143 7.25546 26.1152 7.45639C26.3161 7.65732 26.429 7.92985 26.429 8.21401ZM25.3576 17.8569C25.6418 17.8569 25.9143 17.744 26.1152 17.543C26.3161 17.3421 26.429 17.0696 26.429 16.7854C26.429 16.5013 26.3161 16.2288 26.1152 16.0278C25.9143 15.8269 25.6418 15.714 25.3576 15.714H21.0719C20.7877 15.714 20.5152 15.8269 20.3143 16.0278C20.1133 16.2288 20.0005 16.5013 20.0005 16.7854C20.0005 17.0696 20.1133 17.3421 20.3143 17.543C20.5152 17.744 20.7877 17.8569 21.0719 17.8569H25.3576Z" />
		<path fill-rule="evenodd" clip-rule="evenodd"
			d="M12.42 0H18.2943C20.92 0 23 1.70299e-07 24.6271 0.218572C26.3014 0.444286 27.6571 0.918571 28.7271 1.98714C29.7957 3.05714 30.27 4.41286 30.4957 6.08714C30.7143 7.71571 30.7143 9.79429 30.7143 12.42V12.58C30.7143 15.2057 30.7143 17.2857 30.4957 18.9129C30.27 20.5871 29.7957 21.9429 28.7271 23.0129C27.6571 24.0814 26.3014 24.5557 24.6271 24.7814C22.9986 25 20.92 25 18.2943 25H12.42C9.79429 25 7.71429 25 6.08714 24.7814C4.41286 24.5557 3.05714 24.0814 1.98714 23.0129C0.918571 21.9429 0.444286 20.5871 0.218571 18.9129C0 17.2843 0 15.2057 0 12.58V12.42C0 9.79429 0 7.71429 0.218571 6.08714C0.444286 4.41286 0.918571 3.05714 1.98714 1.98714C3.05714 0.918571 4.41286 0.444286 6.08714 0.218572C7.71571 1.70299e-07 9.79429 0 12.42 0ZM6.37143 2.34286C4.93429 2.53571 4.10571 2.89857 3.5 3.50286C2.89714 4.10714 2.53429 4.93571 2.34143 6.37286C2.14429 7.84143 2.14143 9.77571 2.14143 12.5C2.14143 15.2243 2.14429 17.1586 2.34143 18.6286C2.53429 20.0643 2.89714 20.8929 3.50143 21.4971C4.10571 22.1014 4.93429 22.4643 6.37143 22.6571C7.84 22.8543 9.77428 22.8571 12.4986 22.8571H18.2129C20.9371 22.8571 22.8729 22.8543 24.3414 22.6571C25.7771 22.4643 26.6057 22.1014 27.21 21.4971C27.8143 20.8929 28.1771 20.0643 28.37 18.6271C28.5671 17.1586 28.57 15.2243 28.57 12.5C28.57 9.77571 28.5671 7.84143 28.37 6.37143C28.1771 4.93571 27.8143 4.10714 27.21 3.50286C26.6057 2.89857 25.7771 2.53571 24.34 2.34286C22.8729 2.14571 20.9371 2.14286 18.2129 2.14286H12.4986C9.77428 2.14286 7.84143 2.14571 6.37143 2.34286Z" />
	</symbol>

	<symbol id="services-icon7" viewBox="0 0 29 27">
		<path fill-rule="evenodd" clip-rule="evenodd"
			d="M6.04808 0C6.60036 0 7.04808 0.447715 7.04808 1V3.33333H11.9373H21.875V1C21.875 0.447715 22.3227 0 22.875 0C23.4273 0 23.875 0.447715 23.875 1V3.33333H26.2404C26.9488 3.33333 27.6301 3.61198 28.1339 4.11101C28.6381 4.61035 28.9231 5.28965 28.9231 6V17.6667C28.9231 18.377 28.6381 19.0563 28.1339 19.5557C27.6301 20.0547 26.9488 20.3333 26.2404 20.3333H23.875V25H26.2404C26.7927 25 27.2404 25.4477 27.2404 26C27.2404 26.5523 26.7927 27 26.2404 27H19.5096C18.9573 27 18.5096 26.5523 18.5096 26C18.5096 25.4477 18.9573 25 19.5096 25H21.875V20.3333H7.04808V25H9.41346C9.96575 25 10.4135 25.4477 10.4135 26C10.4135 26.5523 9.96575 27 9.41346 27H2.68269C2.13041 27 1.68269 26.5523 1.68269 26C1.68269 25.4477 2.13041 25 2.68269 25H5.04808V20.3333H2.68269C1.97427 20.3333 1.29296 20.0547 0.789134 19.5557C0.284989 19.0563 0 18.377 0 17.6667V15.1671V6C0 5.28965 0.284989 4.61035 0.789134 4.11101C1.29296 3.61198 1.97427 3.33333 2.68269 3.33333H5.04808V1C5.04808 0.447715 5.49579 0 6.04808 0ZM2.68269 5.33333C2.49856 5.33333 2.32388 5.40587 2.19656 5.53197C2.06958 5.65775 2 5.82629 2 6V12.7687L9.50686 5.33333H2.68269ZM12.3489 5.33333L2 15.5837V17.6667C2 17.8404 2.06958 18.0089 2.19656 18.1347C2.32388 18.2608 2.49856 18.3333 2.68269 18.3333H6.47801L19.603 5.33333H12.3489ZM22.4451 5.33333L9.32007 18.3333H16.5742L26.9231 8.08298V6C26.9231 5.82629 26.8535 5.65775 26.7265 5.53197C26.5992 5.40587 26.4245 5.33333 26.2404 5.33333H22.4451ZM26.9231 10.898L19.4162 18.3333H26.2404C26.4245 18.3333 26.5992 18.2608 26.7265 18.1347C26.8535 18.0089 26.9231 17.8404 26.9231 17.6667V10.898Z" />
	</symbol>

	<symbol id="services-icon8" viewBox="0 0 20 25">
		<path
			d="M9.99972 1.25108L10.4922 0.101109C10.3366 0.0343986 10.169 0 9.99972 0C9.8304 0 9.66285 0.0343986 9.50723 0.101109L9.99972 1.25108ZM9.99972 23.7504L9.37973 24.8354C9.56856 24.9433 9.78226 25 9.99972 25C10.2172 25 10.4309 24.9433 10.6197 24.8354L9.99972 23.7504ZM5.02986 20.9093L4.40863 21.9955L5.02861 20.9093H5.02986ZM9.50723 0.102359L1.51496 3.52601L2.49993 5.82595L10.4922 2.40104L9.50723 0.102359ZM1.89744e-07 5.8247V14.3995H2.49993V5.8247H1.89744e-07ZM4.40863 21.9955L9.37973 24.8354L10.6197 22.6655L5.64859 19.8243L4.40863 21.9955ZM10.6197 24.8354L15.5908 21.9955L14.3508 19.8243L9.37973 22.6655L10.6197 24.8354ZM19.9994 14.3982V5.82595H17.4995V14.4007H19.9994V14.3982ZM18.4845 3.52726L10.4922 0.102359L9.50723 2.39979L17.4995 5.82595L18.4845 3.52726ZM19.9994 5.82595C19.9994 5.33678 19.8558 4.85838 19.5865 4.45001C19.3172 4.04164 18.9341 3.71999 18.4845 3.52726L17.4995 5.82595H19.9994ZM15.5908 21.9955C16.9303 21.23 18.0436 20.1253 18.8179 18.7909C19.5921 17.4564 19.9997 15.941 19.9994 14.3982H17.4995C17.4994 15.5 17.2079 16.5822 16.6548 17.5352C16.1016 18.4881 15.3063 19.2778 14.3496 19.8243L15.5908 21.9955ZM1.89744e-07 14.3982C-6.89341e-05 15.9408 0.407672 17.4559 1.1819 18.7901C1.95612 20.1243 3.0693 21.2302 4.40863 21.9955L5.64859 19.8243C4.69245 19.2778 3.89767 18.4884 3.34475 17.536C2.79182 16.5836 2.50038 15.502 2.49993 14.4007H1.89744e-07V14.3982ZM1.51496 3.52601C1.06517 3.71883 0.681857 4.04067 0.412557 4.44928C0.143257 4.8579 -0.000190436 5.33657 1.89744e-07 5.82595H2.49993L1.51496 3.52851V3.52601Z" />
		<path fill-rule="evenodd" clip-rule="evenodd"
			d="M14.4569 9.29387C14.8474 9.68439 14.8474 10.3176 14.4569 10.7081L9.45704 15.7079C9.06651 16.0985 8.43335 16.0985 8.04282 15.7079L5.54289 13.208C5.15237 12.8175 5.15237 12.1843 5.54289 11.7938C5.93342 11.4033 6.56658 11.4033 6.95711 11.7938L8.74993 13.5866L13.0427 9.29387C13.4332 8.90335 14.0664 8.90335 14.4569 9.29387Z" />
	</symbol>

	<symbol id="mobile" viewBox="0 0 14 20">
		<path
			d="M11.35 1H2.35C1.60442 1 1 1.60442 1 2.35V17.65C1 18.3956 1.60442 19 2.35 19H11.35C12.0956 19 12.7 18.3956 12.7 17.65V2.35C12.7 1.60442 12.0956 1 11.35 1Z" />
		<path d="M5.95005 3.70001H7.75005M5.05005 16.3H8.65005" stroke-linecap="round" stroke-linejoin="round" />
	</symbol>

	<symbol id="search" viewBox="0 0 18 18">
		<circle cx="8.5" cy="9" r="5.01041" transform="rotate(-45 8.5 9)" stroke-width="2" />
		<path fill="#333333"
			d="M15.5492 17.2509C15.9397 17.6414 16.5728 17.6414 16.9634 17.2509C17.3539 16.8604 17.3539 16.2272 16.9634 15.8367L15.5492 17.2509ZM11.0867 12.7884L15.5492 17.2509L16.9634 15.8367L12.5009 11.3742L11.0867 12.7884Z" />
	</symbol>

	<symbol id="next" viewBox="0 0 29 52">
		<path d="M2 2L26 26L2 50" stroke-width="4" />
	</symbol>

	<symbol id="prev" viewBox="0 0 29 52">
		<path d="M27 50L3 26L27 2" stroke-width="4" />
	</symbol>

	<symbol id="why1" viewBox="0 0 35 42">
		<path fill-rule="evenodd" clip-rule="evenodd"
			d="M17.5 15.2471C15.5109 15.2471 13.6032 16.0301 12.1967 17.4237C10.7902 18.8174 10 20.7076 10 22.6786C10 24.6495 10.7902 26.5397 12.1967 27.9334C13.6032 29.3271 15.5109 30.11 17.5 30.11C19.4891 30.11 21.3968 29.3271 22.8033 27.9334C24.2098 26.5397 25 24.6495 25 22.6786C25 20.7076 24.2098 18.8174 22.8033 17.4237C21.3968 16.0301 19.4891 15.2471 17.5 15.2471ZM13 22.6786C13 21.496 13.4741 20.3619 14.318 19.5257C15.1619 18.6895 16.3065 18.2197 17.5 18.2197C18.6935 18.2197 19.8381 18.6895 20.682 19.5257C21.5259 20.3619 22 21.496 22 22.6786C22 23.8611 21.5259 24.9953 20.682 25.8315C19.8381 26.6677 18.6935 27.1374 17.5 27.1374C16.3065 27.1374 15.1619 26.6677 14.318 25.8315C13.4741 24.9953 13 23.8611 13 22.6786Z" />
		<path
			d="M13.5 33.0826C13.1022 33.0826 12.7206 33.2392 12.4393 33.5179C12.158 33.7967 12 34.1747 12 34.5689C12 34.9631 12.158 35.3412 12.4393 35.6199C12.7206 35.8986 13.1022 36.0552 13.5 36.0552H21.5C21.8978 36.0552 22.2794 35.8986 22.5607 35.6199C22.842 35.3412 23 34.9631 23 34.5689C23 34.1747 22.842 33.7967 22.5607 33.5179C22.2794 33.2392 21.8978 33.0826 21.5 33.0826H13.5Z" />
		<path fill-rule="evenodd" clip-rule="evenodd"
			d="M24.722 0.0547989C25.502 -0.0556422 26.2969 0.0012783 27.0528 0.221707C27.8087 0.442135 28.508 0.820924 29.1033 1.33243C29.6986 1.84393 30.176 2.47621 30.5033 3.18645C30.8305 3.89668 30.9999 4.6683 31 5.44906V8.17789C32.2073 8.80912 33.2179 9.75489 33.9228 10.9133C34.6277 12.0716 35.0001 13.3986 35 14.7513V34.5685C35 36.5395 34.2098 38.4297 32.8033 39.8234C31.3968 41.217 29.4891 42 27.5 42H7.5C5.51088 42 3.60322 41.217 2.1967 39.8234C0.790176 38.4297 0 36.5395 0 34.5685V6.68367C0 4.88823 1.332 3.36428 3.128 3.11062L24.72 0.0547989H24.722ZM3 10.2924V34.5685C3 35.7511 3.47411 36.8852 4.31802 37.7214C5.16193 38.5576 6.30653 39.0274 7.5 39.0274H27.5C28.6935 39.0274 29.8381 38.5576 30.682 37.7214C31.5259 36.8852 32 35.7511 32 34.5685V14.7513C32 13.5721 31.5287 12.441 30.6891 11.6054C29.8495 10.7697 28.71 10.2976 27.52 10.2924H3ZM28 7.31981H3.634C3.47179 7.31845 3.3161 7.2563 3.19825 7.14585C3.08039 7.0354 3.00911 6.88483 2.99872 6.72443C2.98833 6.56402 3.03961 6.40566 3.14226 6.28119C3.2449 6.15672 3.39129 6.07537 3.552 6.05348L25.146 2.99964C25.5005 2.94939 25.8618 2.97521 26.2054 3.07535C26.549 3.17548 26.8669 3.3476 27.1375 3.58005C27.4082 3.8125 27.6252 4.09985 27.774 4.42265C27.9228 4.74545 27.9999 5.09616 28 5.45104V7.31981Z" />
	</symbol>

	<symbol id="why2" viewBox="0 0 39 43">
		<path fill-rule="evenodd" clip-rule="evenodd"
			d="M5.93977 13.5C5.93977 5.82075 12.0003 0 19.4398 0C26.8793 0 32.9398 5.82075 32.9398 13.5C32.9398 17.4582 31.2628 21.2964 29.2412 24.5094C28.9205 25.019 28.589 25.5165 28.2508 26H30.8022C33.0023 26 34.9908 27.3112 35.8575 29.3334L38.4289 35.3334C39.9843 38.9627 37.3221 43 33.3736 43H5.50592C1.55739 43 -1.10478 38.9627 0.450626 35.3334L3.02205 29.3334C3.88874 27.3112 5.8772 26 8.07735 26H10.6287C10.2906 25.5165 9.959 25.019 9.63837 24.5094C7.61679 21.2964 5.93977 17.4582 5.93977 13.5ZM12.934 29H8.07735C7.07728 29 6.17344 29.596 5.77949 30.5152L3.20806 36.5152C2.50106 38.1649 3.71113 40 5.50592 40H33.3736C35.1684 40 36.3785 38.1649 35.6715 36.5152L33.1 30.5152C32.7061 29.596 31.8023 29 30.8022 29H25.9455C24.8668 30.2883 23.819 31.4026 22.9352 32.289C20.9858 34.2444 17.8938 34.2444 15.9443 32.289C15.0606 31.4026 14.0127 30.2883 12.934 29ZM19.4398 3C13.6233 3 8.93977 7.51125 8.93977 13.5C8.93977 16.6479 10.2926 19.9158 12.1776 22.9118C14.0499 25.8875 16.3584 28.4553 18.0688 30.1709C18.846 30.9504 20.0335 30.9504 20.8107 30.1709C22.5211 28.4553 24.8297 25.8875 26.702 22.9118C28.587 19.9158 29.9398 16.6479 29.9398 13.5C29.9398 7.51125 25.2563 3 19.4398 3ZM19.4398 13C19.3072 13 19.18 13.0527 19.0862 13.1464C18.9924 13.2402 18.9398 13.3674 18.9398 13.5C18.9398 13.6326 18.9924 13.7598 19.0862 13.8536C19.18 13.9473 19.3072 14 19.4398 14C19.5724 14 19.6996 13.9473 19.7933 13.8536C19.8871 13.7598 19.9398 13.6326 19.9398 13.5C19.9398 13.3674 19.8871 13.2402 19.7933 13.1464C19.6996 13.0527 19.5724 13 19.4398 13ZM16.9649 11.0251C17.6213 10.3688 18.5115 10 19.4398 10C20.368 10 21.2583 10.3688 21.9146 11.0251C22.571 11.6815 22.9398 12.5717 22.9398 13.5C22.9398 14.4283 22.571 15.3185 21.9146 15.9749C21.2583 16.6313 20.368 17 19.4398 17C18.5115 17 17.6213 16.6312 16.9649 15.9749C16.3085 15.3185 15.9398 14.4283 15.9398 13.5C15.9398 12.5717 16.3085 11.6815 16.9649 11.0251Z" />
	</symbol>

	<symbol id="why3" viewBox="0 0 47 39">
		<path
			d="M47 17.8745C47.0018 16.0084 46.5293 14.1705 45.6241 12.5229C44.7189 10.8753 43.4089 9.4686 41.8096 8.42682C40.2103 7.38503 38.3708 6.74016 36.4532 6.54907C34.5356 6.35798 32.599 6.62654 30.814 7.33106C29.0289 8.03559 27.4504 9.15444 26.2175 10.589C24.9846 12.0235 24.1352 13.7296 23.7442 15.557C23.3532 17.3843 23.4327 19.2767 23.9756 21.0672C24.5184 22.8578 25.508 24.4916 26.8571 25.8245V37.3739C26.8569 37.651 26.9299 37.9236 27.0692 38.1657C27.2085 38.4078 27.4095 38.6114 27.653 38.7571C27.8964 38.9029 28.1744 38.9859 28.4604 38.9984C28.7463 39.0108 29.0309 38.9522 29.2869 38.8282L35.25 35.9399L41.2131 38.8282C41.4691 38.9522 41.7536 39.0108 42.0396 38.9984C42.3256 38.9859 42.6036 38.9029 42.847 38.7571C43.0905 38.6114 43.2915 38.4078 43.4308 38.1657C43.57 37.9236 43.6431 37.651 43.6429 37.3739V25.8245C45.7957 23.7034 47.0014 20.8482 47 17.8745ZM35.25 9.74971C36.9099 9.74971 38.5326 10.2262 39.9128 11.119C41.293 12.0117 42.3687 13.2807 43.004 14.7653C43.6392 16.2499 43.8054 17.8835 43.4816 19.4595C43.1577 21.0356 42.3584 22.4833 41.1846 23.6195C40.0109 24.7558 38.5154 25.5296 36.8874 25.8431C35.2593 26.1566 33.5718 25.9957 32.0382 25.3808C30.5046 24.7658 29.1938 23.7244 28.2716 22.3883C27.3494 21.0522 26.8571 19.4814 26.8571 17.8745C26.8571 15.7196 27.7414 13.6531 29.3153 12.1294C30.8893 10.6057 33.0241 9.74971 35.25 9.74971ZM36.0012 32.6696C35.768 32.5567 35.5108 32.4979 35.25 32.4979C34.9892 32.4979 34.732 32.5567 34.4988 32.6696L30.2143 34.7455V28.1503C31.7878 28.8738 33.508 29.2491 35.25 29.2491C36.992 29.2491 38.7122 28.8738 40.2857 28.1503V34.7455L36.0012 32.6696ZM23.5 30.8741C23.5 31.305 23.3231 31.7184 23.0084 32.0231C22.6936 32.3278 22.2666 32.499 21.8214 32.499H3.35714C2.46677 32.499 1.61287 32.1566 0.983284 31.5472C0.353698 30.9377 0 30.1111 0 29.2491V3.2499C0 2.38797 0.353698 1.56135 0.983284 0.951874C1.61287 0.342399 2.46677 0 3.35714 0H40.2857C41.1761 0 42.03 0.342399 42.6596 0.951874C43.2892 1.56135 43.6429 2.38797 43.6429 3.2499C43.6429 3.68087 43.466 4.09418 43.1512 4.39892C42.8364 4.70365 42.4095 4.87485 41.9643 4.87485C41.5191 4.87485 41.0921 4.70365 40.7774 4.39892C40.4626 4.09418 40.2857 3.68087 40.2857 3.2499H3.35714V29.2491H21.8214C22.2666 29.2491 22.6936 29.4203 23.0084 29.7251C23.3231 30.0298 23.5 30.4431 23.5 30.8741ZM20.1429 19.4994C20.1429 19.9304 19.966 20.3437 19.6512 20.6484C19.3364 20.9532 18.9095 21.1244 18.4643 21.1244H10.0714C9.62624 21.1244 9.19929 20.9532 8.8845 20.6484C8.56971 20.3437 8.39286 19.9304 8.39286 19.4994C8.39286 19.0685 8.56971 18.6551 8.8845 18.3504C9.19929 18.0457 9.62624 17.8745 10.0714 17.8745H18.4643C18.9095 17.8745 19.3364 18.0457 19.6512 18.3504C19.966 18.6551 20.1429 19.0685 20.1429 19.4994ZM20.1429 12.9996C20.1429 13.4306 19.966 13.8439 19.6512 14.1486C19.3364 14.4534 18.9095 14.6246 18.4643 14.6246H10.0714C9.62624 14.6246 9.19929 14.4534 8.8845 14.1486C8.56971 13.8439 8.39286 13.4306 8.39286 12.9996C8.39286 12.5686 8.56971 12.1553 8.8845 11.8506C9.19929 11.5459 9.62624 11.3747 10.0714 11.3747H18.4643C18.9095 11.3747 19.3364 11.5459 19.6512 11.8506C19.966 12.1553 20.1429 12.5686 20.1429 12.9996Z" />
	</symbol>

	<symbol id="why4" viewBox="0 0 44 44">
		<path
			d="M13.1111 2V0.5V2ZM33.2 28.4556C33.6971 27.7928 33.5627 26.8526 32.9 26.3556C32.2373 25.8585 31.2971 25.9928 30.8 26.6556L33.2 28.4556ZM13.2 26.6556C12.7029 25.9928 11.7627 25.8585 11.1 26.3556C10.4373 26.8526 10.3029 27.7928 10.8 28.4556L13.2 26.6556ZM3.5 30.8889V13.1111H0.5V30.8889H3.5ZM3.5 13.1111C3.5 10.5621 4.5126 8.11746 6.31503 6.31503L4.19371 4.19371C1.82867 6.55875 0.5 9.76644 0.5 13.1111H3.5ZM6.31503 6.31503C8.11746 4.5126 10.5621 3.5 13.1111 3.5V0.5C9.76644 0.5 6.55875 1.82867 4.19371 4.19371L6.31503 6.31503ZM13.1111 3.5H30.8889V0.5H13.1111V3.5ZM30.8889 3.5C33.4379 3.5 35.8825 4.5126 37.685 6.31503L39.8063 4.19371C37.4412 1.82867 34.2336 0.5 30.8889 0.5V3.5ZM37.685 6.31503C39.4874 8.11746 40.5 10.5621 40.5 13.1111H43.5C43.5 9.76644 42.1713 6.55875 39.8063 4.19371L37.685 6.31503ZM40.5 13.1111V30.8889H43.5V13.1111H40.5ZM40.5 30.8889C40.5 33.4379 39.4874 35.8825 37.685 37.685L39.8063 39.8063C42.1713 37.4412 43.5 34.2336 43.5 30.8889H40.5ZM37.685 37.685C35.8825 39.4874 33.4379 40.5 30.8889 40.5V43.5C34.2336 43.5 37.4412 42.1713 39.8063 39.8063L37.685 37.685ZM30.8889 40.5H13.1111V43.5H30.8889V40.5ZM13.1111 40.5C10.5621 40.5 8.11746 39.4874 6.31503 37.685L4.19371 39.8063C6.55875 42.1713 9.76644 43.5 13.1111 43.5V40.5ZM6.31503 37.685C4.5126 35.8825 3.5 33.4379 3.5 30.8889H0.5C0.5 34.2336 1.82867 37.4412 4.19371 39.8063L6.31503 37.685ZM32 27.5556C30.8 26.6556 30.8004 26.655 30.8008 26.6545C30.8009 26.6543 30.8013 26.6538 30.8015 26.6535C30.802 26.6529 30.8024 26.6523 30.8028 26.6518C30.8035 26.6509 30.8041 26.6502 30.8044 26.6497C30.8051 26.6488 30.805 26.6489 30.8041 26.65C30.8024 26.6523 30.7976 26.6585 30.7896 26.6684C30.7737 26.6883 30.7455 26.723 30.7049 26.7703C30.6236 26.8652 30.4933 27.0104 30.3143 27.1893C29.9556 27.548 29.4062 28.0375 28.668 28.5297C27.1972 29.5102 24.9819 30.5 22 30.5V33.5C25.6848 33.5 28.4694 32.2676 30.3321 31.0259C31.2605 30.4069 31.961 29.7853 32.4357 29.3107C32.6733 29.073 32.8556 28.8709 32.9826 28.7227C33.0462 28.6486 33.0961 28.5877 33.1322 28.5425C33.1503 28.5199 33.165 28.5011 33.1763 28.4866C33.182 28.4793 33.1868 28.473 33.1907 28.4678C33.1927 28.4653 33.1944 28.4629 33.196 28.4609C33.1968 28.4599 33.1975 28.4589 33.1982 28.458C33.1985 28.4576 33.199 28.457 33.1991 28.4567C33.1996 28.4561 33.2 28.4556 32 27.5556ZM22 30.5C19.0181 30.5 16.8028 29.5102 15.3321 28.5297C14.5938 28.0375 14.0444 27.548 13.6857 27.1893C13.5067 27.0104 13.3764 26.8652 13.2951 26.7703C13.2545 26.723 13.2263 26.6883 13.2104 26.6684C13.2024 26.6585 13.1976 26.6523 13.1959 26.65C13.195 26.6489 13.1949 26.6488 13.1956 26.6497C13.1959 26.6502 13.1965 26.6509 13.1972 26.6518C13.1976 26.6523 13.198 26.6529 13.1985 26.6535C13.1987 26.6538 13.1991 26.6543 13.1992 26.6545C13.1996 26.655 13.2 26.6556 12 27.5556C10.8 28.4556 10.8004 28.4561 10.8009 28.4567C10.8011 28.457 10.8015 28.4576 10.8018 28.458C10.8025 28.4589 10.8032 28.4599 10.804 28.4609C10.8056 28.4629 10.8073 28.4653 10.8093 28.4678C10.8132 28.473 10.818 28.4793 10.8237 28.4866C10.835 28.5011 10.8497 28.5199 10.8678 28.5425C10.9039 28.5877 10.9538 28.6486 11.0174 28.7227C11.1444 28.8709 11.3267 29.073 11.5643 29.3107C12.039 29.7853 12.7395 30.4069 13.668 31.0259C15.5306 32.2676 18.3152 33.5 22 33.5V30.5ZM14.2222 16.0556C14.3254 16.0556 14.4243 16.0965 14.4972 16.1695L12.3759 18.2908C12.8656 18.7805 13.5297 19.0556 14.2222 19.0556V16.0556ZM14.4972 16.1695C14.5701 16.2424 14.6111 16.3413 14.6111 16.4444H11.6111C11.6111 17.137 11.8862 17.8011 12.3759 18.2908L14.4972 16.1695ZM14.6111 16.4444C14.6111 16.5476 14.5701 16.6465 14.4972 16.7194L12.3759 14.5981C11.8862 15.0878 11.6111 15.7519 11.6111 16.4444H14.6111ZM14.4972 16.7194C14.4243 16.7924 14.3254 16.8333 14.2222 16.8333V13.8333C13.5297 13.8333 12.8656 14.1084 12.3759 14.5981L14.4972 16.7194ZM14.2222 16.8333C14.1191 16.8333 14.0202 16.7924 13.9472 16.7194L16.0686 14.5981C15.5789 14.1084 14.9147 13.8333 14.2222 13.8333V16.8333ZM13.9472 16.7194C13.8743 16.6465 13.8333 16.5476 13.8333 16.4444H16.8333C16.8333 15.7519 16.5582 15.0878 16.0686 14.5981L13.9472 16.7194ZM13.8333 16.4444C13.8333 16.3413 13.8743 16.2424 13.9472 16.1695L16.0686 18.2908C16.5582 17.8011 16.8333 17.137 16.8333 16.4444H13.8333ZM13.9472 16.1695C14.0202 16.0965 14.1191 16.0556 14.2222 16.0556V19.0556C14.9147 19.0556 15.5789 18.7805 16.0686 18.2908L13.9472 16.1695ZM29.7778 16.0556C29.8809 16.0556 29.9798 16.0965 30.0528 16.1695L27.9314 18.2908C28.4211 18.7805 29.0853 19.0556 29.7778 19.0556V16.0556ZM30.0528 16.1695C30.1257 16.2424 30.1667 16.3413 30.1667 16.4444H27.1667C27.1667 17.137 27.4418 17.8011 27.9314 18.2908L30.0528 16.1695ZM30.1667 16.4444C30.1667 16.5476 30.1257 16.6465 30.0528 16.7194L27.9314 14.5981C27.4418 15.0878 27.1667 15.7519 27.1667 16.4444H30.1667ZM30.0528 16.7194C29.9798 16.7924 29.8809 16.8333 29.7778 16.8333V13.8333C29.0853 13.8333 28.4211 14.1084 27.9314 14.5981L30.0528 16.7194ZM29.7778 16.8333C29.6746 16.8333 29.5757 16.7924 29.5028 16.7194L31.6241 14.5981C31.1344 14.1084 30.4703 13.8333 29.7778 13.8333V16.8333ZM29.5028 16.7194C29.4299 16.6465 29.3889 16.5476 29.3889 16.4444H32.3889C32.3889 15.7519 32.1138 15.0878 31.6241 14.5981L29.5028 16.7194ZM29.3889 16.4444C29.3889 16.3413 29.4299 16.2424 29.5028 16.1695L31.6241 18.2908C32.1138 17.8011 32.3889 17.137 32.3889 16.4444H29.3889ZM29.5028 16.1695C29.5757 16.0965 29.6746 16.0556 29.7778 16.0556V19.0556C30.4703 19.0556 31.1344 18.7805 31.6241 18.2908L29.5028 16.1695Z" />
	</symbol>

	<symbol id="why5" viewBox="0 0 37 34">
		<path
			d="M33.5741 0H3.42595C2.51734 0 1.64594 0.358213 1.00346 0.995837C0.360974 1.63346 2.98732e-05 2.49826 2.98732e-05 3.4V30.6C-0.00270652 31.2475 0.182602 31.8821 0.533781 32.4277C0.884961 32.9734 1.38714 33.4072 1.98021 33.677C2.43548 33.8885 2.93183 33.9988 3.43452 34C4.23897 33.9979 5.01679 33.7137 5.63053 33.1976L5.66308 33.1704L10.963 28.56H33.5741C34.4827 28.56 35.3541 28.2018 35.9966 27.5642C36.6391 26.9265 37 26.0617 37 25.16V3.4C37 2.49826 36.6391 1.63346 35.9966 0.995837C35.3541 0.358213 34.4827 0 33.5741 0ZM32.8889 24.48H10.706C9.89952 24.4799 9.11885 24.7623 8.50146 25.2773L8.46891 25.3045L4.11114 29.0938V4.08H32.8889V24.48ZM11.6482 14.28C11.6482 13.742 11.8089 13.2162 12.1101 12.7688C12.4112 12.3215 12.8393 11.9729 13.3401 11.767C13.8409 11.5612 14.3919 11.5073 14.9236 11.6123C15.4553 11.7172 15.9436 11.9763 16.3269 12.3567C16.7102 12.7371 16.9712 13.2217 17.077 13.7494C17.1827 14.277 17.1285 14.8239 16.921 15.3209C16.7136 15.8179 16.3623 16.2427 15.9116 16.5416C15.4609 16.8405 14.931 17 14.3889 17C13.662 17 12.9649 16.7134 12.4509 16.2033C11.9369 15.6932 11.6482 15.0014 11.6482 14.28ZM19.8704 14.28C19.8704 13.742 20.0311 13.2162 20.3323 12.7688C20.6334 12.3215 21.0615 11.9729 21.5623 11.767C22.0631 11.5612 22.6142 11.5073 23.1458 11.6123C23.6775 11.7172 24.1658 11.9763 24.5491 12.3567C24.9324 12.7371 25.1934 13.2217 25.2992 13.7494C25.405 14.277 25.3507 14.8239 25.1432 15.3209C24.9358 15.8179 24.5845 16.2427 24.1338 16.5416C23.6831 16.8405 23.1532 17 22.6111 17C21.8842 17 21.1871 16.7134 20.6731 16.2033C20.1591 15.6932 19.8704 15.0014 19.8704 14.28Z" />
	</symbol>

	<symbol id="play" viewBox="0 0 25 30">
		<path d="M0 0L25 15L0 30V0Z" />
	</symbol>
	<symbol id="star" viewBox="0 0 22 21">
		<path
			d="M11 0L14.4128 6.89399L22 8.02129L16.522 13.4093L17.7984 21L11 17.436L4.20163 21L5.478 13.4093L0 8.02129L7.58722 6.89399L11 0Z" />
	</symbol>
	<symbol id="vk" viewBox="0 0 24 16">
		<path
			d="M19.9157 9.10143C19.5277 8.57643 19.6387 8.34286 19.9157 7.87357C19.9207 7.86821 23.1238 3.12607 23.4538 1.51786L23.4558 1.51679C23.6198 0.930714 23.4558 0.5 22.6628 0.5H20.0387C19.3707 0.5 19.0627 0.869643 18.8977 1.28321C18.8977 1.28321 17.5616 4.70964 15.6715 6.93071C15.0615 7.5725 14.7795 7.77821 14.4465 7.77821C14.2825 7.77821 14.0275 7.5725 14.0275 6.98643V1.51679C14.0275 0.813928 13.8405 0.5 13.2875 0.5H9.16132C8.7423 0.5 8.49329 0.827857 8.49329 1.13321C8.49329 1.79964 9.43833 1.95286 9.53633 3.82786V7.89607C9.53633 8.7875 9.38533 8.95143 9.05031 8.95143C8.15828 8.95143 5.99321 5.51107 4.71016 1.57357C4.45115 0.809643 4.19815 0.501071 3.52512 0.501071H0.900031C0.151005 0.501071 0 0.870714 0 1.28429C0 2.015 0.892031 5.64821 4.14814 10.4482C6.31822 13.7246 9.37433 15.5 12.1544 15.5C13.8255 15.5 14.0295 15.1057 14.0295 14.4275C14.0295 11.2968 13.8785 11.0011 14.7155 11.0011C15.1035 11.0011 15.7715 11.2068 17.3316 12.7871C19.1147 14.6611 19.4077 15.5 20.4057 15.5H23.0298C23.7778 15.5 24.1568 15.1057 23.9388 14.3279C23.4398 12.6918 20.0677 9.32643 19.9157 9.10143Z" />
	</symbol>

	<symbol id="location" viewBox="0 0 18 26">
		<path fill-rule="evenodd" clip-rule="evenodd"
			d="M9 26C9 26 18 14.409 18 9.28242C18 4.15588 13.9706 0 9 0C4.02944 0 0 4.15588 0 9.28242C0 14.409 9 26 9 26ZM9 13.1155C11.0525 13.1155 12.7164 11.3993 12.7164 9.28242C12.7164 7.16549 11.0525 5.44938 9 5.44938C6.94747 5.44938 5.28358 7.16549 5.28358 9.28242C5.28358 11.3993 6.94747 13.1155 9 13.1155Z" />
	</symbol>

	<symbol id="metro" viewBox="0 0 26 26">
		<path fill-rule="evenodd" clip-rule="evenodd"
			d="M13 24.5C19.3513 24.5 24.5 19.3513 24.5 13C24.5 6.64873 19.3513 1.5 13 1.5C6.64873 1.5 1.5 6.64873 1.5 13C1.5 19.3513 6.64873 24.5 13 24.5ZM13 26C20.1797 26 26 20.1797 26 13C26 5.8203 20.1797 0 13 0C5.8203 0 0 5.8203 0 13C0 20.1797 5.8203 26 13 26Z" />
		<path
			d="M5 17.1892H6.03704L10.1852 6L13 12.3243L15.8148 6L19.963 17.1892H21V18H15.3704V17.1892H16.4074L15.0741 13.6216L13 18L10.9259 13.6216L9.59259 17.1892H10.6296V18H5V17.1892Z" />
	</symbol>

	<symbol id="route" viewBox="0 0 27 27">
		<path
			d="M13.5 26C20.4036 26 26 20.4036 26 13.5C26 6.59644 20.4036 1 13.5 1C6.59644 1 1 6.59644 1 13.5C1 20.4036 6.59644 26 13.5 26Z"
			stroke-width="1.5" />
		<path
			d="M15.9125 20.8362C15.51 21.9987 13.8663 21.9975 13.465 20.835L11.44 14.9675L5.7275 12.5387C4.59625 12.0575 4.71 10.4163 5.8975 10.0963L18.6875 6.645C18.9149 6.58354 19.1547 6.58525 19.3811 6.64994C19.6076 6.71464 19.8121 6.83987 19.9727 7.01216C20.1333 7.18445 20.2439 7.39727 20.2925 7.62772C20.3412 7.85816 20.326 8.09751 20.2488 8.32L15.9125 20.8362Z"
			stroke-width="1.5" />
	</symbol>

	<symbol id="tg" viewBox="0 0 26 22">
		<path
			d="M24.8566 9.46649C24.0609 14.576 23.1961 20.1617 23.1961 20.1617C23.1961 20.1617 23.0627 21.729 21.9335 22C20.7237 21.981 19.5545 21.5498 18.6102 20.7745C18.3434 20.5694 13.6242 17.5056 11.897 16.0066C11.7208 15.8848 11.5777 15.7191 11.4809 15.5252C11.3841 15.3313 11.3368 15.1155 11.3435 14.8978C11.3501 14.6801 11.4105 14.4676 11.519 14.2803C11.6274 14.093 11.7804 13.9369 11.9637 13.8266C14.3311 11.6012 16.6574 9.33043 18.9414 7.01541C19.7395 6.19759 20.5375 4.29094 17.2142 6.60768C12.4949 9.94492 7.84236 13.0771 7.84236 13.0771C7.36318 13.2987 6.84533 13.4189 6.31976 13.4306C5.7942 13.4424 5.27172 13.3454 4.78357 13.1455C2.78961 12.5327 0.464469 11.7149 0.464469 11.7149C0.464469 11.7149 -1.13162 10.6944 1.59369 9.59376C1.59369 9.59376 13.0929 4.75758 17.0808 3.05597C18.6102 2.37485 23.7941 0.194801 23.7941 0.194801C23.7941 0.194801 26.1882 -0.759709 25.9881 1.55703C25.9214 2.52097 25.3902 5.85821 24.8566 9.46649Z" />
	</symbol>

	<symbol id="viber" viewBox="0 0 26 28">
		<path
			d="M25.7344 16.2096C26.5806 9.18431 25.3279 4.74905 23.0682 2.74299L23.0694 2.74182C19.4223 -0.683987 7.10535 -1.19104 2.74206 2.89569C0.782599 4.89476 0.0924145 7.82867 0.0167778 11.4608C-0.0588588 15.0941 -0.148677 21.9003 6.28162 23.7466H6.28753L6.28162 26.5663C6.28162 26.5663 6.23789 27.7086 6.97771 27.9383C7.82389 28.2087 8.20681 27.6783 10.8387 24.5777C15.2398 24.9542 18.6198 24.0917 19.0039 23.9658C19.8927 23.672 24.9213 23.0158 25.7344 16.2096ZM11.2725 22.5938C11.2725 22.5938 8.4869 26.0196 7.62062 26.909C7.33698 27.1981 7.02617 27.1713 7.03089 26.5978C7.03089 26.2213 7.05217 21.9166 7.05217 21.9166C1.60042 20.3756 1.92188 14.5801 1.98097 11.5482C2.04006 8.51523 2.6026 6.03126 4.26188 4.35857C8.08981 0.818521 18.8881 1.60999 21.6394 4.16041C25.0029 7.10131 23.8057 15.41 23.8128 15.6932C23.1214 21.3746 19.0465 21.7347 18.2972 21.9807C17.9769 22.0856 15.0046 22.8398 11.2725 22.5938Z" />
		<path
			d="M12.8135 5.02415C12.3585 5.02415 12.3585 5.72353 12.8135 5.72936C16.3437 5.75617 19.2509 8.18303 19.2828 12.6346C19.2828 13.1044 19.9801 13.0985 19.9742 12.6288H19.973C19.9352 7.83217 16.7608 5.05096 12.8135 5.02415Z" />
		<path
			d="M17.4569 11.8967C17.4463 12.3607 18.1424 12.3828 18.1483 11.9131C18.2062 9.26822 16.5528 7.08964 13.4458 6.86001C12.9908 6.82737 12.9435 7.53259 13.3974 7.56522C16.0919 7.76688 17.5113 9.58061 17.4569 11.8967Z" />
		<path
			d="M16.7124 14.9053C16.1286 14.5719 15.5341 14.7794 15.2883 15.1069L14.7742 15.7632C14.513 16.0965 14.0249 16.0522 14.0249 16.0522C10.4629 15.1232 9.51036 11.4468 9.51036 11.4468C9.51036 11.4468 9.46663 10.9491 9.79281 10.6821L10.4357 10.1576C10.7572 9.90583 10.9605 9.2997 10.6331 8.70406C9.75854 7.1456 9.17117 6.60824 8.87217 6.19561C8.55781 5.80745 8.08508 5.72003 7.59344 5.98229H7.5828C6.56053 6.57211 5.44134 7.67597 5.79943 8.81246C6.41044 10.0107 7.53317 13.8305 11.1117 16.7167C12.7935 18.0816 15.4549 19.4804 16.5847 19.8033L16.5954 19.8196C17.7087 20.1856 18.7912 19.0386 19.3691 18V17.9919C19.6256 17.4895 19.5405 17.0139 19.1658 16.7027C18.5017 16.0639 17.4995 15.3587 16.7124 14.9053Z" />
		<path
			d="M13.9327 9.46172C15.0685 9.52699 15.6192 10.1121 15.6783 11.3139C15.6996 11.7837 16.3909 11.751 16.3697 11.2813C16.294 9.71233 15.4644 8.8381 13.9706 8.75651C13.5156 8.7297 13.473 9.43491 13.9327 9.46172Z" />
	</symbol>

	<symbol id="whatsapp" viewBox="0 0 25 24">
		<path
			d="M12.5031 0H12.4969C5.60469 0 0 5.382 0 12C0 14.625 0.88125 17.058 2.37969 19.0335L0.821875 23.4915L5.62656 22.017C7.60313 23.274 9.96094 24 12.5031 24C19.3953 24 25 18.6165 25 12C25 5.3835 19.3953 0 12.5031 0ZM19.7766 16.9455C19.475 17.763 18.2781 18.441 17.3234 18.639C16.6703 18.7725 15.8172 18.879 12.9453 17.736C9.27187 16.275 6.90625 12.6915 6.72188 12.459C6.54531 12.2265 5.2375 10.5615 5.2375 8.8395C5.2375 7.1175 6.14844 6.279 6.51563 5.919C6.81719 5.6235 7.31562 5.4885 7.79375 5.4885C7.94844 5.4885 8.0875 5.496 8.2125 5.502C8.57969 5.517 8.76406 5.538 9.00625 6.0945C9.30781 6.792 10.0422 8.514 10.1297 8.691C10.2188 8.868 10.3078 9.108 10.1828 9.3405C10.0656 9.5805 9.9625 9.687 9.77812 9.891C9.59375 10.095 9.41875 10.251 9.23438 10.47C9.06563 10.6605 8.875 10.8645 9.0875 11.217C9.3 11.562 10.0344 12.7125 11.1156 13.6365C12.5109 14.829 13.6422 15.21 14.0469 15.372C14.3484 15.492 14.7078 15.4635 14.9281 15.2385C15.2078 14.949 15.5531 14.469 15.9047 13.9965C16.1547 13.6575 16.4703 13.6155 16.8016 13.7355C17.1391 13.848 18.925 14.6955 19.2922 14.871C19.6594 15.048 19.9016 15.132 19.9906 15.2805C20.0781 15.429 20.0781 16.1265 19.7766 16.9455Z" />
	</symbol>
	<symbol id="close-mobile" viewBox="0 0 20 20">
		<path
			d="M4.20042 0.720665C3.23952 -0.240222 1.68158 -0.240222 0.720679 0.720665C-0.240226 1.68155 -0.240226 3.23946 0.720678 4.20035L4.20062 7.68023C5.48182 8.96141 5.48182 11.0386 4.20062 12.3198L0.720697 15.7997C-0.240205 16.7605 -0.240205 18.3184 0.720696 19.2793C1.6816 20.2402 3.23953 20.2402 4.20043 19.2793L7.68036 15.7995C8.96156 14.5183 11.0388 14.5183 12.32 15.7995L15.7996 19.279C16.7605 20.2399 18.3184 20.2399 19.2793 19.279C20.2402 18.3181 20.2402 16.7602 19.2793 15.7993L15.7998 12.3198C14.5185 11.0386 14.5185 8.9614 15.7998 7.68022L19.2793 4.20072C20.2402 3.23983 20.2402 1.68192 19.2793 0.721037C18.3184 -0.239849 16.7605 -0.239849 15.7996 0.721038L12.32 4.20054C11.0388 5.48172 8.96156 5.48172 7.68036 4.20054L4.20042 0.720665Z" />
	</symbol>

	<symbol id="document" viewBox="0 0 42 34">
		<path
			d="M2 11.5713H40M36.6071 31.9284H5.39286C4.49302 31.9284 3.63003 31.571 2.99374 30.9347C2.35746 30.2984 2 29.4354 2 28.5356V5.46415C2 4.5643 2.35746 3.70132 2.99374 3.06503C3.63003 2.42875 4.49302 2.07129 5.39286 2.07129H11.83C12.4999 2.07131 13.1548 2.26964 13.7121 2.64129L16.0736 4.21557C16.6309 4.58722 17.2858 4.78556 17.9558 4.78557H36.6071C37.507 4.78557 38.37 5.14304 39.0063 5.77932C39.6425 6.4156 40 7.27859 40 8.17843V28.5356C40 29.4354 39.6425 30.2984 39.0063 30.9347C38.37 31.571 37.507 31.9284 36.6071 31.9284Z"
			stroke-width="3" stroke-linecap="round" stroke-linejoin="round" />
	</symbol>

	<symbol id="download" viewBox="0 0 14 20">
		<path d="M1 19H13M7 1V15M7 15L12 10M7 15L2 10" stroke-width="2" stroke-linecap="round" stroke-linejoin="round" />
	</symbol>

	<symbol id="arrow-bottom" viewBox="0 0 20 12">
		<path d="M19 1.5L10 10.5L0.999999 1.5" stroke-width="2" />
	</symbol>


</svg>