<svg width="35" height="39" viewBox="0 0 35 39" fill="none" xmlns="http://www.w3.org/2000/svg">
<path d="M25.5438 14.0596C28.0587 15.8564 31.1395 16.9137 34.467 16.9137V10.5141C33.8372 10.5142 33.2091 10.4485 32.593 10.3181V15.3554C29.2659 15.3554 26.1854 14.2984 23.67 12.5017V25.5615C23.67 32.0947 18.371 37.3905 11.8349 37.3905C9.39615 37.3905 7.12931 36.6536 5.24634 35.3897C7.3955 37.5861 10.3926 38.9485 13.7083 38.9485C20.245 38.9485 25.5441 33.6528 25.5441 27.1193V14.0596H25.5438ZM27.8556 7.60328C26.5703 6.1999 25.7264 4.38627 25.5438 2.38117V1.55811H23.768C24.215 4.10648 25.7398 6.28365 27.8556 7.60328ZM9.38039 30.3764C8.66233 29.4355 8.27418 28.2842 8.27592 27.1006C8.27592 24.1126 10.6996 21.6898 13.6899 21.6898C14.2471 21.6895 14.801 21.7751 15.3321 21.9434V15.4007C14.7114 15.3157 14.0851 15.2795 13.459 15.2928V20.3853C12.9276 20.2168 12.3734 20.1314 11.8159 20.1319C8.8258 20.1319 6.40224 22.5544 6.40224 25.5427C6.40224 27.6558 7.61362 29.4852 9.38039 30.3764Z" fill="#FF004F"/>
<path d="M23.6707 12.5016C26.1862 14.2982 29.2664 15.3553 32.5937 15.3553V10.3179C30.7364 9.92249 29.0923 8.95253 27.8562 7.60328C25.7403 6.28351 24.2157 4.10635 23.7687 1.55811H19.1043V27.119C19.0936 30.0989 16.6741 32.5117 13.6903 32.5117C11.9321 32.5117 10.37 31.6741 9.38081 30.3763C7.6143 29.4852 6.40279 27.6557 6.40279 25.5429C6.40279 22.5548 8.82635 20.132 11.8165 20.132C12.3894 20.132 12.9416 20.2211 13.4595 20.3854V15.293C7.03817 15.4256 1.87396 20.6696 1.87396 27.1191C1.87396 30.3387 3.15993 33.2573 5.24716 35.3899C7.13013 36.6536 9.39683 37.3907 11.8357 37.3907C18.372 37.3907 23.6708 32.0946 23.6708 25.5615V12.5017L23.6707 12.5016Z" fill="black"/>
<path d="M32.5935 10.3176V8.95587C30.9187 8.9584 29.277 8.48962 27.856 7.60312C29.1138 8.97945 30.7701 9.92856 32.5935 10.3179V10.3176ZM23.7684 1.55781C23.7258 1.31433 23.6931 1.06921 23.6704 0.823068V0H17.2299V25.5612C17.2197 28.5408 14.8002 30.9536 11.8162 30.9536C10.9703 30.9548 10.1359 30.7571 9.38053 30.3764C10.3697 31.6739 11.9319 32.5114 13.69 32.5114C16.6737 32.5114 19.0935 30.0989 19.104 27.119V1.55795H23.7684V1.55781ZM13.4597 15.2927V13.8427C12.9215 13.7691 12.3789 13.7323 11.8357 13.7326C5.29885 13.7326 0 19.0286 0 25.5612C0 29.6569 2.08251 33.2663 5.24715 35.3895C3.15992 33.2571 1.87395 30.3383 1.87395 27.1188C1.87395 20.6695 7.03802 15.4253 13.4597 15.2927Z" fill="#00F2EA"/>
</svg>
