<svg width="46" height="29" viewBox="0 0 46 29" fill="none" xmlns="http://www.w3.org/2000/svg">
	<path
		d="M38.1717 16.5301C37.428 15.5501 37.6408 15.1141 38.1717 14.2381C38.1813 14.2281 44.3206 5.37612 44.9531 2.37412L44.957 2.37212C45.2713 1.27812 44.957 0.474121 43.437 0.474121H38.4075C37.1271 0.474121 36.5368 1.16412 36.2205 1.93612C36.2205 1.93612 33.6597 8.33212 30.0371 12.4781C28.8679 13.6761 28.3274 14.0601 27.6891 14.0601C27.3748 14.0601 26.886 13.6761 26.886 12.5821V2.37212C26.886 1.06012 26.5276 0.474121 25.4676 0.474121H17.5592C16.7561 0.474121 16.2788 1.08612 16.2788 1.65612C16.2788 2.90012 18.0901 3.18612 18.278 6.68612V14.2801C18.278 15.9441 17.9885 16.2501 17.3464 16.2501C15.6367 16.2501 11.487 9.82812 9.02781 2.47812C8.53138 1.05212 8.04645 0.476121 6.75648 0.476121H1.72506C0.289427 0.476121 0 1.16612 0 1.93812C0 3.30212 1.70973 10.0841 7.95061 19.0441C12.1099 25.1601 17.9675 28.4741 23.296 28.4741C26.4988 28.4741 26.8898 27.7381 26.8898 26.4721C26.8898 20.6281 26.6004 20.0761 28.2047 20.0761C28.9484 20.0761 30.2288 20.4601 33.2189 23.4101C36.6364 26.9081 37.198 28.4741 39.1109 28.4741H44.1404C45.5742 28.4741 46.3006 27.7381 45.8828 26.2861C44.9263 23.2321 38.4631 16.9501 38.1717 16.5301Z"
		fill="#0077FF" />
</svg>