<svg width="25" height="24" viewBox="0 0 25 24" fill="none" xmlns="http://www.w3.org/2000/svg">
<path d="M12.5031 0H12.4969C5.60469 0 0 5.382 0 12C0 14.625 0.88125 17.058 2.37969 19.0335L0.821875 23.4915L5.62656 22.017C7.60313 23.274 9.96094 24 12.5031 24C19.3953 24 25 18.6165 25 12C25 5.3835 19.3953 0 12.5031 0ZM19.7766 16.9455C19.475 17.763 18.2781 18.441 17.3234 18.639C16.6703 18.7725 15.8172 18.879 12.9453 17.736C9.27187 16.275 6.90625 12.6915 6.72188 12.459C6.54531 12.2265 5.2375 10.5615 5.2375 8.8395C5.2375 7.1175 6.14844 6.279 6.51563 5.919C6.81719 5.6235 7.31562 5.4885 7.79375 5.4885C7.94844 5.4885 8.0875 5.496 8.2125 5.502C8.57969 5.517 8.76406 5.538 9.00625 6.0945C9.30781 6.792 10.0422 8.514 10.1297 8.691C10.2188 8.868 10.3078 9.108 10.1828 9.3405C10.0656 9.5805 9.9625 9.687 9.77812 9.891C9.59375 10.095 9.41875 10.251 9.23438 10.47C9.06563 10.6605 8.875 10.8645 9.0875 11.217C9.3 11.562 10.0344 12.7125 11.1156 13.6365C12.5109 14.829 13.6422 15.21 14.0469 15.372C14.3484 15.492 14.7078 15.4635 14.9281 15.2385C15.2078 14.949 15.5531 14.469 15.9047 13.9965C16.1547 13.6575 16.4703 13.6155 16.8016 13.7355C17.1391 13.848 18.925 14.6955 19.2922 14.871C19.6594 15.048 19.9016 15.132 19.9906 15.2805C20.0781 15.429 20.0781 16.1265 19.7766 16.9455Z" fill="#2EC650"/>
</svg>
