<svg width="42" height="29" viewBox="0 0 42 29" fill="none" xmlns="http://www.w3.org/2000/svg">
<path fill-rule="evenodd" clip-rule="evenodd" d="M40.215 2.81912C39.0757 0.792621 37.8394 0.419871 35.322 0.278121C32.8073 0.107496 26.4836 0.0366211 21.0052 0.0366211C15.5164 0.0366211 9.19012 0.107496 6.678 0.275496C4.16587 0.419871 2.92687 0.789996 1.77713 2.81912C0.60375 4.843 0 8.329 0 14.4662V14.4872C0 20.5982 0.60375 24.1105 1.77713 26.1134C2.92687 28.1399 4.16325 28.5074 6.67537 28.678C9.19012 28.825 15.5164 28.9116 21.0052 28.9116C26.4836 28.9116 32.8073 28.825 35.3246 28.6806C37.842 28.51 39.0784 28.1425 40.2176 26.116C41.4015 24.1131 42 20.6009 42 14.4899V14.4689C42 8.329 41.4015 4.843 40.215 2.81912Z" fill="#F44336"/>
<path fill-rule="evenodd" clip-rule="evenodd" d="M15.7494 22.3491V6.59912L28.8744 14.4741L15.7494 22.3491Z" fill="#FAFAFA"/>
</svg>
